<svg width="24" height="43" viewBox="0 0 24 43" fill="none" xmlns="http://www.w3.org/2000/svg">
<path fill-rule="evenodd" clip-rule="evenodd" d="M16.7019 33.886C16.7002 33.887 16.6986 33.888 16.6968 33.8888C16.6967 33.8889 16.6966 33.8889 16.6966 33.8889C16.6963 33.8891 16.6961 33.8892 16.6958 33.8893C16.6708 33.9024 16.6464 33.9167 16.623 33.9319C16.6124 33.9387 16.6028 33.9463 16.5925 33.9535C16.5799 33.9624 16.5672 33.971 16.5552 33.9806C16.5421 33.991 16.5298 34.0021 16.5174 34.0131C16.5091 34.0205 16.5005 34.0276 16.4926 34.0353C16.4799 34.0474 16.4684 34.0601 16.4566 34.0727C16.4496 34.0805 16.4421 34.0879 16.4353 34.096C16.4248 34.1083 16.4151 34.1211 16.4055 34.1339C16.3982 34.1434 16.3908 34.1527 16.3839 34.1624C16.376 34.1739 16.3689 34.1855 16.3616 34.1973C16.354 34.2094 16.3463 34.2214 16.3394 34.2338C16.3339 34.2438 16.3291 34.254 16.324 34.2641C16.3166 34.2788 16.3092 34.2934 16.3028 34.3086C16.2988 34.3176 16.2957 34.3269 16.2922 34.336C16.2859 34.3524 16.2794 34.3687 16.2743 34.3854C16.2712 34.3952 16.2689 34.4052 16.2661 34.4151C16.2618 34.4313 16.2572 34.4473 16.2538 34.4638C16.251 34.4776 16.2492 34.4917 16.2471 34.5058C16.2452 34.5184 16.2428 34.5308 16.2414 34.5436C16.2388 34.5687 16.2375 34.5939 16.2374 34.6192C16.2374 34.6212 16.237 34.6232 16.237 34.6252V34.6261C16.237 34.6281 16.237 34.6301 16.237 34.6322V41.3203H5.62291V39.8444H9.25546C9.74437 39.8444 10.1407 39.4684 10.1407 39.0046C10.1407 38.5407 9.74437 38.1647 9.25546 38.1647H5.62291V35.0582C6.30569 35.4613 7.03672 35.8034 7.81094 36.072C7.91124 36.1068 8.01392 36.1233 8.11493 36.1233C8.47592 36.1233 8.81514 35.9121 8.94642 35.5717C9.11426 35.1361 8.87817 34.6538 8.41909 34.4945C4.44228 33.1148 1.77039 29.5005 1.77039 25.5009V7.05894C1.77039 6.1635 2.53824 5.4351 3.48207 5.4351C4.42582 5.4351 5.19349 6.16358 5.19349 7.05894V22.1021C5.19349 23.8783 6.67899 25.331 8.5332 25.4021C8.38997 25.6171 8.25435 25.8383 8.129 26.0668C7.90336 26.4784 8.07208 26.9855 8.50585 27.1994C8.63642 27.2639 8.77602 27.2943 8.91358 27.2943C9.23324 27.2943 9.54192 27.1296 9.69967 26.8419C11.0365 24.4036 13.6667 22.8889 16.5639 22.8889H17.6358C18.1248 22.8889 18.5211 22.5129 18.5211 22.0491C18.5211 21.5852 18.1248 21.2092 17.6358 21.2092H13.8688C12.9262 21.2092 12.1594 20.4825 12.1576 19.5886V19.5855C12.1576 19.5849 12.1574 19.5843 12.1574 19.5837C12.1584 18.6892 12.9257 17.9617 13.8688 17.9617H20.2324C20.5732 17.9617 20.8902 18.0578 21.1572 18.2212C21.1697 18.2294 21.1826 18.2368 21.1956 18.2443C21.6469 18.5369 21.9438 19.0287 21.9438 19.5852V25.5009C21.9438 28.9883 19.9353 32.2007 16.7019 33.886ZM8.6757 12.7019C9.61865 12.7019 10.386 13.4291 10.3872 14.3234C10.3872 14.3241 10.3872 14.3248 10.3872 14.3255V19.5855C10.3872 19.5876 10.3874 19.5897 10.3874 19.5919V22.102C10.3874 22.9973 9.61936 23.7256 8.67552 23.7256C7.73187 23.7256 6.96419 22.9972 6.96419 22.102V14.3255C6.96419 13.4302 7.73204 12.7019 8.6757 12.7019ZM13.8692 12.7019C14.8129 12.7019 15.5808 13.4303 15.5808 14.3257V16.2822H13.869C13.2471 16.2822 12.6634 16.4384 12.1576 16.7105V14.3289C12.1576 14.3278 12.1578 14.3268 12.1578 14.3257C12.1578 14.3249 12.1577 14.3242 12.1577 14.3236C12.159 13.4292 12.9261 12.7019 13.8692 12.7019ZM17.3512 3.30353C17.3512 2.40817 18.119 1.67969 19.0627 1.67969C20.0063 1.67969 20.7742 2.40817 20.7742 3.30353V16.3222C20.5976 16.2959 20.4167 16.282 20.2325 16.282H17.3512V3.30353ZM22.5446 17.1184V3.30353C22.5446 1.48199 20.9825 0 19.0626 0C17.1427 0 15.5807 1.48199 15.5807 3.30353V11.4505C15.0748 11.1783 14.491 11.022 13.8691 11.022C12.8379 11.022 11.9104 11.4499 11.2723 12.1278C10.6341 11.4499 9.70647 11.0221 8.67535 11.0221C8.05365 11.0221 7.46984 11.1783 6.96402 11.4504V7.0589C6.96402 5.23736 5.40203 3.75537 3.48197 3.75537C1.56208 3.75537 0 5.23736 0 7.0589V25.501C0 28.6992 1.45337 31.6865 3.85261 33.7808V42.1602C3.85261 42.624 4.24893 43 4.73784 43H17.1224C17.6113 43 18.0076 42.624 18.0076 42.1602V35.1081C21.5404 33.0705 23.7144 29.4354 23.7144 25.5009V19.5853C23.7144 18.6052 23.2616 17.7238 22.5446 17.1184Z" fill="#7C6C8A"/>
</svg>
