<svg width="20" height="19" viewBox="0 0 20 19" fill="none" xmlns="http://www.w3.org/2000/svg">
<path fill-rule="evenodd" clip-rule="evenodd" d="M15.4797 14.269C15.1464 14.6023 14.6056 14.6023 14.2716 14.269C13.9383 13.9357 13.9383 13.3949 14.2716 13.0609L17.0837 10.2487H7.18911C6.71791 10.2487 6.33505 9.86658 6.33505 9.39465C6.33505 8.92345 6.71791 8.54059 7.18911 8.54059H17.0837L14.2716 5.72845C13.9383 5.39516 13.9383 4.85428 14.2716 4.52098C14.6056 4.18697 15.1464 4.18697 15.4797 4.52098L19.75 8.79128C19.9167 8.95793 20 9.17629 20 9.39465C20 9.61373 19.9167 9.8321 19.75 9.99874L15.4797 14.269ZM6.83247 17.9352C6.83247 18.4072 6.45034 18.7893 5.97913 18.7893H2.56218C2.21811 18.7893 1.88338 18.7225 1.56805 18.5911C1.26349 18.4639 0.989818 18.2815 0.754934 18.0495C0.518613 17.8167 0.333291 17.5452 0.203279 17.2421C0.0682385 16.9275 0 16.5935 0 16.2494V2.56218C0 2.21668 0.0682386 1.88123 0.201842 1.56446C0.331137 1.2599 0.51574 0.985508 0.750624 0.750624C0.985508 0.51574 1.25918 0.331137 1.56518 0.201842C1.88123 0.0675203 2.21668 0 2.56218 0H5.97913C6.45034 0 6.83247 0.382136 6.83247 0.854059C6.83247 1.32598 6.45034 1.70812 5.97913 1.70812H2.56218C2.09097 1.70812 1.70812 2.09169 1.70812 2.56218V16.2494C1.70812 16.7084 2.09097 17.0812 2.56218 17.0812H5.97913C6.45034 17.0812 6.83247 17.464 6.83247 17.9352Z" fill="#E92070"/>
</svg>
