<svg xmlns="http://www.w3.org/2000/svg" xmlns:xlink="http://www.w3.org/1999/xlink" width="240" height="340" xmlns:v="https://vecta.io/nano"><style><![CDATA[.G{fill-rule:nonzero}.H{fill:#fefefe}.I{fill:#4f008c}]]></style><defs><path id="A" d="M0 .7h20.78v21.095H0z"/><path id="B" d="M0 .695h20.78v21.217H0z"/><linearGradient x1="50%" y1="86.9690011%" x2="50%" y2="-4.76463835%" id="C"><stop stop-color="#fcde87" offset="0%"/><stop stop-color="#f5b444" offset="21%"/><stop stop-color="#e14d75" offset="38%"/><stop stop-color="#de3a8d" offset="52%"/><stop stop-color="#804492" offset="74%"/><stop stop-color="#514f99" offset="100%"/></linearGradient><path id="D" d="M0 .676h20.78V21.35H0z"/></defs><g fill="none" fill-rule="evenodd"><g class="G"><path d="M0 10.628C0 3 3 0 9.6-.122h220.8C237 0 240 3 240 10.628v32.25H0v-32.25z" fill="#e92070"/><g fill="#fff"><path d="M35.382 19.954V16.47h1.48c1.235 0 2.267-.363 3.094-1.088s1.24-1.655 1.24-2.788c0-1.156-.408-2.088-1.224-2.796s-1.853-1.062-3.1-1.062h0-4.403v11.22h2.924zm1.496-6.035h-1.496v-2.635h1.496c.408 0 .734.12.977.357s.365.555.365.952-.122.717-.365.96-.57.366-.977.366h0zm13.464 6.035V17.32H45.7V8.734h-2.924v11.22h7.565zm3.587 0l.408-.935h4.03l.408.935h3.145L56.82 8.53h-.935l-5.1 11.424h3.145zm3.4-3.28h-1.955l.986-2.6.97 2.6zm15.7 3.485V8.734h-2.924v5.6L64 8.53h-.935v11.424H66V14.26l6.086 5.9h.935zm14.688-.204V16.47h1.48c1.235 0 2.267-.363 3.094-1.088s1.24-1.655 1.24-2.788c0-1.156-.408-2.088-1.224-2.796s-1.853-1.062-3.1-1.062h0-4.403v11.22h2.924zm1.496-6.035h-1.496v-2.635h1.496c.408 0 .734.12.978.357s.365.555.365.952-.122.717-.365.96-.57.366-.978.366h0zm8.823 6.035V16.47h1.207l2.533 3.485h3.264l-2.958-4.165c1.18-.725 1.768-1.8 1.768-3.196 0-1.156-.408-2.088-1.224-2.796s-1.853-1.062-3.1-1.062h0-4.403v11.22h2.924zm1.496-6.035h-1.496v-2.635h1.496c.408 0 .734.12.978.357s.365.555.365.952-.122.717-.365.96-.57.366-.978.366h0zm11.866 6.24c1.643.023 3.074-.538 4.293-1.683s1.8-2.522 1.776-4.13v-.28c-.037-1.48-.63-2.763-1.776-3.85-1.218-1.156-2.65-1.717-4.293-1.683-1.643-.034-3.068.527-4.275 1.683s-1.794 2.533-1.76 4.13c-.034 1.6.55 2.986 1.75 4.13a5.87 5.87 0 0 0 4.284 1.683zm.017-2.686c-.907 0-1.643-.283-2.2-.85-.567-.6-.85-1.35-.85-2.278s.283-1.683.85-2.26 1.303-.867 2.2-.867c.873 0 1.6.292 2.185.875s.875 1.335.875 2.252c0 .93-.3 1.683-.867 2.26s-1.3.867-2.193.867zm10.642 2.482v-4.692l2.312 2.703h.935l2.33-2.72v4.7h2.924V8.53h-.935l-4.777 5.83-4.777-5.83h-.935v11.424h2.924zm16.2.204c1.643.023 3.074-.538 4.293-1.683s1.8-2.522 1.776-4.13v-.28c-.037-1.48-.63-2.763-1.776-3.85-1.218-1.156-2.65-1.717-4.293-1.683-1.643-.034-3.068.527-4.275 1.683s-1.793 2.533-1.76 4.13c-.034 1.6.55 2.986 1.75 4.13a5.87 5.87 0 0 0 4.284 1.683zm.017-2.686c-.907 0-1.643-.283-2.2-.85-.567-.6-.85-1.35-.85-2.278s.283-1.683.85-2.26 1.303-.867 2.2-.867c.873 0 1.6.292 2.185.875s.875 1.335.875 2.252c0 .93-.3 1.683-.867 2.26s-1.3.867-2.193.867zm13.192 2.686c1.133 0 2.148-.264 3.043-.8a5.62 5.62 0 0 0 2.108-2.22h0l-2.227-1.513c-.725 1.224-1.7 1.836-2.924 1.836-.884 0-1.62-.283-2.2-.85-.567-.6-.85-1.343-.85-2.26 0-.94.286-1.7.858-2.278s1.306-.867 2.202-.867c1.224 0 2.2.612 2.924 1.836h0l2.227-1.513c-.5-.952-1.213-1.7-2.108-2.218s-1.904-.8-3.026-.8a5.81 5.81 0 0 0-4.3 1.675c-1.2 1.15-1.8 2.53-1.768 4.14-.034 1.6.552 2.986 1.76 4.13a5.9 5.9 0 0 0 4.292 1.683zm9.74-.204V8.734h-2.924v11.22h2.924zm7.7.204c1.643.023 3.074-.538 4.292-1.683s1.8-2.522 1.776-4.13c.034-1.598-.558-2.975-1.776-4.13s-2.65-1.717-4.292-1.683c-1.643-.034-3.068.527-4.275 1.683s-1.794 2.533-1.76 4.13v.282c.036 1.5.62 2.772 1.75 3.85a5.87 5.87 0 0 0 4.284 1.683zm.017-2.686c-.907 0-1.643-.283-2.2-.85-.567-.6-.85-1.35-.85-2.278s.283-1.683.85-2.26 1.303-.867 2.2-.867c.873 0 1.6.292 2.184.875s.876 1.335.876 2.252c0 .93-.3 1.683-.867 2.26s-1.3.867-2.193.867zm17.663 2.686V8.734h-2.924v5.6L177.57 8.53h-.935v11.424h2.924V14.26l6.086 5.9h.935zm4.3-.204l.408-.935h4.03l.408.935h3.145l-5.1-11.424h-.935l-5.1 11.424h3.145zm3.4-3.28h-1.955l.986-2.6.97 2.6zm13.3 3.28V17.32h-4.64V8.734h-2.924v11.22h7.565z"/><path d="M22.5 34.066l4.074-9.394h-1.666l-2.66 6.426-2.66-6.426h-1.666l4.074 9.394h.504zm6.188-8.624a.98.98 0 0 0 .7-.28.91.91 0 0 0 .294-.686c0-.27-.098-.502-.294-.693s-.43-.287-.7-.287c-.28 0-.518.096-.714.287s-.294.422-.294.693a.91.91 0 0 0 .294.686c.196.187.434.28.714.28zm.728 8.47v-6.874h-1.47v6.874h1.47zm5.432 2.674c1.055 0 1.892-.296 2.513-.89s.93-1.426.93-2.5h0v-6.16h-1.358v.98c-.532-.756-1.344-1.134-2.436-1.134-.96 0-1.76.324-2.394.973s-.952 1.472-.952 2.47.317 1.822.952 2.47 1.433.973 2.394.973c1.008 0 1.783-.327 2.324-.98h0v.5c0 .635-.184 1.12-.553 1.456s-.87.504-1.505.504c-.793 0-1.596-.327-2.408-.98h0l-.812 1.022a4.69 4.69 0 0 0 3.304 1.302zm-.084-4.102c-.588 0-1.087-.196-1.498-.588-.4-.4-.602-.924-.602-1.568 0-.635.2-1.148.602-1.54s.9-.588 1.498-.588 1.092.184 1.484.553.588.89.588 1.56c0 .69-.205 1.227-.616 1.6a2.06 2.06 0 0 1-1.456.56zm8.918 1.582c1.055 0 1.97-.37 2.744-1.106h0l-.7-1.008c-.607.54-1.274.812-2.002.812-.588 0-1.085-.16-1.49-.483s-.656-.763-.75-1.323h5.124c.075-.345.112-.653.112-.924 0-.896-.303-1.645-.9-2.247s-1.363-.903-2.268-.903c-.97-.02-1.81.33-2.52 1.043a3.4 3.4 0 0 0-1.036 2.555c0 1.017.355 1.87 1.064 2.555s1.587 1.03 2.632 1.03zM45.25 29.8h-3.738c.112-.513.348-.922.707-1.225s.782-.455 1.267-.455a1.79 1.79 0 0 1 1.246.455c.336.303.51.712.518 1.225h0zm4.62 4.102V29.8c0-.467.147-.85.44-1.148s.67-.448 1.127-.448c.448 0 .8.147 1.085.44s.413.68.413 1.155h0v4.102h1.47v-4.298c0-.83-.23-1.493-.693-1.988s-1.1-.742-1.883-.742c-.85 0-1.535.275-2.058.826h0v-.672H48.4v6.874h1.47zm9.786.154a3.4 3.4 0 0 0 1.68-.42 3.27 3.27 0 0 0 1.218-1.176h0l-1.036-.798c-.504.69-1.12 1.036-1.848 1.036-.616 0-1.13-.215-1.54-.644s-.616-.96-.616-1.596a2.2 2.2 0 0 1 .616-1.582c.41-.43.924-.644 1.54-.644.747 0 1.363.35 1.848 1.05h0l1.036-.812c-.644-1.064-1.6-1.596-2.898-1.596-.99-.02-1.848.33-2.576 1.043s-1.083 1.56-1.064 2.54c0 1 .352 1.848 1.057 2.548s1.566 1.05 2.583 1.05zm5.264-8.624a.98.98 0 0 0 .7-.28.91.91 0 0 0 .294-.686c0-.27-.098-.502-.294-.693s-.43-.287-.7-.287c-.28 0-.518.096-.714.287s-.294.422-.294.693a.91.91 0 0 0 .294.686c.196.187.434.28.714.28zm.728 8.47v-6.874h-1.47v6.874h1.47zm4.018.154c.952 0 1.685-.308 2.198-.924h0v.77h1.372v-4.158c0-.905-.254-1.6-.763-2.114s-1.192-.756-2.05-.756c-1.26 0-2.226.5-2.898 1.47h0l.854.868c.57-.68 1.204-1.022 1.904-1.022.467 0 .828.126 1.085.378s.385.616.385 1.092h0v.448h-1.946c-.775 0-1.39.177-1.848.532s-.686.83-.686 1.428a1.78 1.78 0 0 0 .658 1.442c.44.364 1.017.546 1.736.546zm.308-1.134c-.364 0-.656-.082-.875-.245s-.33-.385-.33-.665c0-.56.406-.84 1.218-.84h1.764v.126a1.5 1.5 0 0 1-.511 1.162c-.34.308-.763.462-1.267.462zm10.696.98v-4.088c0-.467.147-.85.44-1.148s.67-.448 1.127-.448.82.147 1.092.44.406.68.406 1.155h0v4.088h1.47v-4.298c0-.82-.23-1.482-.693-1.98s-1.08-.75-1.855-.75c-.85 0-1.512.28-1.988.84h0v-4.312H79.2v10.5h1.47zm8.47.154c.952 0 1.685-.308 2.198-.924h0v.77H92.7v-4.158c0-.905-.254-1.6-.763-2.114s-1.192-.756-2.05-.756c-1.26 0-2.226.5-2.898 1.47h0l.854.868c.57-.68 1.204-1.022 1.904-1.022.467 0 .828.126 1.085.378s.385.616.385 1.092h0v.448H89.28c-.775 0-1.39.177-1.848.532s-.686.83-.686 1.428a1.78 1.78 0 0 0 .658 1.442c.44.364 1.017.546 1.736.546zm.308-1.134c-.364 0-.656-.082-.875-.245s-.33-.385-.33-.665c0-.56.406-.84 1.218-.84h1.764v.126a1.5 1.5 0 0 1-.511 1.162c-.34.308-.763.462-1.267.462zm7.434 1.134c.728 0 1.335-.182 1.82-.546.485-.373.728-.89.728-1.554 0-.476-.147-.87-.44-1.183s-.772-.61-1.435-.89h0l-.658-.266c-.345-.14-.583-.268-.714-.385a.55.55 0 0 1-.196-.427c0-.44.313-.658.938-.658s1.162.233 1.6.7h0l.798-.9c-.597-.71-1.39-1.064-2.38-1.064-.71 0-1.3.18-1.743.54s-.68.842-.68 1.45c0 .467.142.852.427 1.155s.74.586 1.365.847h0l.7.294c.364.15.616.282.756.4s.2.268.2.455a.64.64 0 0 1-.308.567c-.205.135-.47.203-.798.203-.663 0-1.307-.327-1.932-.98h0l-.84.924c.68.887 1.605 1.33 2.772 1.33zm7.112 0c.327 0 .733-.05 1.218-.154h0v-1.246l-.9.07c-.467 0-.8-.09-1.03-.273s-.33-.488-.33-.917h0v-3.234h2.044v-1.274h-2.044v-1.806h-1.484v1.806h-1.12v1.274h1.12v3.36c0 .793.222 1.39.665 1.792s1.066.602 1.87.602zm4.592 0c.952 0 1.685-.308 2.198-.924h0v.77h1.372v-4.158c0-.905-.254-1.6-.763-2.114s-1.192-.756-2.05-.756c-1.26 0-2.226.5-2.898 1.47h0l.854.868c.57-.68 1.204-1.022 1.904-1.022.467 0 .828.126 1.085.378s.385.616.385 1.092h0v.448h-1.946c-.775 0-1.39.177-1.848.532s-.686.83-.686 1.428a1.78 1.78 0 0 0 .658 1.442c.44.364 1.017.546 1.736.546zm.308-1.134c-.364 0-.656-.082-.875-.245s-.33-.385-.33-.665c0-.56.406-.84 1.218-.84h1.764v.126a1.5 1.5 0 0 1-.511 1.162c-.34.308-.763.462-1.267.462zm12.488 1.134c1.055 0 1.97-.37 2.744-1.106h0l-.7-1.008c-.607.54-1.274.812-2.002.812-.588 0-1.085-.16-1.49-.483s-.656-.763-.75-1.323h5.124c.075-.345.112-.653.112-.924 0-.896-.303-1.645-.9-2.247s-1.363-.903-2.268-.903c-.97-.02-1.81.33-2.52 1.043a3.4 3.4 0 0 0-1.036 2.555c0 1.017.355 1.87 1.064 2.555s1.587 1.03 2.632 1.03zm1.568-4.256h-3.738c.112-.513.348-.922.707-1.225s.782-.455 1.267-.455a1.79 1.79 0 0 1 1.246.455c.336.303.51.712.518 1.225h0zm4.62 4.102v-10.5h-1.47v10.5h1.47zm8.526.154c.933 0 1.73-.292 2.387-.875s.987-1.332.987-2.247c0-.803-.238-1.447-.714-1.932-.485-.495-1.064-.798-1.736-.9h0l2.24-3.024v-.406h-5.754v1.358h3.444l-2.156 2.898v.406h1.022c.68 0 1.206.14 1.575.42s.553.68.553 1.204-.175.945-.525 1.267-.805.483-1.365.483c-.85 0-1.573-.457-2.17-1.372h0l-1.036.728a3.73 3.73 0 0 0 1.316 1.463c.56.36 1.204.54 1.932.54zm8.12-.154v-9.24h-.518l-3.206 1.05.364 1.302 1.876-.602v7.5h1.484zm9.3.154c1.073 0 1.876-.378 2.408-1.134h0v.98h1.372v-10.5h-1.484v4.466c-.54-.663-1.307-.994-2.296-.994-.952-.02-1.755.324-2.408 1.03s-.97 1.56-.952 2.57c0 1.017.32 1.87.96 2.555s1.44 1.03 2.4 1.03zm.252-1.344c-.607 0-1.11-.212-1.512-.637s-.602-.964-.602-1.617.203-1.2.61-1.6a2.01 2.01 0 0 1 1.505-.63c.57 0 1.057.198 1.463.595s.61.95.61 1.66-.2 1.26-.602 1.652-.89.588-1.47.588zm8.918 1.344c1.055 0 1.97-.37 2.744-1.106h0l-.7-1.008c-.607.54-1.274.812-2.002.812-.588 0-1.085-.16-1.49-.483s-.656-.763-.75-1.323h5.124c.075-.345.112-.653.112-.924 0-.896-.303-1.645-.9-2.247s-1.363-.903-2.268-.903c-.97-.02-1.81.33-2.52 1.043A3.4 3.4 0 0 0 159 30.482c0 1.017.355 1.87 1.064 2.555s1.587 1.03 2.632 1.03zm1.568-4.256h-3.738c.112-.513.348-.922.707-1.225s.782-.455 1.267-.455a1.79 1.79 0 0 1 1.246.455c.336.303.51.712.518 1.225h0zm10.262 4.256c1 .02 1.862-.33 2.6-1.05s1.083-1.568 1.064-2.548c.02-.97-.336-1.815-1.064-2.534s-1.59-1.07-2.6-1.05c-.99-.02-1.846.33-2.57 1.043s-1.076 1.56-1.057 2.54c-.02.97.334 1.818 1.057 2.54s1.58 1.076 2.57 1.057zm0-1.358c-.607 0-1.113-.212-1.52-.637s-.61-.954-.61-1.59.205-1.17.616-1.603.92-.65 1.526-.65a2 2 0 0 1 1.512.651c.41.434.616.968.616 1.603a2.2 2.2 0 0 1-.616 1.582c-.41.43-.92.644-1.526.644zm8.54 1.358a3.4 3.4 0 0 0 1.68-.42 3.27 3.27 0 0 0 1.218-1.176h0l-1.036-.798c-.504.69-1.12 1.036-1.848 1.036-.616 0-1.13-.215-1.54-.644s-.616-.96-.616-1.596a2.2 2.2 0 0 1 .616-1.582c.41-.43.924-.644 1.54-.644.747 0 1.363.35 1.848 1.05h0l1.036-.812c-.644-1.064-1.6-1.596-2.898-1.596-.99-.02-1.848.33-2.576 1.043s-1.083 1.56-1.064 2.54c0 1 .352 1.848 1.057 2.548s1.566 1.05 2.583 1.05zm7.392 0c.327 0 .733-.05 1.218-.154h0v-1.246l-.9.07c-.467 0-.8-.09-1.03-.273s-.33-.488-.33-.917h0v-3.234h2.044v-1.274h-2.044v-1.806h-1.484v1.806h-1.12v1.274h1.12v3.36c0 .793.222 1.39.665 1.792s1.066.602 1.87.602zm5.642 0c.86 0 1.57-.28 2.135-.84s.847-1.293.847-2.198h0v-4h-1.47v4.102c0 .467-.142.845-.427 1.134s-.646.434-1.085.434c-.457 0-.83-.145-1.12-.434s-.434-.667-.434-1.134h0v-4.102H193.1v4c0 .915.282 1.65.847 2.205s1.286.833 2.163.833zm8.82 0c.96 0 1.762-.343 2.4-1.03s.96-1.538.96-2.555c0-1.027-.32-1.883-.96-2.57s-1.444-1.03-2.415-1.03c-.99 0-1.755.33-2.296.994h0v-4.466h-1.47v10.5h1.372v-.952c.532.737 1.335 1.106 2.408 1.106zm-.252-1.344c-.58 0-1.07-.196-1.47-.588s-.602-.943-.602-1.652c0-.72.2-1.274.602-1.666s.89-.588 1.47-.588c.597 0 1.097.2 1.498.63s.602.957.602 1.6-.2 1.195-.602 1.624c-.4.42-.9.63-1.498.63zm6.776 1.2v-3.668c0-.597.187-1.064.56-1.4s.86-.504 1.456-.504h.448v-1.302a2.3 2.3 0 0 0-.56-.07 2.44 2.44 0 0 0-2.002.966h0v-.896h-1.372v6.874h1.47zm6.902.154c1.055 0 1.97-.37 2.744-1.106h0l-.7-1.008c-.607.54-1.274.812-2.002.812-.588 0-1.085-.16-1.49-.483s-.656-.763-.75-1.323h5.124c.075-.345.112-.653.112-.924 0-.896-.303-1.645-.9-2.247s-1.363-.903-2.268-.903c-.97-.02-1.81.33-2.52 1.043a3.4 3.4 0 0 0-1.036 2.555c0 1.017.355 1.87 1.064 2.555s1.587 1.03 2.632 1.03zm1.568-4.256h-3.738c.112-.513.348-.922.707-1.225s.782-.455 1.267-.455a1.79 1.79 0 0 1 1.246.455c.336.303.51.712.518 1.225h0z"/></g><path d="M26.5 59v1h-10c-4.06 0-7.368 3.264-7.496 7.34L9 67.587v263.827c0 4.1 3.23 7.453 7.257 7.583l.243.004h209c4.06 0 7.368-3.264 7.496-7.34l.004-.246V67.587c0-4.1-3.23-7.453-7.257-7.583L225.5 60h-89v-1h89c4.6 0 8.36 3.707 8.496 8.33l.004.258v263.827c0 4.655-3.667 8.447-8.245 8.583l-.255.004h-209c-4.6 0-8.36-3.707-8.496-8.33l-.004-.26V67.587c0-4.655 3.667-8.447 8.245-8.583L16.5 59h10z" fill="#592d7c"/></g><g transform="translate(10 52)"><g transform="translate(0 108.599)"><g transform="translate(16 41.844)"><g transform="translate(0 .891)"><g transform="translate(73.327)"><mask id="E" fill="#fff"><use xlink:href="#A"/></mask><g class="G"><path d="M20.78 11.24c0 5.824-4.652 10.547-10.4 10.547S0 17.064 0 11.24 4.65.7 10.4.7s10.38 4.724 10.38 10.55" fill="#0f5ca5" mask="url(#E)"/><path d="M12.685 7.257l1.348-.002v-2.22c-.234-.03-1.03-.1-1.962-.1C10.13 4.933 8.8 6.09 8.8 8.215v1.834l-2.196-.004v2.487l2.196.002v6.377l2.627.004v-6.38l2.2.002.33-2.484-2.518-.002V8.465c0-.722.203-1.2 1.258-1.2" class="H"/></g></g><g transform="translate(97.471)"><mask id="F" fill="#fff"><use xlink:href="#B"/></mask><g class="G"><path d="M20.78 11.304c0 5.858-4.652 10.608-10.4 10.608S0 17.162 0 11.304 4.653.695 10.4.695s10.4 4.75 10.4 10.6" fill="#0098d3" mask="url(#F)"/><path d="M15.443 9.45c-.095 3.55-2.9 6.016-7.154 6.166-1.743.078-3-.386-4.162-.927 1.256.155 2.906-.23 3.773-.85-1.256-.077-2.03-.615-2.418-1.468.388.08.774.001 1.063.001-1.163-.3-1.932-.85-2.03-2.086.294.154.675.234 1.062.234-.868-.388-1.45-1.857-.768-2.782 1.256 1.083 2.8 2.012 5.317 2.168-.675-2.164 3-3.317 4.45-1.85.675-.075 1.16-.307 1.643-.457-.194.537-.58.848-1.062 1.155.48-.078.968-.152 1.354-.307-.1.384-.58.693-1.066 1.002" class="H"/></g></g><g transform="translate(25.038 .891)" class="G"><ellipse fill="url(#C)" cx="10.284" cy="10.245" rx="10.284" ry="10.245"/><g fill="#fff"><path d="M13.05 4.098H7.52a3.37 3.37 0 0 0-2.398.98c-.638.634-1 1.5-1.008 2.403v5.514C4.127 14.88 5.65 16.4 7.52 16.393h5.53c.9.006 1.763-.348 2.402-.985a3.42 3.42 0 0 0 1.003-2.41V7.495C16.44 5.6 14.918 4.1 13.05 4.098h0zm2.3 8.9a2.33 2.33 0 0 1-.682 1.636 2.29 2.29 0 0 1-1.629.67H7.52a2.29 2.29 0 0 1-1.629-.67 2.33 2.33 0 0 1-.682-1.636V7.482a2.33 2.33 0 0 1 .682-1.636 2.29 2.29 0 0 1 1.629-.67h5.53a2.29 2.29 0 0 1 1.634.675 2.33 2.33 0 0 1 .678 1.644v5.514zm-5.1-5.63c-1.586.02-2.858 1.3-2.845 2.9s1.305 2.852 2.9 2.846 2.868-1.3 2.868-2.87a2.87 2.87 0 0 0-.86-2.037c-.548-.537-1.286-.838-2.055-.832m0 4.75c-1.04-.013-1.875-.86-1.866-1.897s.856-1.87 1.897-1.867 1.882.846 1.882 1.882a1.89 1.89 0 0 1-.565 1.336c-.36.353-.843.55-1.347.547"/><path d="M13.992 5.737a.83.83 0 0 0-.588.244.81.81 0 0 0 0 1.156c.323.318.84.318 1.162 0a.81.81 0 0 0 0-1.156.83.83 0 0 0-.588-.244"/></g></g><g transform="translate(49.183 .891)"><mask id="G" fill="#fff"><use xlink:href="#D"/></mask><g class="G"><path d="M20.78 11.013c0 5.7-4.652 10.337-10.4 10.337S0 16.722 0 11.013 4.653.676 10.4.676s10.4 4.628 10.4 10.337" fill="#ffe91b" mask="url(#G)"/><path d="M5.163 13.445a2.37 2.37 0 0 0 .987-.41c.252-.162.488-.382.696-.646a3.8 3.8 0 0 0 .572-.94v-.014c.097-.2.1-.368.054-.5-.1-.265-.445-.382-.68-.456l-.042-.015-.112-.044c-.168-.074-.292-.148-.362-.22-.1-.102-.126-.206-.1-.264.014-.074.07-.162.166-.22.126-.073.292-.102.4-.043.32.162.585.206.78.104.055-.03.083-.1.083-.147 0-.1-.014-.176-.014-.264V9.35c-.042-.765-.098-1.72.125-2.262a3.15 3.15 0 0 1 .64-.97 2.59 2.59 0 0 1 .765-.528 2.81 2.81 0 0 1 1.196-.262h.208a2.83 2.83 0 0 1 1.197.265 2.61 2.61 0 0 1 .765.529 2.88 2.88 0 0 1 .64.971c.237.544.168 1.5.126 2.25v.043c0 .06-.014.102-.014.162v.073c0 .06.028.118.083.148s.125.043.194.043h.028a1.44 1.44 0 0 0 .502-.146c.07-.03.14-.03.166-.03.07 0 .126.015.195.046.153.058.266.176.266.294 0 .043-.015.117-.1.205s-.2.163-.388.25a.24.24 0 0 1-.098.03l-.042.014c-.223.073-.57.2-.682.455-.055.132-.042.308.057.513 0 .015 0 .015.013.03.126.294.822 1.734 2.255 1.986.055.014.097.06.097.132 0 .028-.014.06-.014.073-.04.1-.14.176-.306.264-.222.117-.57.206-1.03.278-.042.016-.083.044-.1.1s-.042.147-.07.28l-.014.074-.042.2c-.03.073-.07.117-.154.117-.042 0-.1 0-.223-.03-.154-.028-.348-.073-.597-.074-.153 0-.292.015-.43.044-.294.058-.557.234-.836.44-.377.278-.794.6-1.434.6h-.125c-.64-.001-1.057-.324-1.448-.604-.262-.2-.514-.382-.82-.442a2.15 2.15 0 0 0-.432-.044c-.25 0-.445.043-.585.073h-.013a1.15 1.15 0 0 1-.223.03c-.083 0-.14-.03-.168-.118a.87.87 0 0 1-.097-.25l-.014-.044c-.028-.117-.042-.22-.084-.28-.014-.043-.054-.073-.096-.073-.46-.074-.808-.178-1.044-.28-.154-.073-.266-.162-.307-.25-.014-.028-.014-.058-.014-.073v-.028c.055-.06.084-.1.126-.104" class="H"/><path d="M10.505 5.628h-.2a2.46 2.46 0 0 0-1.07.235 2.31 2.31 0 0 0-.676.467c-.232.232-.422.52-.576.87-.102.247-.144.633-.14 1.17l.007.318.045.94c0 .168-.087.328-.244.413-.295.155-.65.104-1.078-.113.01.006.002.01-.014.017l-.06.026-.01.008.016.014c.027.03.092.07.198.122l.12.054.068.024c.464.146.732.297.867.625.083.193.075.417-.012.64l-.035.074-.004.025a3.84 3.84 0 0 1-.493.861l-.123.156a3.16 3.16 0 0 1-.759.706 2.75 2.75 0 0 1-.723.366l-.04.01.07.028a4.29 4.29 0 0 0 .56.155l.2.04c.175 0 .33.116.34.198.043.06.067.115.1.194l.04.17.04.136.024.06.15-.023-.05.007.114-.024a2.65 2.65 0 0 1 .534-.056 2.44 2.44 0 0 1 .49.05c.228.044.415.132.657.294l.42.3c.394.28.66.412.988.44l.145.006h.125c.348.001.613-.097.96-.33l.294-.2c.392-.3.646-.432.952-.493a2.34 2.34 0 0 1 .496-.051 2.5 2.5 0 0 1 .338.024l.338.06.03.006.012-.05.05-.255c.02-.086.037-.143.073-.2a.55.55 0 0 1 .32-.227c.383-.06.665-.13.85-.207l.062-.03-.08-.023a3.09 3.09 0 0 1-1.23-.808l-.15-.164c-.317-.368-.545-.76-.645-1.018l-.022-.03-.035-.065-.007-.026-.034-.08a.92.92 0 0 1-.047-.545l.033-.098c.122-.292.337-.436.716-.574l.15-.05.135-.028h-.033a1.41 1.41 0 0 0 .268-.155l.022-.022-.06-.025c-.024-.01-.04-.016-.052-.018l-.055-.002a1.78 1.78 0 0 1-.468.154l-.165.02h-.028a.74.74 0 0 1-.337-.079c-.13-.07-.212-.193-.235-.33l-.007-.083.002-.132.01-.103v-.06l.035-.684.003-.102c.018-.624-.023-1.06-.143-1.336a2.59 2.59 0 0 0-.573-.87 2.31 2.31 0 0 0-.681-.471 2.43 2.43 0 0 0-.896-.23l-.173-.006zm5.562 7.962l-.008.078-.012.05.005-.05-.026.12c-.06.13-.166.24-.318.335l-.122.07c-.2.1-.498.197-.846.258l-.18.027-.078.38-.023.1c-.074.186-.22.307-.434.307-.1 0-.183-.01-.278-.036l-.134-.025a2.13 2.13 0 0 0-.408-.044 1.56 1.56 0 0 0-.372.04c-.17.033-.335.117-.583.292l-.275.2c-.464.337-.828.513-1.3.547l-.18.006h-.125c-.492-.001-.852-.137-1.307-.44l-.445-.315c-.255-.183-.408-.266-.578-.3a1.85 1.85 0 0 0-.37-.038 1.9 1.9 0 0 0-.274.02l-.3.053.05-.007a1.37 1.37 0 0 1-.286.036c-.216 0-.388-.114-.433-.276a1.26 1.26 0 0 1-.104-.24l-.016-.064-.02-.065-.032-.14-.122-.022c-.285-.056-.538-.125-.752-.205l-.153-.062c-.17-.08-.308-.18-.394-.298L4.78 13.8l-.01-.023c-.02-.045-.027-.082-.03-.12l-.003-.1.08-.205c.076-.08.12-.123.18-.153l.066-.028.1.28-.046-.293a2.02 2.02 0 0 0 .704-.258l.168-.108a2.6 2.6 0 0 0 .626-.585c.215-.26.377-.532.474-.74l.05-.117.012-.04a.39.39 0 0 0 .054-.215l-.01-.034c-.037-.1-.156-.167-.38-.247l-.268-.094-.03-.014c-.206-.1-.357-.183-.444-.275-.174-.16-.246-.372-.202-.54a.65.65 0 0 1 .312-.426c.2-.1.418-.15.594-.1l.083.04c.18.1.316.13.4.127h.01l-.008-.12-.035-.813c-.02-.726.026-1.243.184-1.63.186-.424.416-.774.705-1.063.25-.25.533-.444.85-.587a3.03 3.03 0 0 1 1.142-.286l.182-.004h.208a3.06 3.06 0 0 1 1.323.292 2.91 2.91 0 0 1 .853.591c.304.305.544.665.703 1.063.144.332.197.765.193 1.355l-.008.335-.035.68-.002.102-.008.063h.068c.064-.012.13-.032.204-.06l.113-.05a.68.68 0 0 1 .284-.053c.113 0 .2.023.303.065.26.1.46.315.46.574a.56.56 0 0 1-.18.4 1.27 1.27 0 0 1-.343.247l-.12.06c-.06.032-.125.057-.145.058l-.047.01c-.303.1-.455.183-.498.286-.016.038-.013.105.02.195l.03.072.005.02.013.022c.094.22.24.482.434.74l.154.192c.402.467.88.78 1.46.88.194.048.327.217.327.424z" fill="#1f140f"/></g></g><g class="G"><path d="M.096 22.206L1.6 16.78C.62 15.094.096 13.223.096 11.277.096 5.363 4.98.498 10.952.498s10.933 4.866 10.933 10.78-4.96 10.93-10.933 10.93c-1.88 0-3.68-.6-5.297-1.497l-5.56 1.497z" class="H"/><path d="M5.956 18.763l.338.187c1.4.86 3.006 1.385 4.696 1.385 4.92 0 9.016-4.08 9.016-9.058S15.9 2.37 10.952 2.37s-8.978 3.967-8.978 8.908c0 1.722.488 3.406 1.4 4.828l.226.337-.864 3.144 3.23-.823z" fill="#129f5c"/><path d="M8.06 6.262l-.714-.038a.85.85 0 0 0-.6.225c-.338.3-.902.86-1.052 1.6-.263 1.122.15 2.47 1.127 3.817s2.855 3.518 6.16 4.454c1.052.3 1.88.112 2.555-.3.526-.337.864-.86.977-1.423l.113-.524c.037-.15-.038-.337-.188-.412l-2.366-1.085a.36.36 0 0 0-.451.112l-.94 1.198c-.075.074-.188.112-.3.074-.638-.224-2.78-1.122-3.945-3.368-.037-.113-.037-.225.038-.3l.902-1c.075-.113.112-.262.075-.375l-1.1-2.432c-.037-.112-.15-.225-.3-.225" class="H"/></g></g><g class="G"><path d="M137.47 13.364v-2.9h-5.127V1.016h-3.23v12.348h8.357zm4.286 0V1.016h-3.23v12.348h3.23zm7.63 0c2.385 0 4.188-1.497 4.188-3.667 0-1.46-.807-2.45-2.066-2.956.47-.524.75-1.235.75-2.077 0-2.2-1.822-3.648-4.188-3.648h-4.47v12.348h5.784zm-1.52-7.465H146.7V3.73h1.164c.77 0 1.24.43 1.24 1.085s-.47 1.085-1.24 1.085zm1.315 4.752h-2.48V8.48h2.48c.75 0 1.24.355 1.24 1.085s-.488 1.085-1.24 1.085zm8.737 2.713V9.528h1.333l2.798 3.835h3.606l-3.268-4.584c1.202-.73 1.953-1.964 1.953-3.517 0-2.62-2.066-4.247-4.8-4.247h-4.864v12.348h3.23zm1.653-6.642h-1.653v-2.9h1.653c.9 0 1.484.58 1.484 1.44 0 .88-.582 1.46-1.484 1.46zm15.554 6.642v-2.9h-5.596V8.312h3.83V5.618h-3.83V3.916h5.37v-2.9h-8.6v12.348h8.826zm5.507.225c2.554 0 4.544-1.422 4.544-3.854 0-1.815-1.108-2.862-3.174-3.723l-1.427-.6c-.77-.318-1.07-.543-1.07-1 0-.56.47-.786 1.108-.786.94 0 1.484.486 2.047 1.3l2.16-1.646c-.714-1.422-2.084-2.488-4.244-2.488-2.516 0-4.338 1.44-4.338 3.648 0 1.74 1.164 2.862 3.136 3.723l1.277.56c.864.374 1.258.56 1.258 1.14 0 .6-.413.898-1.277.898-1.4 0-2.16-.786-2.76-1.6l-2.172 1.66c.883 1.665 2.667 2.77 4.94 2.77z" fill="#de2b85"/><path d="M133.55 22.273v-1.016h-3.648v-2.234h2.65v-.984h-2.65v-1.807h3.52v-1.016h-4.657v7.056h4.786zm7.157.118v-7.174h-1.137v4.757l-4.303-4.875h-.397v7.174h1.137v-4.78l4.314 4.896h.386zm5.934-.118v-2.726h1.298l2.017 2.726h1.298l-2.125-2.908a2.08 2.08 0 0 0 1.003-.77c.24-.35.36-.755.36-1.22 0-.634-.222-1.153-.665-1.556s-1.023-.604-1.738-.604h0-2.586v7.056h1.137zm1.427-3.73h-1.427v-2.32h1.427c.386 0 .692.107.917.32s.338.495.338.845-.113.63-.338.84-.53.315-.917.315h0zm8.992 3.73v-1.016h-3.648v-2.234h2.65v-.984h-2.65v-1.807h3.52v-1.016h-4.657v7.056h4.786zm3.54 0c1.145 0 2.073-.33 2.785-.994s1.068-1.51 1.068-2.544c0-1.048-.354-1.896-1.062-2.544s-1.638-.973-2.8-.973h0-2.22v7.056h2.22zm-.01-1.016h-1.073v-5.014h1.073c.823 0 1.477.226 1.964.68s.73 1.057.73 1.812c0 .748-.245 1.356-.735 1.823s-1.143.7-1.958.7h0zm12.2 1.016v-1.23h.966v-.973h-.966V17.9h-1.137v2.17h-2.114l2.007-4.854h-1.17l-2.264 5.516v.3h3.54v1.23h1.137zm5.355.118c.708 0 1.356-.167 1.942-.502s1.04-.788 1.363-1.358h0v-1.99h-3.316v1.005h2.178v.76c-.465.713-1.17 1.07-2.114 1.07-.758 0-1.382-.25-1.873-.754s-.735-1.13-.735-1.887c0-.748.238-1.368.714-1.86s1.086-.738 1.83-.738c.88 0 1.585.37 2.114 1.112h0l.826-.674c-.708-.984-1.685-1.475-2.93-1.475a3.6 3.6 0 0 0-2.656 1.058c-.74.72-1.1 1.582-1.078 2.587-.014 1.012.345 1.876 1.078 2.593s1.62 1.067 2.656 1.053z" class="I"/></g></g><g class="G"><path d="M90.334 25.17l1.703-6.152c-1.107-1.9-1.703-4.03-1.703-6.236C90.334 6.08 95.87.564 102.64.564s12.392 5.515 12.392 12.218S109.4 25.17 102.64 25.17c-2.13 0-4.173-.68-6.004-1.697l-6.302 1.697z" class="H"/><path d="M96.977 21.267l.383.212c1.576.976 3.407 1.57 5.323 1.57 5.578 0 10.22-4.624 10.22-10.267S108.26 2.685 102.64 2.685 92.464 7.182 92.464 12.782c0 1.952.554 3.86 1.575 5.473l.256.382-.98 3.563 3.662-.933z" fill="#129f5c"/><path d="M99.362 7.098l-.8-.043c-.256 0-.5.085-.68.255-.383.34-1.022.976-1.193 1.825-.298 1.272.17 2.8 1.278 4.327s3.236 3.988 6.983 5.048c1.193.34 2.13.127 2.896-.34a2.5 2.5 0 0 0 1.107-1.613l.128-.594a.43.43 0 0 0-.213-.467l-2.682-1.23c-.17-.085-.383-.043-.5.127l-1.064 1.358c-.085.084-.213.127-.34.084-.723-.254-3.15-1.272-4.47-3.817-.042-.128-.042-.255.043-.34l1.022-1.145c.085-.128.127-.297.085-.425L99.706 7.35a.37.37 0 0 0-.34-.255" class="H"/><path d="M121.145 15.293V3.42h-2.438v11.874h2.438zm9.42 0v-2.195h-5.22V3.42h-2.438v11.874h7.657zm3.28 0V3.42h-2.438v11.874h2.438zm4.202 0V8.96l2.998 3.742h.795l2.998-3.742v6.333h2.438v-12.1h-.795l-5.038 6.423-5.038-6.423h-.795v12.1h2.438zm13.447 0V3.42h-2.438v11.874h2.438zm6.892 0v-9.68h3.828V3.42H152.14v2.195h3.8v9.68h2.438zm4.6 0l.668-1.547h4.876l.668 1.547h2.618l-5.3-12.1h-.813l-5.327 12.1h2.618zm4.695-3.544h-3.178l1.6-4.012 1.6 4.012zm8.698 3.544c1.878.024 3.437-.534 4.677-1.673s1.848-2.573 1.824-4.3c.024-1.74-.578-3.163-1.806-4.273s-2.793-1.652-4.695-1.628h0-3.9v11.874h3.9zm-.018-2.195h-1.445V5.614h1.445c1.228 0 2.203.33 2.925 1s1.083 1.565 1.083 2.717c0 1.14-.367 2.054-1.102 2.744s-1.703 1.034-2.907 1.034h0zm13.25 2.4c1.722.036 3.217-.558 4.487-1.78s1.893-2.68 1.87-4.372c.024-1.7-.6-3.148-1.87-4.372s-2.766-1.817-4.487-1.78c-1.722-.036-3.2.558-4.47 1.78s-1.875 2.68-1.85 4.372c-.024 1.7.593 3.148 1.85 4.372s2.748 1.817 4.47 1.78zm.018-2.25c-1.108 0-2.023-.366-2.745-1.097s-1.083-1.667-1.083-2.807.36-2.075 1.083-2.807 1.637-1.097 2.745-1.097c1.096 0 2.007.37 2.736 1.106s1.093 1.67 1.093 2.798c0 1.14-.364 2.075-1.093 2.807s-1.64 1.097-2.736 1.097zM118.807 19.5c.2 0 .364-.067.497-.202a.68.68 0 0 0 .2-.5.67.67 0 0 0-.199-.495c-.132-.132-.298-.198-.497-.198a.69.69 0 0 0-.501.198.66.66 0 0 0-.203.495c0 .204.068.372.203.504a.69.69 0 0 0 .501.198zm.57 4.642l-.18-3.778h-.786l-.18 3.778h1.147zm2.068 0v-5.937h-.957v5.937h.957zm5.87.1v-6.036h-.957v4.003l-3.62-4.102h-.334v6.036h.957v-4.02l3.63 4.12h.325zm3.738 0a3.07 3.07 0 0 0 1.494-.364 2.75 2.75 0 0 0 1.061-1.003h0l-.722-.53c-.44.684-1.047 1.025-1.824 1.025a2.06 2.06 0 0 1-1.535-.625c-.4-.417-.614-.94-.614-1.57s.205-1.153.614-1.57.92-.625 1.535-.625c.777 0 1.384.342 1.824 1.025h0l.722-.53c-.26-.42-.614-.753-1.065-1s-.948-.37-1.5-.37a3.02 3.02 0 0 0-2.221.891 2.83 2.83 0 0 0-.912 2.177 2.83 2.83 0 0 0 .912 2.177 3.02 3.02 0 0 0 2.221.891zm6.844-.1v-.855h-2.727v-5.082h-.957v5.937h3.684zm2.727.1c.716 0 1.302-.225 1.756-.675s.682-1.058.682-1.826h0v-3.535h-.957v3.598c0 .492-.135.876-.406 1.15s-.63.414-1.074.414c-.45 0-.814-.138-1.088-.414s-.4-.66-.4-1.15h0v-3.598h-.957v3.535c0 .768.227 1.376.682 1.826s1.046.675 1.774.675zm5.86-.1V21.76l2.06-3.544h-1.056l-1.48 2.582-1.472-2.582h-1.065l2.06 3.544v2.393h.957zm6.555 0v-.855h-3.07v-1.88h2.23V20.6h-2.23v-1.52h2.962v-.855h-3.92v5.937h4.027zm6.24 0v-.855h-2.727v-5.082h-.957v5.937h3.684zm4.108 0v-.855h-2.727v-5.082h-.957v5.937h3.684zm.894 0l.424-1h2.682l.424 1h1.03l-2.627-6.036h-.325l-2.627 6.036h1.02zm2.763-1.808h-1.995l1.002-2.456.993 2.456zm3.16 1.808V20.42l1.716 2.24h.325l1.707-2.23v3.724h.957v-6.036h-.325l-2.5 3.32-2.5-3.32h-.334v6.036h.957zm6.13 0l.424-1h2.682l.424 1h1.03l-2.627-6.036h-.325l-2.627 6.036h1.02zm2.763-1.808H177.1l1.002-2.456.993 2.456zm4.072 1.808c.963 0 1.744-.28 2.343-.837s.898-1.27.898-2.14c0-.882-.298-1.595-.894-2.14s-1.378-.82-2.348-.82h0-1.87v5.937h1.87zm-.01-.855h-.903v-4.22h.903c.692 0 1.243.2 1.652.57s.614.9.614 1.525-.206 1.14-.618 1.534-.962.6-1.648.6h0zm4.17.855l.424-1h2.682l.424 1h1.03l-2.627-6.036h-.325l-2.627 6.036h1.02zm2.763-1.808h-1.995l1.002-2.456.993 2.456zm3.982 1.907c.578 0 1.055-.16 1.43-.477s.564-.732.564-1.24c0-.384-.113-.705-.34-.963s-.588-.5-1.088-.73h0l-.668-.306c-.018-.012-.045-.027-.08-.045l-.352-.18a1.26 1.26 0 0 1-.19-.139c-.1-.075-.146-.147-.167-.216a1.15 1.15 0 0 1-.041-.265.62.62 0 0 1 .253-.53 1.07 1.07 0 0 1 .65-.2c.512 0 .93.24 1.255.72h0l.668-.513a2.06 2.06 0 0 0-.79-.774c-.34-.192-.718-.288-1.133-.288-.53 0-.975.15-1.336.45a1.44 1.44 0 0 0-.542 1.16 1.36 1.36 0 0 0 .348.95c.232.256.58.487 1.043.697h0l.66.306c.33.156.56.292.686.4a.63.63 0 0 1 .2.48.73.73 0 0 1-.284.603c-.2.15-.438.225-.745.225-.608 0-1.13-.315-1.562-.945h0l-.677.513c.235.402.548.717.94.945s.828.342 1.3.342zm3.792-2.123l.172-3.913H196.9l.18 3.913h.786zm-.388 2.123c.2 0 .364-.066.497-.198a.67.67 0 0 0 .199-.495.68.68 0 0 0-.199-.504c-.132-.132-.298-.198-.497-.198a.69.69 0 0 0-.501.198c-.135.132-.203.3-.203.504a.66.66 0 0 0 .203.495.69.69 0 0 0 .501.198zM85.5 3.414v19.44h-1V3.414zM31.664 19.946v-1.862h1.463v-2.736h-1.463V12.27h-3.268v3.078H26.25l3.06-7.942h-3.363l-3.743 9.823v.855h6.194v1.862h3.268zm5.5.228c1.647 0 2.926-.614 3.838-1.843s1.368-2.812 1.368-4.75c0-1.913-.453-3.458-1.36-4.636s-2.188-1.767-3.847-1.767-2.942.6-3.847 1.767-1.36 2.723-1.36 4.636c0 1.938.456 3.52 1.368 4.75s2.2 1.843 3.838 1.843zm0-3.002c-1.24 0-1.862-1.2-1.862-3.572 0-1.178.152-2.043.456-2.594a1.5 1.5 0 0 1 1.406-.826 1.5 1.5 0 0 1 1.406.826c.304.55.456 1.416.456 2.594 0 2.38-.62 3.572-1.862 3.572zm10.02 3.002c1.647 0 2.926-.614 3.838-1.843s1.378-2.8 1.378-4.75c0-1.913-.453-3.458-1.36-4.636s-2.188-1.767-3.847-1.767-2.942.6-3.847 1.767-1.36 2.723-1.36 4.636c0 1.938.456 3.52 1.368 4.75s2.2 1.843 3.838 1.843zm0-3.002c-1.24 0-1.862-1.2-1.862-3.572 0-1.178.152-2.043.456-2.594a1.5 1.5 0 0 1 1.406-.826 1.5 1.5 0 0 1 1.406.826c.304.55.456 1.416.456 2.594 0 2.38-.62 3.572-1.862 3.572zm11.307 2.774v-7.47l3.42 4.482h.648l3.402-4.464v7.452h1.908V7.868h-.648L62.236 14.5 57.25 7.868h-.666v12.078h1.908zm12.42 0V8.066h-1.908v11.88h1.908zm10.927.198V8.066H79.93v8l-7.218-8.208h-.666v12.078h1.908V11.9l7.236 8.244h.648z" class="I"/><path fill="#e8e8e8" d="M219 31.88v.996H0v-.996z"/><path d="M80.58 81.7v-3.262h1.582c.97 0 1.77-.28 2.394-.84s.938-1.28.938-2.156c0-.887-.313-1.605-.938-2.156s-1.423-.826-2.394-.826h0H78.7v9.24h1.9zm1.582-4.914H80.58v-2.66h1.582c.42 0 .758.12 1.015.364s.385.56.385.952c0 .4-.124.726-.37.973s-.6.37-1.03.37h0zm9.477 5.08c1.224-.035 2.295-.497 3.214-1.385.985-.952 1.468-2.086 1.45-3.402.02-1.316-.464-2.45-1.45-3.402s-2.144-1.414-3.48-1.386c-1.335-.028-2.5.434-3.465 1.386s-1.454 2.086-1.435 3.402c-.02 1.316.46 2.45 1.435 3.402s2.13 1.414 3.465 1.386l.265-.001zm-.25-1.75c-.86 0-1.568-.285-2.128-.854s-.84-1.297-.84-2.184.28-1.615.84-2.184 1.27-.854 2.128-.854c.85 0 1.556.287 2.12.86s.847 1.3.847 2.177c0 .887-.282 1.615-.847 2.184s-1.272.854-2.12.854zm8.4 1.582v-3.262h1.386l2.394 3.262h2.128l-2.618-3.626a2.84 2.84 0 0 0 1.197-1.071 2.91 2.91 0 0 0 .427-1.56c0-.887-.313-1.605-.938-2.156s-1.423-.826-2.394-.826h0H97.9v9.24h1.9zm1.582-4.928H99.79v-2.646h1.582c.42 0 .758.12 1.015.364s.385.56.385.952c0 .4-.124.723-.37.966s-.6.364-1.03.364h0zm12.684 4.928v-9.24h-.63l-3.458 1.134.448 1.666 1.75-.56v7h1.9zm7.406 0l.518-1.204h3.78l.518 1.204h2.03L124.19 72.3h-.63l-4.13 9.408h2.03zm3.64-2.758h-2.464l1.232-3.122 1.232 3.122zm9.576-7.392c.457 0 .84-.175 1.148-.525s.462-.805.462-1.365c0-.028-.01-.182-.028-.462h0-1.442v.168c0 .317-.13.476-.392.476-.177 0-.387-.08-.63-.238h0l-.42-.252c-.364-.196-.7-.294-1.036-.294a1.48 1.48 0 0 0-1.162.525c-.308.35-.462.8-.462 1.35a17.48 17.48 0 0 0 .028.476h1.442v-.168c0-.308.13-.462.392-.462.14 0 .345.08.616.238h0l.42.224c.373.205.728.308 1.064.308zm2.758 10.318V72.47h-1.9v5.516l-5.362-5.684h-.616V81.7h1.9v-5.544l5.348 5.712h.63zm6.747-.001c1.224-.035 2.295-.497 3.214-1.385.985-.952 1.468-2.086 1.45-3.402.02-1.316-.464-2.45-1.45-3.402s-2.144-1.414-3.48-1.386c-1.335-.028-2.5.434-3.465 1.386s-1.454 2.086-1.435 3.402c-.02 1.316.46 2.45 1.435 3.402s2.13 1.414 3.465 1.386l.265-.001zm-.25-1.75c-.86 0-1.568-.285-2.128-.854s-.84-1.297-.84-2.184.28-1.615.84-2.184 1.27-.854 2.128-.854c.85 0 1.556.287 2.12.86s.847 1.3.847 2.177c0 .887-.282 1.615-.847 2.184s-1.272.854-2.12.854z" fill="#db167a"/></g></g><g class="G"><path d="M33.645 80.892v-41.58H30.18l-17 5.607 2.583 9.576 7.056-2.33v28.728h10.836zm19.927.756c5.46 0 9.702-2.037 12.726-6.1s4.536-9.324 4.536-15.75c0-6.342-1.5-11.466-4.504-15.372s-7.255-5.86-12.757-5.86-9.754 1.953-12.757 5.86-4.504 9.03-4.504 15.372c0 6.426 1.512 11.676 4.536 15.75s7.266 6.1 12.726 6.1zm0-9.954c-4.116 0-6.174-3.948-6.174-11.844 0-3.906.504-6.772 1.512-8.6s2.562-2.74 4.662-2.74 3.654.914 4.662 2.74 1.512 4.694 1.512 8.6c0 7.896-2.058 11.844-6.174 11.844z" class="I"/><path d="M99.656 81.457l.45-.001c3.32 0 6.33-.783 9.024-2.35 2.695-1.598 4.763-3.682 6.204-6.25h0V63.08h-15.322v6.956h7.238v1.457c-1.598 1.85-3.87 2.773-6.815 2.773-2.726 0-4.896-.815-6.5-2.444s-2.42-3.776-2.42-6.44c0-2.632.76-4.73 2.28-6.298s3.58-2.35 6.18-2.35c3.196 0 5.812 1.426 7.85 4.277h0l5.64-4.794c-3.102-4.606-7.55-6.9-13.348-6.9-4.67-.063-8.664 1.488-11.985 4.653s-4.95 6.972-4.888 11.42c-.063 4.48 1.567 8.295 4.888 11.444s7.316 4.692 11.985 4.63l-.45.001zm26.257-.565v-31.02h-8.084v31.02h8.084zm18.92.565l.45-.001c3.32 0 6.33-.783 9.024-2.35 2.695-1.598 4.763-3.682 6.204-6.25h0V63.08H145.19v6.956h7.238v1.457c-1.598 1.85-3.87 2.773-6.815 2.773-2.726 0-4.896-.815-6.5-2.444s-2.42-3.776-2.42-6.44c0-2.632.76-4.73 2.28-6.298s3.58-2.35 6.18-2.35c3.196 0 5.812 1.426 7.85 4.277h0l5.64-4.794c-3.102-4.606-7.55-6.9-13.348-6.9-4.67-.063-8.664 1.488-11.985 4.653s-4.95 6.972-4.888 11.42c-.063 4.48 1.567 8.295 4.888 11.444s7.316 4.692 11.985 4.63l-.45.001zm23.4-.565l1.128-2.585h11.14l1.128 2.585h8.695l-14.1-31.584h-2.585l-14.1 31.584h8.695zm9.4-9.07h-5.405l2.726-7.2 2.68 7.2zm23.88 9.635c3.3 0 6.008-.877 8.155-2.632s3.22-4.105 3.22-7.05c0-2.162-.635-3.972-1.903-5.428s-3.282-2.765-6.04-3.924h0l-3.572-1.504c-1.003-.407-1.7-.8-2.1-1.15s-.588-.823-.588-1.387c0-1.316.924-1.974 2.773-1.974 1.065 0 2 .258 2.773.775s1.567 1.355 2.35 2.515h0l5.405-4.136c-2.068-4.167-5.6-6.25-10.622-6.25-3.196 0-5.805.846-7.826 2.538s-3.03 3.9-3.03 6.627c0 3.917 2.616 7.034 7.85 9.353h0l3.196 1.4c1.285.564 2.13 1.018 2.538 1.363s.6.846.6 1.504c0 1.504-1.065 2.256-3.196 2.256-1.473 0-2.742-.337-3.807-1s-2.1-1.67-3.102-2.984h0l-5.452 4.136c1.128 2.162 2.78 3.862 4.958 5.1s4.645 1.856 7.403 1.856z" fill="#de2b85"/><path d="M87.23 250.142l17.422-38.13v-2.8H75.016v9.6h15.5l-14.88 31.3H87.23zm18.032.744c1.984 0 3.627-.66 4.93-1.984s1.953-2.976 1.953-4.96-.65-3.637-1.953-4.96-2.945-1.984-4.93-1.984c-2.067 0-3.76.66-5.084 1.984s-1.984 2.976-1.984 4.96.66 3.637 1.984 4.96 3.017 1.984 5.084 1.984zm21.566-.744l10.23-13.702c1.943-2.645 3.348-4.857 4.216-6.634.9-1.777 1.364-3.803 1.364-6.076 0-4.34-1.56-7.967-4.68-10.88s-6.8-4.37-11.067-4.37c-4.133-.083-7.812 1.364-11.036 4.34s-4.795 6.572-4.712 10.788c0 3.76 1.2 6.954 3.627 9.58s5.28 4.164 8.587 4.62h0l-9.114 12.338h12.586zm.062-21.204c-1.447 0-2.676-.496-3.7-1.488s-1.52-2.253-1.52-3.782.506-2.8 1.52-3.844a4.97 4.97 0 0 1 3.689-1.55 4.97 4.97 0 0 1 3.689 1.55c1.013 1.033 1.52 2.315 1.52 3.844 0 1.488-.496 2.738-1.488 3.75s-2.232 1.52-3.72 1.52zm31.92 21.204l10.23-13.702c1.943-2.645 3.348-4.857 4.216-6.634.9-1.777 1.364-3.803 1.364-6.076 0-4.34-1.56-7.967-4.68-10.88s-6.8-4.37-11.067-4.37c-4.133-.083-7.812 1.364-11.036 4.34s-4.795 6.572-4.712 10.788c0 3.76 1.2 6.954 3.627 9.58s5.28 4.164 8.587 4.62h0l-9.114 12.338h12.586zm.062-21.204c-1.447 0-2.676-.496-3.7-1.488s-1.52-2.253-1.52-3.782.506-2.8 1.52-3.844a4.97 4.97 0 0 1 3.689-1.55 4.97 4.97 0 0 1 3.689 1.55c1.013 1.033 1.52 2.315 1.52 3.844 0 1.488-.496 2.738-1.488 3.75s-2.232 1.52-3.72 1.52zm34.4 21.948c5.373 0 9.548-2.005 12.524-6.014s4.464-9.176 4.464-15.5c0-6.24-1.478-11.284-4.433-15.128s-7.14-5.766-12.555-5.766-9.6 1.922-12.555 5.766-4.433 8.887-4.433 15.128c0 6.324 1.488 11.5 4.464 15.5s7.15 6.014 12.524 6.014zm0-9.796c-4.05 0-6.076-3.885-6.076-11.656 0-3.844.496-6.665 1.488-8.463s2.52-2.697 4.588-2.697 3.596.9 4.588 2.697 1.488 4.62 1.488 8.463c0 7.77-2.025 11.656-6.076 11.656z" fill="#4d008c"/><path d="M29.772 244.584v-4.376c3.456-.574 5.976-2.833 5.976-6.277 0-2.977-1.872-4.985-5.472-6.312l-2.7-.933c-1.44-.574-2.412-1.112-2.412-2.26 0-1.363 1.296-1.83 2.592-1.83 1.692 0 2.988.753 4.14 2.44l3.24-2.44c-1.08-2-2.808-3.587-5.364-4.1v-4.268h-4.248v4.34c-2.988.717-5.112 2.833-5.112 5.8 0 3.05 2.16 5.057 5.364 6.24l2.448.897c1.62.646 2.772 1.22 2.772 2.475 0 1.435-1.368 2.116-3.132 2.116-2.304 0-4.104-1.184-5.436-3.264l-3.276 2.44c1.332 2.5 3.492 4.232 6.372 4.842v4.447h4.248z" fill="#db167a"/><path d="M88.165 268.188c.728 0 1.4-.16 1.986-.484s1.066-.767 1.4-1.333h0l-.96-.705c-.584.9-1.392 1.363-2.424 1.363-.816 0-1.496-.277-2.04-.83s-.816-1.25-.816-2.086.272-1.532.816-2.086 1.224-.83 2.04-.83c1.032 0 1.84.454 2.424 1.363h0l.96-.705c-.344-.558-.816-1-1.416-1.327s-1.26-.5-1.98-.5c-1.136-.016-2.12.38-2.952 1.184s-1.236 1.77-1.212 2.893c-.024 1.124.38 2.088 1.212 2.893s1.816 1.2 2.952 1.184zm5.544-.132l.564-1.315h3.564l.564 1.315h1.368l-3.492-8.022h-.432l-3.492 8.022h1.356zm3.672-2.403h-2.65l1.332-3.264 1.32 3.264zm4.92 2.403v-3.05h1.452l2.256 3.05h1.452l-2.376-3.252c.48-.183.854-.47 1.122-.86s.402-.845.402-1.363c0-.7-.248-1.3-.744-1.74s-1.144-.675-1.944-.675h0-2.892v7.9h1.272zm1.596-4.172H102.3V261.3h1.596c.432 0 .774.12 1.026.36s.378.554.378.944-.126.703-.378.938-.594.353-1.026.353h0zm8.4 4.304c.792 0 1.516-.187 2.172-.562s1.164-.88 1.524-1.518h0v-2.224h-3.708v1.124h2.436v.85c-.52.797-1.308 1.196-2.364 1.196-.848 0-1.546-.28-2.094-.843s-.822-1.265-.822-2.1.266-1.53.798-2.08 1.214-.825 2.046-.825c.984 0 1.772.414 2.364 1.243h0l.924-.753c-.792-1.1-1.884-1.65-3.276-1.65-1.152-.016-2.142.38-2.97 1.184a3.77 3.77 0 0 0-1.206 2.893c-.016 1.132.386 2.098 1.206 2.9a4.01 4.01 0 0 0 2.97 1.178zm8.928 0a4.02 4.02 0 0 0 2.946-1.184c.836-.805 1.242-1.77 1.218-2.893.024-1.124-.382-2.088-1.218-2.893a4.02 4.02 0 0 0-2.946-1.184 3.98 3.98 0 0 0-2.94 1.184c-.824.804-1.228 1.77-1.212 2.893a3.77 3.77 0 0 0 1.206 2.893 3.98 3.98 0 0 0 2.946 1.184zm.012-1.16c-.824 0-1.504-.277-2.04-.83s-.804-1.253-.804-2.098c0-.837.27-1.53.8-2.08s1.218-.825 2.034-.825c.808 0 1.484.277 2.028.83s.816 1.245.816 2.074c0 .837-.272 1.534-.816 2.092s-1.22.837-2.028.837zm10.308 1.028v-3.252h3.144v-1.148h-3.144V261.3h3.816v-1.136h-5.088v7.9h1.272zm6.348 0v-7.9h-1.272v7.9h1.272zm2.34.132c.712 0 1.262-.177 1.65-.532s.582-.875.582-1.56h0v-5.93h-1.272v5.798c0 .4-.1.666-.3.825s-.512.24-.936.24c-.144 0-.416-.02-.816-.06h0v1.088a5.14 5.14 0 0 0 1.092.132zm7.896 0a4.02 4.02 0 0 0 2.946-1.184c.836-.805 1.242-1.77 1.218-2.893.024-1.124-.382-2.088-1.218-2.893a4.02 4.02 0 0 0-2.946-1.184 3.98 3.98 0 0 0-2.94 1.184c-.824.804-1.228 1.77-1.212 2.893a3.77 3.77 0 0 0 1.206 2.893 3.98 3.98 0 0 0 2.946 1.184zm.012-1.16c-.824 0-1.504-.277-2.04-.83s-.804-1.253-.804-2.098c0-.837.27-1.53.8-2.08s1.218-.825 2.034-.825c.808 0 1.484.277 2.028.83s.816 1.245.816 2.074c0 .837-.272 1.534-.816 2.092s-1.22.837-2.028.837zm10.308 1.028v-4.96l2.28 2.977h.432l2.268-2.965v4.95h1.272v-8.022h-.432l-3.324 4.412-3.324-4.412h-.444v8.022h1.272zm13.596 0v-1.136h-4.08v-2.5h2.964v-1.1h-2.964v-2.02h3.936v-1.136h-5.208v7.9h5.352zm8.004.132v-8.022h-1.272v5.32l-4.812-5.452h-.444v8.022h1.272v-5.344l4.824 5.476h.432zm4.428 0c.768 0 1.402-.2 1.902-.634s.75-.972.75-1.65c0-.5-.15-.937-.45-1.28s-.782-.666-1.446-.968h0l-.888-.406a1.07 1.07 0 0 0-.108-.06l-.468-.24c-.048-.024-.132-.086-.252-.185s-.194-.195-.222-.287-.046-.2-.054-.353c0-.303.112-.538.336-.705s.512-.25.864-.25c.68 0 1.236.32 1.668.956h0l.888-.68c-.248-.43-.598-.773-1.05-1.028a3.01 3.01 0 0 0-1.506-.383c-.704 0-1.296.2-1.776.598a1.91 1.91 0 0 0-.72 1.542c0 .502.154.923.462 1.26s.77.648 1.386.927h0l.876.406c.44.207.744.4.912.544s.252.37.252.64c0 .335-.126.602-.378.8s-.582.3-1 .3c-.808 0-1.5-.418-2.076-1.255h0l-.9.68a3.42 3.42 0 0 0 1.248 1.255c.52.303 1.1.454 1.74.454zm7.464 0c.952 0 1.73-.3 2.334-.897s.906-1.407.906-2.427h0v-4.698h-1.272v4.782c0 .654-.18 1.164-.54 1.53s-.836.55-1.428.55c-.6 0-1.082-.183-1.446-.55s-.546-.877-.546-1.53h0v-4.782h-1.272v4.698c0 1.02.302 1.83.906 2.427s1.4.897 2.358.897zm5.772-.132l.564-1.315h3.564l.564 1.315h1.368l-3.492-8.022h-.432l-3.492 8.022h1.356zm3.672-2.403h-2.652l1.332-3.264 1.32 3.264zm8.544 2.403v-1.136h-3.624v-6.755h-1.272v7.9h4.896zM35.22 14.162V3.4h-2.16v6.304l-6.128-6.496h-.704V13.97h2.16V7.634l6.112 6.528h.72zm6.082 0c1.3 0 2.373-.416 3.216-1.248s1.264-1.936 1.264-3.312h0V3.4h-2.16v6.352c0 .757-.2 1.347-.632 1.768s-.984.632-1.688.632c-.693 0-1.253-.2-1.68-.632s-.64-1-.64-1.768h0V3.4h-2.16v6.192c0 1.376.42 2.48 1.256 3.312s1.912 1.248 3.224 1.248zm13.394-.192v-1.952H49.56V9.346h3.632v-1.84H49.56V5.362h4.944V3.4H47.4v10.56h7.296zm5.586.192L64.985 3.4h-2.432L59.93 9.8 57.3 3.4h-2.45l4.72 10.752h.72zm10.38-.001c1.407-.036 2.637-.563 3.692-1.583C75.48 11.5 76.032 10.194 76 8.7c.02-1.504-.53-2.8-1.656-3.888s-2.45-1.616-3.976-1.584c-1.525-.032-2.845.496-3.96 1.584s-1.66 2.384-1.64 3.888c-.02 1.504.525 2.8 1.64 3.888s2.435 1.616 3.96 1.584h.284zm-.268-2c-.98 0-1.792-.325-2.432-.976s-.96-1.483-.96-2.496.32-1.845.96-2.496 1.45-.976 2.432-.976c.97 0 1.78.328 2.424.984s.968 1.485.968 2.488c0 1.013-.323 1.845-.968 2.496s-1.453.976-2.424.976zm11.97 1.808V9.554h2.464c1.013 0 1.83-.288 2.448-.864s.928-1.317.928-2.224c0-.896-.3-1.63-.928-2.2S85.843 3.4 84.83 3.4h0-3.712v10.56h1.248zm2.432-5.536h-2.432V4.53h2.432c.66 0 1.18.18 1.552.536s.56.83.56 1.416c0 .597-.187 1.072-.56 1.424s-.9.528-1.552.528h0zm11.026 5.536v-1.12h-5.008V3.4h-1.248v10.56h6.256zm1.474 0l.896-2.144h5.184l.896 2.144h1.328l-4.576-10.736h-.464L95.985 13.97h1.312zm5.6-3.264h-4.224l2.112-5.2 2.112 5.2zm12.354 3.44V3.4h-1.248v7.936l-6.72-8.112h-.448V13.97h1.248V6.05l6.72 8.096h.448z" class="I"/></g></g></g></svg>