<svg width="240" height="306" xmlns="http://www.w3.org/2000/svg" xmlns:xlink="http://www.w3.org/1999/xlink"><defs><path id="a" d="M0 .694h20.78v21.174H0z"/><path id="c" d="M0 .698h20.78v21.295H0z"/><path id="f" d="M0 .679h20.78v20.75H0z"/><linearGradient x1="50%" y1="86.969%" x2="50%" y2="-4.765%" id="e"><stop stop-color="#FCDE87" offset="0%"/><stop stop-color="#F5B444" offset="21%"/><stop stop-color="#E14D75" offset="38%"/><stop stop-color="#DE3A8D" offset="52%"/><stop stop-color="#804492" offset="74%"/><stop stop-color="#514F99" offset="100%"/></linearGradient></defs><g fill="none" fill-rule="evenodd"><path d="M25.5 16v1h-10c-4.06 0-7.368 3.264-7.496 7.341L8 24.587v263.826c0 4.11 3.229 7.454 7.257 7.583l.243.004h209c4.06 0 7.368-3.264 7.496-7.341l.004-.246V24.587c0-4.11-3.229-7.454-7.257-7.583L224.5 17h-89v-1h89c4.61 0 8.361 3.707 8.496 8.329l.004.258v263.826c0 4.655-3.667 8.447-8.245 8.583l-.255.004h-209c-4.61 0-8.361-3.707-8.496-8.329L7 288.413V24.587c0-4.655 3.667-8.447 8.245-8.583L15.5 16h10z" fill="#592D7C" fill-rule="nonzero"/><g transform="translate(99.327 160.894)"><mask id="b" fill="#fff"><use xlink:href="#a"/></mask><path d="M20.78 11.281c0 5.846-4.652 10.587-10.39 10.587C4.65 21.868 0 17.128 0 11.28 0 5.434 4.651.693 10.39.693c5.738 0 10.39 4.741 10.39 10.588" fill="#0F5CA5" fill-rule="nonzero" mask="url(#b)"/></g><path d="M112.012 168.178l1.347-.003v-2.227a17.91 17.91 0 00-1.961-.101c-1.943-.003-3.271 1.158-3.271 3.293v1.84l-2.197-.004v2.497l2.197.002v6.4l2.626.004v-6.404l2.19.003.328-2.493-2.518-.003v-1.59c0-.725.203-1.215 1.259-1.214" fill="#FEFEFE" fill-rule="nonzero"/><g transform="translate(123.471 160.894)"><mask id="d" fill="#fff"><use xlink:href="#c"/></mask><path d="M20.78 11.346c0 5.88-4.652 10.647-10.389 10.647-5.738 0-10.39-4.767-10.39-10.647S4.652.697 10.39.697c5.737 0 10.39 4.768 10.39 10.65" fill="#0098D3" fill-rule="nonzero" mask="url(#d)"/></g><path d="M138.914 170.38c-.095 3.564-2.9 6.039-7.154 6.189-1.743.078-3-.388-4.162-.93 1.256.156 2.906-.232 3.774-.852-1.256-.077-2.03-.618-2.419-1.474.389.08.775.002 1.064.002-1.163-.31-1.932-.853-2.031-2.094.294.155.674.235 1.062.235-.869-.39-1.45-1.863-.768-2.792 1.255 1.087 2.799 2.019 5.316 2.176-.675-2.172 3-3.33 4.45-1.858.675-.075 1.161-.308 1.642-.458-.193.539-.58.85-1.062 1.159.482-.079.968-.153 1.354-.309-.1.386-.58.696-1.066 1.006" fill="#FEFEFE" fill-rule="nonzero"/><g transform="translate(51.038 161.788)" fill-rule="nonzero"><circle fill="url(#e)" cx="10.284" cy="10.284" r="10.284"/><path d="M13.049 4.113h-5.53a3.36 3.36 0 00-2.398.985A3.442 3.442 0 004.113 7.51v5.535c.014 1.891 1.537 3.416 3.406 3.409h5.53a3.36 3.36 0 002.402-.989c.639-.64 1-1.51 1.003-2.42V7.523c-.014-1.892-1.536-3.416-3.405-3.41zm2.311 8.944a2.341 2.341 0 01-.682 1.642 2.285 2.285 0 01-1.63.673h-5.53a2.285 2.285 0 01-1.629-.673 2.341 2.341 0 01-.682-1.642V7.51a2.341 2.341 0 01.682-1.642 2.285 2.285 0 011.63-.673h5.53c.612-.003 1.2.24 1.633.678.434.436.678 1.03.678 1.65v5.534z" fill="#FFF"/><path d="M10.25 7.404a2.88 2.88 0 102.913 2.88 2.89 2.89 0 00-2.913-2.88m0 4.77a1.89 1.89 0 111.912-1.89 1.9 1.9 0 01-1.912 1.89M13.992 5.759a.826.826 0 00-.587.245.816.816 0 000 1.16.825.825 0 001.403-.58.816.816 0 00-.241-.58.826.826 0 00-.588-.245" fill="#FFF"/></g><g><g transform="translate(75.183 161.788)"><mask id="g" fill="#fff"><use xlink:href="#f"/></mask><path d="M20.781 11.054c0 5.73-4.652 10.376-10.39 10.376S.001 16.784.001 11.054C0 5.324 4.652.68 10.39.68s10.39 4.645 10.39 10.375" fill="#FFE91B" fill-rule="nonzero" mask="url(#g)"/></g><g fill-rule="nonzero"><path d="M80.345 175.284c.362-.058.696-.206.987-.411.252-.162.488-.384.696-.649.363-.44.543-.87.572-.943v-.014c.097-.192.11-.37.054-.502-.11-.266-.445-.383-.68-.458l-.042-.015a.868.868 0 01-.112-.044 1.177 1.177 0 01-.362-.222c-.111-.102-.126-.206-.111-.265a.35.35 0 01.166-.221c.126-.073.293-.103.39-.044.32.163.585.207.78.104a.165.165 0 00.083-.147c0-.09-.014-.177-.014-.265v-.015c-.041-.767-.098-1.726.125-2.27a3.11 3.11 0 01.641-.974 2.799 2.799 0 011.961-.792h.209c.236 0 .696.03 1.197.266.292.134.542.31.765.531.264.266.487.59.64.975.237.546.168 1.504.126 2.257v.043c0 .06-.014.103-.014.162v.073c0 .06.028.12.083.149a.433.433 0 00.194.043h.028c.154-.013.32-.058.502-.146.07-.03.14-.03.166-.03.07 0 .126.015.195.046.153.058.266.177.266.295 0 .043-.015.118-.1.205-.082.09-.208.164-.387.25a.233.233 0 01-.099.032l-.041.013c-.223.073-.571.19-.682.457-.056.133-.042.31.057.515 0 .015 0 .015.012.031.126.295.822 1.74 2.255 1.994.055.013.097.059.097.132 0 .028-.014.06-.014.073-.04.09-.139.177-.306.265-.222.118-.57.207-1.03.279a.224.224 0 00-.11.089c-.029.044-.042.147-.07.28l-.014.074c-.015.06-.029.132-.042.192-.028.073-.069.117-.153.117-.042 0-.111 0-.223-.03-.154-.029-.348-.074-.598-.075-.152 0-.292.015-.43.045-.294.058-.558.235-.836.442-.377.278-.794.603-1.434.602h-.126c-.638-.002-1.057-.326-1.447-.607-.263-.19-.515-.384-.82-.443a2.143 2.143 0 00-.432-.045c-.25 0-.445.043-.585.073h-.012c-.07.015-.154.03-.223.03-.083 0-.14-.03-.168-.12a.875.875 0 01-.097-.25l-.014-.045c-.028-.118-.041-.22-.084-.28a.104.104 0 00-.096-.073 4.39 4.39 0 01-1.044-.282c-.153-.073-.265-.162-.307-.252-.014-.028-.014-.058-.014-.073v-.028c.056-.06.084-.09.126-.104" fill="#FEFEFE"/><path d="M85.688 167.438h-.21c-.34-.002-.7.062-1.07.236-.254.115-.476.27-.676.468a2.8 2.8 0 00-.576.875c-.102.248-.144.635-.14 1.174l.006.32.046.942c0 .168-.087.33-.245.414-.295.155-.649.105-1.078-.114.01.006.002.011-.014.017l-.06.027-.01.008.016.014c.027.028.091.07.197.122l.122.054.068.025c.464.146.732.298.867.627.083.194.075.419-.012.644l-.035.074-.003.025c-.091.234-.26.55-.493.864l-.123.156c-.23.293-.49.537-.76.71-.225.158-.468.283-.722.366l-.04.011.07.028c.162.059.355.112.56.156l.21.04c.176 0 .33.117.342.199.043.06.067.116.088.194l.04.172.038.137.024.06.15-.023-.05.006.115-.024a2.64 2.64 0 01.533-.056c.163 0 .338.018.49.05.228.045.415.133.657.296l.42.3c.394.281.66.414.988.443l.145.006h.125c.348 0 .613-.097.96-.33l.294-.212c.392-.292.646-.434.952-.495a2.33 2.33 0 01.834-.027l.338.06.03.007.012-.05.05-.255a.59.59 0 01.073-.203c.062-.1.154-.17.32-.227.383-.06.666-.13.852-.208l.061-.03-.079-.023a3.093 3.093 0 01-1.231-.81l-.15-.165c-.316-.37-.545-.762-.644-1.022l-.022-.03-.035-.066-.007-.027-.034-.08a.918.918 0 01-.046-.547l.033-.099c.122-.294.336-.438.716-.576l.15-.051.135-.029h-.033c.133-.065.216-.113.268-.157l.022-.022-.06-.025a.216.216 0 00-.051-.019l-.056-.002a1.774 1.774 0 01-.468.155l-.165.022h-.028a.737.737 0 01-.336-.08.46.46 0 01-.235-.33l-.007-.084.002-.132.011-.103v-.06l.036-.686.003-.103c.018-.626-.023-1.062-.143-1.34a2.586 2.586 0 00-.573-.872 2.312 2.312 0 00-.681-.472 2.447 2.447 0 00-.896-.232l-.172-.006zm5.561 7.992l-.007.078-.013.05.005-.05-.025.12a.803.803 0 01-.318.336l-.122.07c-.21.111-.498.198-.846.26l-.18.027-.077.38-.023.092c-.074.187-.22.308-.434.308a.943.943 0 01-.278-.036l-.134-.026a2.178 2.178 0 00-.409-.043c-.13 0-.249.012-.372.038-.17.034-.335.118-.584.294l-.274.2c-.464.34-.828.516-1.292.55l-.178.006h-.126c-.492 0-.852-.137-1.307-.44l-.445-.317c-.255-.184-.407-.266-.577-.3a1.841 1.841 0 00-.644-.018l-.31.054.05-.007c-.107.023-.2.036-.286.036-.216 0-.388-.114-.433-.277a1.293 1.293 0 01-.104-.24l-.016-.065-.02-.065-.032-.142-.122-.021a4.73 4.73 0 01-.752-.207l-.153-.062a1.021 1.021 0 01-.394-.3l-.055-.092-.01-.023a.41.41 0 01-.032-.121l-.002-.09.08-.205a.67.67 0 01.18-.154l.066-.028.1.28-.047-.294c.243-.039.478-.126.704-.258l.168-.109c.22-.141.432-.34.626-.587.215-.261.377-.534.473-.743l.05-.118.013-.04a.393.393 0 00.053-.216l-.009-.035c-.037-.09-.155-.167-.381-.248l-.268-.094-.029-.014c-.205-.092-.357-.184-.444-.277-.174-.16-.246-.373-.202-.541a.655.655 0 01.311-.427c.19-.11.418-.152.594-.09l.083.038c.18.091.316.13.41.128l.01-.002-.008-.12-.035-.817c-.019-.729.026-1.248.185-1.634.185-.426.416-.777.705-1.067.251-.25.533-.445.85-.589a3.022 3.022 0 011.142-.287l.182-.004h.208c.424 0 .87.08 1.322.294.321.147.601.342.854.593.304.306.544.667.703 1.067.144.332.197.768.193 1.36l-.008.335-.035.682-.002.102-.008.063.068-.008c.064-.013.132-.033.204-.061l.113-.05a.676.676 0 01.283-.053c.113 0 .209.023.303.066.261.1.46.316.46.576 0 .14-.06.285-.18.411a1.254 1.254 0 01-.344.248l-.119.06a.511.511 0 01-.145.058l-.047.01c-.304.099-.455.183-.498.286-.016.04-.013.106.02.196l.03.073.005.02.013.023c.095.22.241.483.435.742l.154.192c.402.469.881.782 1.46.885a.428.428 0 01.327.425z" fill="#1F140F"/></g></g><g fill-rule="nonzero"><path d="M26.096 183.183l1.502-5.447c-.977-1.691-1.502-3.569-1.502-5.523 0-5.935 4.883-10.82 10.856-10.82s10.933 4.885 10.933 10.82c0 5.936-4.96 10.97-10.933 10.97-1.878 0-3.68-.6-5.297-1.502l-5.56 1.502z" fill="#FEFEFE"/><path d="M31.956 179.727l.338.187c1.39.865 3.006 1.39 4.696 1.39 4.921 0 9.016-4.094 9.016-9.09 0-4.997-4.095-8.942-9.054-8.942-4.959 0-8.978 3.982-8.978 8.941 0 1.728.489 3.42 1.39 4.847l.225.338-.864 3.155 3.231-.826z" fill="#129F5C"/><path d="M34.06 167.18l-.714-.038a.852.852 0 00-.601.225c-.338.3-.902.865-1.052 1.616-.263 1.126.15 2.48 1.127 3.831.977 1.353 2.855 3.532 6.16 4.47 1.053.302 1.88.113 2.556-.3.526-.337.864-.864.976-1.427l.114-.526a.378.378 0 00-.189-.413l-2.366-1.09a.359.359 0 00-.451.113l-.94 1.202a.293.293 0 01-.3.075c-.638-.225-2.78-1.127-3.945-3.38-.037-.114-.037-.226.038-.301l.902-1.014c.075-.114.112-.263.075-.376l-1.09-2.442a.327.327 0 00-.3-.226" fill="#FEFEFE"/></g><g fill-rule="nonzero"><path d="M163.471 173.413v-2.91h-5.127v-9.484h-3.23v12.394h8.357zm4.286 0V161.02h-3.23v12.394h3.23zm7.629 0c2.385 0 4.188-1.502 4.188-3.68 0-1.465-.808-2.46-2.066-2.967.47-.526.751-1.24.751-2.085 0-2.197-1.821-3.662-4.188-3.662h-4.469v12.394h5.784zm-1.521-7.492H172.7v-2.179h1.164c.77 0 1.24.432 1.24 1.09 0 .657-.47 1.089-1.24 1.089zm1.314 4.77h-2.478v-2.179h2.478c.752 0 1.24.357 1.24 1.09 0 .732-.488 1.089-1.24 1.089zm8.737 2.722v-3.85h1.334l2.798 3.85h3.605l-3.267-4.6c1.201-.733 1.953-1.972 1.953-3.53 0-2.63-2.066-4.264-4.789-4.264h-4.864v12.394h3.23zm1.653-6.666h-1.653v-2.91h1.653c.901 0 1.483.581 1.483 1.445 0 .883-.582 1.465-1.483 1.465zm15.553 6.666v-2.91h-5.596v-2.16h3.831v-2.704h-3.83v-1.709h5.37v-2.91h-8.6v12.393h8.825zm5.507.226c2.554 0 4.545-1.427 4.545-3.869 0-1.821-1.108-2.873-3.174-3.737l-1.427-.6c-.77-.32-1.07-.545-1.07-1.015 0-.563.469-.788 1.107-.788.94 0 1.484.488 2.047 1.314l2.16-1.652c-.714-1.428-2.085-2.498-4.244-2.498-2.517 0-4.338 1.446-4.338 3.662 0 1.746 1.164 2.873 3.136 3.737l1.277.563c.864.376 1.258.564 1.258 1.146 0 .6-.413.901-1.277.901-1.39 0-2.16-.789-2.76-1.596l-2.179 1.653c.883 1.67 2.667 2.779 4.94 2.779z" fill="#DE2B85"/><path d="M159.552 182.356v-1.02h-3.649v-2.242h2.65v-.988h-2.65v-1.813h3.52v-1.02h-4.657v7.083h4.786zm7.157.118v-7.2h-1.137v4.775l-4.303-4.894h-.398v7.2h1.138v-4.796l4.314 4.915h.386zm5.934-.118v-2.737h1.299l2.017 2.737h1.298l-2.124-2.919a2.08 2.08 0 001.003-.773c.24-.35.36-.758.36-1.223 0-.637-.222-1.157-.666-1.561-.443-.404-1.023-.607-1.738-.607h-2.586v7.083h1.137zm1.427-3.745h-1.427v-2.329h1.427c.387 0 .692.107.918.322.225.215.338.497.338.848 0 .35-.113.631-.338.842-.226.211-.531.317-.918.317zm8.993 3.745v-1.02h-3.649v-2.242h2.65v-.988h-2.65v-1.813h3.52v-1.02h-4.657v7.083h4.786zm3.54 0c1.145 0 2.074-.333 2.785-.998.712-.666 1.068-1.517 1.068-2.554 0-1.052-.354-1.903-1.062-2.554-.708-.651-1.638-.977-2.79-.977h-2.221v7.083h2.22zm-.01-1.02h-1.073v-5.032h1.073c.823 0 1.477.227 1.964.681.486.454.73 1.06.73 1.819 0 .751-.245 1.36-.736 1.83-.49.468-1.142.702-1.958.702zm12.201 1.02v-1.234h.966v-.977h-.966v-2.178h-1.137v2.178h-2.114l2.006-4.872h-1.17l-2.264 5.538v.31h3.542v1.235h1.137zm5.355.118c.708 0 1.355-.168 1.942-.505a3.563 3.563 0 001.363-1.362v-1.996h-3.316v1.008h2.178v.762c-.465.716-1.17 1.073-2.114 1.073-.758 0-1.382-.252-1.872-.756-.49-.504-.735-1.136-.735-1.894 0-.751.238-1.374.713-1.867.476-.494 1.086-.74 1.83-.74.88 0 1.585.371 2.114 1.115l.826-.676c-.708-.987-1.685-1.48-2.93-1.48-1.03-.015-1.915.34-2.655 1.062-.74.722-1.1 1.588-1.079 2.597-.014 1.015.346 1.883 1.079 2.602.733.719 1.618 1.071 2.656 1.057z" fill="#4F008C"/></g><g fill-rule="nonzero"><path d="M104.335 143.264l1.703-6.174c-1.108-1.917-1.703-4.046-1.703-6.26 0-6.728 5.535-12.264 12.305-12.264s12.392 5.536 12.392 12.264-5.621 12.434-12.392 12.434c-2.129 0-4.172-.681-6.004-1.703l-6.301 1.703z" fill="#FEFEFE"/><path d="M110.977 139.346l.384.213c1.575.98 3.407 1.576 5.322 1.576 5.578 0 10.22-4.641 10.22-10.305 0-5.663-4.642-10.135-10.263-10.135-5.62 0-10.176 4.514-10.176 10.135 0 1.959.553 3.875 1.575 5.493l.255.383-.979 3.577 3.662-.937z" fill="#129F5C"/><path d="M113.362 125.124l-.81-.043c-.255 0-.51.085-.68.256-.384.34-1.023.98-1.193 1.831-.298 1.277.17 2.81 1.278 4.343 1.107 1.533 3.236 4.003 6.983 5.068 1.192.34 2.13.127 2.895-.34a2.51 2.51 0 001.108-1.62l.128-.595a.429.429 0 00-.214-.469l-2.682-1.234a.407.407 0 00-.511.127l-1.064 1.363a.332.332 0 01-.341.085c-.724-.255-3.152-1.277-4.472-3.832-.042-.128-.042-.256.043-.341l1.022-1.15c.086-.128.128-.297.086-.426l-1.236-2.767a.37.37 0 00-.34-.256" fill="#FEFEFE"/><g fill="#4F008C"><path d="M135.145 133.35V121.43h-2.438v11.919h2.438zm9.42 0v-2.204h-5.218v-9.715h-2.438v11.919h7.657zm3.281 0V121.43h-2.438v11.919h2.438zm4.202 0v-6.357l2.997 3.756h.795l2.998-3.756v6.357h2.438v-12.136h-.795l-5.038 6.447-5.039-6.447h-.794v12.136h2.438zm13.447 0V121.43h-2.438v11.919h2.438zm6.892 0v-9.716h3.829v-2.203h-10.077v2.203h3.81v9.716h2.438zm4.6 0l.667-1.553h4.876l.668 1.553h2.619l-5.31-12.136h-.812l-5.327 12.136h2.618zm4.694-3.558h-3.178l1.59-4.027 1.588 4.027zm8.698 3.558c1.878.024 3.438-.536 4.678-1.68 1.24-1.144 1.847-2.582 1.823-4.316.024-1.745-.577-3.175-1.805-4.289-1.228-1.113-2.793-1.658-4.696-1.634h-3.9v11.919h3.9zm-.018-2.204h-1.444v-7.512h1.444c1.228 0 2.203.331 2.926.993.722.663 1.083 1.571 1.083 2.727 0 1.144-.367 2.062-1.101 2.754-.735.692-1.704 1.038-2.908 1.038zm13.25 2.42c1.72.036 3.216-.56 4.487-1.788 1.27-1.228 1.893-2.69 1.869-4.388.024-1.697-.6-3.16-1.87-4.388-1.27-1.228-2.765-1.824-4.487-1.788-1.721-.036-3.211.56-4.47 1.788-1.257 1.228-1.874 2.69-1.85 4.388-.024 1.698.593 3.16 1.85 4.388 1.259 1.228 2.749 1.824 4.47 1.788zm.017-2.257c-1.107 0-2.022-.367-2.745-1.102-.722-.734-1.083-1.673-1.083-2.817 0-1.143.361-2.082 1.083-2.817.723-.734 1.638-1.101 2.745-1.101 1.096 0 2.008.37 2.736 1.11.728.74 1.093 1.677 1.093 2.808 0 1.144-.365 2.083-1.093 2.817-.728.735-1.64 1.102-2.736 1.102zM132.807 137.583a.689.689 0 00.695-.704.674.674 0 00-.199-.497.674.674 0 00-.496-.198.689.689 0 00-.705.695.689.689 0 00.704.704zm.569 4.66l-.181-3.793h-.786l-.18 3.792h1.147zm2.067 0v-5.96h-.957v5.96h.957zm5.87.099v-6.059h-.958v4.018l-3.62-4.117h-.335v6.058h.957v-4.036l3.63 4.136h.325zm3.737 0c.548 0 1.046-.122 1.495-.366.448-.244.802-.58 1.06-1.007l-.722-.533c-.44.687-1.047 1.03-1.824 1.03-.614 0-1.125-.21-1.535-.628-.409-.418-.614-.943-.614-1.575s.205-1.158.614-1.576c.41-.418.921-.627 1.535-.627.777 0 1.385.343 1.824 1.029l.722-.533a2.8 2.8 0 00-1.065-1.002 3.055 3.055 0 00-1.49-.37c-.855-.012-1.595.286-2.221.894-.626.608-.93 1.336-.912 2.185-.018.848.286 1.577.912 2.185.626.608 1.366.906 2.221.894zm6.844-.1v-.857h-2.727v-5.102h-.957v5.96h3.684zm2.727.1c.716 0 1.302-.226 1.756-.678.455-.451.682-1.062.682-1.832v-3.549h-.957v3.612c0 .493-.136.879-.406 1.155-.271.277-.63.416-1.075.416-.451 0-.814-.139-1.088-.416-.274-.276-.41-.662-.41-1.155v-3.612h-.958v3.549c0 .77.227 1.381.682 1.832.454.452 1.046.678 1.774.678zm5.86-.1v-2.401l2.059-3.558h-1.057l-1.48 2.591-1.472-2.59h-1.066l2.059 3.557v2.401h.957zm6.555 0v-.857h-3.07v-1.888h2.23v-.83h-2.23v-1.526h2.962v-.858h-3.919v5.96h4.027zm6.24 0v-.857h-2.728v-5.102h-.957v5.96h3.684zm4.107 0v-.857h-2.726v-5.102h-.957v5.96h3.683zm.894 0l.425-.993h2.681l.425.993h1.03l-2.628-6.058h-.325l-2.628 6.058h1.02zm2.763-1.815h-1.995l1.002-2.464.993 2.464zm3.16 1.815v-3.747l1.716 2.248h.325l1.707-2.239v3.738h.957v-6.058h-.325l-2.501 3.332-2.502-3.332h-.334v6.058h.957zm6.131 0l.425-.993h2.681l.425.993h1.029l-2.628-6.058h-.325l-2.627 6.058h1.02zm2.763-1.815H191.1l1.002-2.464.993 2.464zm4.072 1.815c.963 0 1.744-.28 2.343-.84.6-.56.899-1.276.899-2.148 0-.885-.298-1.601-.894-2.15-.596-.547-1.379-.82-2.348-.82h-1.869v5.958h1.87zm-.009-.857h-.903v-4.235h.903c.693 0 1.243.191 1.653.573.409.382.614.893.614 1.53 0 .633-.207 1.146-.619 1.54-.412.394-.962.592-1.648.592zm4.172.857l.424-.993h2.682l.424.993h1.03l-2.628-6.058h-.325l-2.628 6.058h1.02zm2.763-1.815h-1.996l1.002-2.464.994 2.464zm3.981 1.915c.578 0 1.055-.16 1.432-.479.376-.319.564-.734.564-1.246 0-.385-.113-.707-.339-.966-.225-.259-.588-.503-1.088-.731l-.668-.307a.803.803 0 00-.081-.046 55.723 55.723 0 00-.352-.18 1.26 1.26 0 01-.19-.14.49.49 0 01-.167-.217 1.157 1.157 0 01-.04-.266c0-.229.084-.406.252-.533.169-.126.386-.19.65-.19.512 0 .93.241 1.255.723l.669-.515a2.062 2.062 0 00-.79-.776 2.259 2.259 0 00-1.134-.29c-.53 0-.975.151-1.336.452-.361.301-.542.69-.542 1.165 0 .38.116.697.348.953.232.255.58.489 1.043.7l.659.306c.331.157.56.294.686.411.127.118.19.279.19.483a.733.733 0 01-.285.605c-.19.15-.438.226-.745.226-.607 0-1.128-.316-1.562-.948l-.677.514a2.546 2.546 0 002.248 1.291zm3.793-2.131l.171-3.928H210.9l.18 3.928h.786zm-.389 2.13a.674.674 0 00.497-.198.674.674 0 00.199-.497.685.685 0 00-.199-.505.674.674 0 00-.497-.199.689.689 0 00-.704.704.689.689 0 00.704.695z"/></g><path fill="#4F008C" d="M99.49 121.426v19.511h-1v-19.51zM35.756 138v-12.54h-1.045l-5.13 1.691.78 2.888 2.127-.703V138h3.268zm5.386.228c1.646 0 2.926-.614 3.838-1.843.912-1.229 1.368-2.812 1.368-4.75 0-1.913-.453-3.458-1.359-4.636-.906-1.178-2.188-1.767-3.847-1.767-1.66 0-2.942.589-3.848 1.767-.906 1.178-1.358 2.723-1.358 4.636 0 1.938.456 3.521 1.368 4.75.912 1.229 2.19 1.843 3.838 1.843zm0-3.002c-1.242 0-1.862-1.19-1.862-3.572 0-1.178.152-2.043.456-2.594.304-.55.772-.826 1.406-.826.633 0 1.102.275 1.406.826.304.551.456 1.416.456 2.594 0 2.381-.621 3.572-1.862 3.572zm10.021 3.002c1.647 0 2.926-.614 3.838-1.843.912-1.229 1.368-2.812 1.368-4.75 0-1.913-.453-3.458-1.358-4.636-.906-1.178-2.189-1.767-3.848-1.767-1.66 0-2.942.589-3.847 1.767-.906 1.178-1.359 2.723-1.359 4.636 0 1.938.456 3.521 1.368 4.75.912 1.229 2.191 1.843 3.838 1.843zm0-3.002c-1.241 0-1.862-1.19-1.862-3.572 0-1.178.152-2.043.456-2.594.304-.55.773-.826 1.406-.826.633 0 1.102.275 1.406.826.304.551.456 1.416.456 2.594 0 2.381-.62 3.572-1.862 3.572zm10.021 3.002c1.647 0 2.926-.614 3.838-1.843.912-1.229 1.368-2.812 1.368-4.75 0-1.913-.452-3.458-1.358-4.636-.906-1.178-2.188-1.767-3.848-1.767-1.659 0-2.941.589-3.847 1.767-.906 1.178-1.359 2.723-1.359 4.636 0 1.938.456 3.521 1.368 4.75.912 1.229 2.192 1.843 3.838 1.843zm0-3.002c-1.24 0-1.862-1.19-1.862-3.572 0-1.178.152-2.043.456-2.594.304-.55.773-.826 1.406-.826.634 0 1.102.275 1.406.826.304.551.456 1.416.456 2.594 0 2.381-.62 3.572-1.862 3.572zM72.492 138v-7.47l3.42 4.482h.648l3.402-4.464V138h1.908v-12.078h-.648l-4.986 6.642-4.986-6.642h-.666V138h1.908zm12.421 0v-11.88h-1.908V138h1.908zm10.928.198V126.12h-1.908v8.01l-7.218-8.208h-.666V138h1.908v-8.046l7.236 8.244h.648z"/></g><path fill="#E8E8E8" fill-rule="nonzero" d="M229 150v1H10v-1z"/><path d="M78.441 200v-3.262h1.582c.97 0 1.769-.28 2.394-.84.625-.56.938-1.279.938-2.156 0-.887-.313-1.605-.938-2.156-.625-.55-1.423-.826-2.394-.826h-3.472V200h1.89zm1.582-4.914h-1.582v-2.66h1.582c.42 0 .758.121 1.015.364.257.243.385.56.385.952 0 .401-.124.726-.371.973s-.59.371-1.029.371zM86.015 200l.518-1.204h3.78l.518 1.204h2.03l-4.116-9.408h-.63L83.985 200h2.03zm3.64-2.758h-2.464l1.232-3.122 1.232 3.122zM96.011 200v-3.262h1.386L99.791 200h2.128l-2.618-3.626a2.84 2.84 0 001.624-2.632c0-.887-.313-1.605-.938-2.156-.625-.55-1.423-.826-2.394-.826h-3.472V200h1.89zm1.582-4.928h-1.582v-2.646h1.582c.42 0 .758.121 1.015.364.257.243.385.56.385.952 0 .401-.124.723-.371.966s-.59.364-1.029.364zm6.636 4.928l.518-1.204h3.78l.518 1.204h2.03l-4.116-9.408h-.63l-4.13 9.408h2.03zm3.64-2.758h-2.464l1.232-3.122 1.232 3.122zm11.312 2.926c.943 0 1.717-.254 2.324-.763.607-.509.91-1.178.91-2.009 0-.616-.182-1.132-.546-1.547-.364-.415-.943-.8-1.736-1.155l-1.05-.462c-.41-.187-.693-.352-.847-.497a.742.742 0 01-.231-.567c0-.28.107-.5.322-.658.215-.159.49-.238.826-.238.7 0 1.288.355 1.764 1.064l1.288-.994a3.35 3.35 0 00-1.232-1.281c-.523-.313-1.13-.469-1.82-.469-.887 0-1.62.24-2.198.721-.579.48-.868 1.113-.868 1.897 0 1.11.747 1.997 2.24 2.66l.994.448c.467.215.78.394.938.539.159.145.238.348.238.609 0 .317-.117.567-.35.749-.233.182-.555.273-.966.273-.859 0-1.615-.448-2.268-1.344l-1.302.98a4.027 4.027 0 001.477 1.498c.62.364 1.318.546 2.093.546zm6.79-.168v-9.24h-1.89V200h1.89zm8.498 0v-1.708h-4.494v-2.338h3.178v-1.61h-3.178v-1.876h4.326v-1.708h-6.216V200h6.384zm3.528 0v-4.928l2.324 2.912h.616l2.324-2.912V200h1.89v-9.408h-.616l-3.906 4.998-3.906-4.998h-.616V200h1.89zm11.172 0v-3.262h1.582c.97 0 1.769-.28 2.394-.84.625-.56.938-1.279.938-2.156 0-.887-.313-1.605-.938-2.156-.625-.55-1.423-.826-2.394-.826h-3.472V200h1.89zm1.582-4.914h-1.582v-2.66h1.582c.42 0 .758.121 1.015.364.257.243.385.56.385.952 0 .401-.124.726-.371.973s-.59.371-1.029.371zm6.734 4.914v-3.262h1.386l2.394 3.262h2.128l-2.618-3.626a2.84 2.84 0 001.624-2.632c0-.887-.313-1.605-.938-2.156-.625-.55-1.423-.826-2.394-.826h-3.472V200h1.89zm1.582-4.928h-1.582v-2.646h1.582c.42 0 .758.121 1.015.364.257.243.385.56.385.952 0 .401-.124.723-.371.966s-.59.364-1.029.364zM170.939 200v-1.708h-4.494v-2.338h3.178v-1.61h-3.178v-1.876h4.326v-1.708h-6.216V200h6.384z" fill="#DB167A" fill-rule="nonzero"/><g fill-rule="nonzero"><path d="M19.453 90.063L51.268 90v-9.072H38.416l2.961-3.087c3.192-3.36 5.502-6.268 6.93-8.725s2.142-5.051 2.142-7.781c0-3.906-1.46-7.161-4.378-9.765-2.92-2.604-6.542-3.906-10.868-3.906-4.452-.084-8.18 1.334-11.182 4.253-3.003 2.919-4.463 6.226-4.379 9.922 0 1.218.147 2.394.441 3.528h10.9a16.189 16.189 0 01-.253-2.772c0-1.554.389-2.772 1.166-3.654.777-.882 1.816-1.323 3.118-1.323 1.302 0 2.352.42 3.15 1.26.798.84 1.197 1.995 1.197 3.465 0 2.52-1.659 5.586-4.977 9.198l-14.93 16.317v2.205zm49.915.693c5.46 0 9.703-2.037 12.727-6.111 3.023-4.074 4.535-9.324 4.535-15.75 0-6.342-1.501-11.466-4.504-15.372-3.003-3.906-7.256-5.859-12.758-5.859-5.501 0-9.754 1.953-12.757 5.859-3.003 3.906-4.505 9.03-4.505 15.372 0 6.426 1.512 11.676 4.536 15.75 3.024 4.074 7.266 6.111 12.726 6.111zm0-9.954c-4.115 0-6.173-3.948-6.173-11.844 0-3.906.504-6.772 1.511-8.6 1.009-1.826 2.563-2.74 4.663-2.74s3.654.913 4.662 2.74c1.008 1.827 1.512 4.694 1.512 8.6 0 7.896-2.058 11.844-6.174 11.844z" fill="#4F008C"/><path d="M109.656 90.565l.45-.001c3.32 0 6.329-.783 9.024-2.35 2.694-1.598 4.762-3.682 6.204-6.251v-9.776h-15.322v6.956h7.238V80.6c-1.598 1.849-3.87 2.773-6.815 2.773-2.726 0-4.896-.815-6.51-2.444-1.614-1.63-2.42-3.776-2.42-6.439 0-2.632.76-4.731 2.279-6.298 1.52-1.567 3.58-2.35 6.18-2.35 3.197 0 5.813 1.426 7.85 4.277l5.64-4.794c-3.102-4.606-7.552-6.909-13.348-6.909-4.67-.063-8.664 1.488-11.985 4.653-3.322 3.165-4.951 6.972-4.888 11.421-.063 4.48 1.566 8.296 4.888 11.445 3.32 3.149 7.316 4.692 11.985 4.629l-.45.001zM135.913 90V58.98h-8.084V90h8.084zm18.92.565l.45-.001c3.32 0 6.328-.783 9.023-2.35 2.695-1.598 4.763-3.682 6.204-6.251v-9.776h-15.322v6.956h7.238V80.6c-1.598 1.849-3.87 2.773-6.815 2.773-2.726 0-4.896-.815-6.51-2.444-1.613-1.63-2.42-3.776-2.42-6.439 0-2.632.76-4.731 2.28-6.298 1.52-1.567 3.58-2.35 6.18-2.35 3.196 0 5.812 1.426 7.85 4.277l5.64-4.794c-3.103-4.606-7.552-6.909-13.349-6.909-4.669-.063-8.664 1.488-11.985 4.653-3.321 3.165-4.95 6.972-4.888 11.421-.063 4.48 1.567 8.296 4.888 11.445 3.321 3.149 7.316 4.692 11.985 4.629l-.45.001zm23.39-.565l1.128-2.585h11.139L191.618 90h8.695l-14.1-31.584h-2.585L169.528 90h8.695zm9.4-9.071h-5.405l2.726-7.191 2.679 7.191zm23.88 9.635c3.29 0 6.009-.877 8.155-2.632 2.147-1.755 3.22-4.105 3.22-7.05 0-2.162-.635-3.972-1.904-5.429-1.269-1.457-3.282-2.765-6.04-3.924l-3.571-1.504c-1.003-.407-1.7-.791-2.092-1.152-.391-.36-.587-.822-.587-1.386 0-1.316.924-1.974 2.773-1.974 1.065 0 1.99.258 2.773.775.783.517 1.566 1.356 2.35 2.515l5.405-4.136c-2.068-4.167-5.609-6.251-10.622-6.251-3.196 0-5.805.846-7.826 2.538-2.02 1.692-3.031 3.901-3.031 6.627 0 3.917 2.616 7.034 7.849 9.353l3.196 1.41c1.284.564 2.13 1.018 2.538 1.363.407.345.61.846.61 1.504 0 1.504-1.065 2.256-3.195 2.256-1.473 0-2.742-.337-3.807-1.01-1.066-.674-2.1-1.669-3.102-2.985l-5.452 4.136c1.128 2.162 2.78 3.862 4.958 5.1 2.178 1.237 4.645 1.856 7.403 1.856z" fill="#DE2B85"/></g><g fill-rule="nonzero"><path d="M95.184 260l10.23-13.702c1.942-2.645 3.348-4.857 4.216-6.634.909-1.777 1.364-3.803 1.364-6.076 0-4.34-1.56-7.967-4.681-10.881-3.121-2.914-6.81-4.371-11.067-4.371-4.134-.083-7.812 1.364-11.036 4.34-3.224 2.976-4.795 6.572-4.712 10.788 0 3.761 1.209 6.954 3.627 9.579 2.418 2.625 5.28 4.164 8.587 4.619L82.598 260h12.586zm.062-21.204c-1.447 0-2.677-.496-3.69-1.488-1.012-.992-1.518-2.253-1.518-3.782 0-1.53.506-2.81 1.519-3.844 1.012-1.033 2.242-1.55 3.689-1.55 1.446 0 2.676.517 3.689 1.55 1.012 1.033 1.519 2.315 1.519 3.844 0 1.488-.496 2.738-1.488 3.751s-2.232 1.519-3.72 1.519zm20.015 21.948c1.984 0 3.627-.661 4.93-1.984 1.301-1.323 1.952-2.976 1.952-4.96s-.65-3.637-1.953-4.96c-1.302-1.323-2.945-1.984-4.929-1.984-2.066 0-3.761.661-5.084 1.984-1.322 1.323-1.984 2.976-1.984 4.96s.662 3.637 1.984 4.96c1.323 1.323 3.018 1.984 5.084 1.984zm21.566-.744l10.23-13.702c1.943-2.645 3.348-4.857 4.216-6.634.91-1.777 1.364-3.803 1.364-6.076 0-4.34-1.56-7.967-4.681-10.881-3.12-2.914-6.81-4.371-11.067-4.371-4.133-.083-7.812 1.364-11.036 4.34-3.224 2.976-4.795 6.572-4.712 10.788 0 3.761 1.209 6.954 3.627 9.579 2.418 2.625 5.28 4.164 8.587 4.619L124.241 260h12.586zm.062-21.204c-1.447 0-2.676-.496-3.689-1.488s-1.519-2.253-1.519-3.782c0-1.53.506-2.81 1.519-3.844 1.013-1.033 2.242-1.55 3.689-1.55s2.676.517 3.689 1.55 1.519 2.315 1.519 3.844c0 1.488-.496 2.738-1.488 3.751s-2.232 1.519-3.72 1.519zM168.809 260l10.23-13.702c1.942-2.645 3.348-4.857 4.216-6.634.909-1.777 1.364-3.803 1.364-6.076 0-4.34-1.56-7.967-4.681-10.881-3.121-2.914-6.81-4.371-11.067-4.371-4.134-.083-7.812 1.364-11.036 4.34-3.224 2.976-4.795 6.572-4.712 10.788 0 3.761 1.209 6.954 3.627 9.579 2.418 2.625 5.28 4.164 8.587 4.619L156.223 260h12.586zm.062-21.204c-1.447 0-2.677-.496-3.69-1.488-1.012-.992-1.518-2.253-1.518-3.782 0-1.53.506-2.81 1.519-3.844 1.012-1.033 2.242-1.55 3.689-1.55 1.446 0 2.676.517 3.689 1.55 1.012 1.033 1.519 2.315 1.519 3.844 0 1.488-.496 2.738-1.488 3.751s-2.232 1.519-3.72 1.519zm34.4 21.948c5.373 0 9.547-2.005 12.523-6.014 2.976-4.01 4.464-9.176 4.464-15.5 0-6.241-1.477-11.284-4.433-15.128-2.955-3.844-7.14-5.766-12.555-5.766-5.414 0-9.6 1.922-12.555 5.766-2.955 3.844-4.433 8.887-4.433 15.128 0 6.324 1.488 11.49 4.464 15.5 2.976 4.01 7.151 6.014 12.524 6.014zm0-9.796c-4.051 0-6.077-3.885-6.077-11.656 0-3.844.496-6.665 1.488-8.463.992-1.798 2.522-2.697 4.588-2.697 2.067 0 3.596.899 4.588 2.697s1.488 4.619 1.488 8.463c0 7.77-2.025 11.656-6.076 11.656z" fill="#4D008C"/><path d="M39.772 254.492V250.1c3.456-.576 5.976-2.844 5.976-6.3 0-2.988-1.872-5.004-5.472-6.336l-2.7-.936c-1.44-.576-2.412-1.116-2.412-2.268 0-1.368 1.296-1.836 2.592-1.836 1.692 0 2.988.756 4.14 2.448l3.24-2.448c-1.08-2.016-2.808-3.6-5.364-4.104v-4.284h-4.248v4.356c-2.988.72-5.112 2.844-5.112 5.832 0 3.06 2.16 5.076 5.364 6.264l2.448.9c1.62.648 2.772 1.224 2.772 2.484 0 1.44-1.368 2.124-3.132 2.124-2.304 0-4.104-1.188-5.436-3.276l-3.276 2.448c1.332 2.52 3.492 4.248 6.372 4.86v4.464h4.248z" fill="#DB167A"/><path d="M98.165 278.184a4.09 4.09 0 001.986-.486 3.66 3.66 0 001.41-1.338l-.96-.708c-.584.912-1.392 1.368-2.424 1.368-.816 0-1.496-.278-2.04-.834-.544-.556-.816-1.254-.816-2.094 0-.84.272-1.538.816-2.094.544-.556 1.224-.834 2.04-.834 1.032 0 1.84.456 2.424 1.368l.96-.708a3.722 3.722 0 00-1.416-1.332 4.06 4.06 0 00-1.98-.492c-1.136-.016-2.12.38-2.952 1.188-.832.808-1.236 1.776-1.212 2.904-.024 1.128.38 2.096 1.212 2.904.832.808 1.816 1.204 2.952 1.188zm5.544-.132l.564-1.32h3.564l.564 1.32h1.368L106.277 270h-.432l-3.492 8.052h1.356zm3.672-2.412h-2.652l1.332-3.276 1.32 3.276zm4.92 2.412v-3.06h1.452l2.256 3.06h1.452l-2.376-3.264c.48-.184.854-.472 1.122-.864.268-.392.402-.848.402-1.368 0-.712-.248-1.294-.744-1.746-.496-.452-1.144-.678-1.944-.678h-2.892v7.92h1.272zm1.596-4.188h-1.596v-2.604h1.596c.432 0 .774.12 1.026.36s.378.556.378.948c0 .392-.126.706-.378.942s-.594.354-1.026.354zm8.4 4.32a4.29 4.29 0 002.172-.564 3.984 3.984 0 001.524-1.524v-2.232h-3.708v1.128h2.436v.852c-.52.8-1.308 1.2-2.364 1.2-.848 0-1.546-.282-2.094-.846-.548-.564-.822-1.27-.822-2.118 0-.84.266-1.536.798-2.088s1.214-.828 2.046-.828c.984 0 1.772.416 2.364 1.248l.924-.756c-.792-1.104-1.884-1.656-3.276-1.656-1.152-.016-2.142.38-2.97 1.188-.828.808-1.23 1.776-1.206 2.904-.016 1.136.386 2.106 1.206 2.91.82.804 1.81 1.198 2.97 1.182zm8.928 0c1.128.016 2.11-.38 2.946-1.188.836-.808 1.242-1.776 1.218-2.904.024-1.128-.382-2.096-1.218-2.904-.836-.808-1.818-1.204-2.946-1.188-1.136-.016-2.116.38-2.94 1.188-.824.808-1.228 1.776-1.212 2.904-.024 1.128.378 2.096 1.206 2.904.828.808 1.81 1.204 2.946 1.188zm.012-1.164c-.824 0-1.504-.278-2.04-.834-.536-.556-.804-1.258-.804-2.106 0-.84.27-1.536.81-2.088s1.218-.828 2.034-.828c.808 0 1.484.278 2.028.834.544.556.816 1.25.816 2.082 0 .84-.272 1.54-.816 2.1-.544.56-1.22.84-2.028.84zm10.308 1.032v-3.264h3.144v-1.152h-3.144v-2.364h3.816v-1.14h-5.088v7.92h1.272zm6.348 0v-7.92h-1.272v7.92h1.272zm2.34.132c.712 0 1.262-.178 1.65-.534.388-.356.582-.878.582-1.566v-5.952h-1.272v5.82c0 .392-.1.668-.3.828-.2.16-.512.24-.936.24-.144 0-.416-.02-.816-.06v1.092c.4.088.764.132 1.092.132zm7.896 0c1.128.016 2.11-.38 2.946-1.188.836-.808 1.242-1.776 1.218-2.904.024-1.128-.382-2.096-1.218-2.904-.836-.808-1.818-1.204-2.946-1.188-1.136-.016-2.116.38-2.94 1.188-.824.808-1.228 1.776-1.212 2.904-.024 1.128.378 2.096 1.206 2.904.828.808 1.81 1.204 2.946 1.188zm.012-1.164c-.824 0-1.504-.278-2.04-.834-.536-.556-.804-1.258-.804-2.106 0-.84.27-1.536.81-2.088s1.218-.828 2.034-.828c.808 0 1.484.278 2.028.834.544.556.816 1.25.816 2.082 0 .84-.272 1.54-.816 2.1-.544.56-1.22.84-2.028.84zm10.308 1.032v-4.98l2.28 2.988h.432l2.268-2.976v4.968h1.272V270h-.432l-3.324 4.428-3.324-4.428h-.444v8.052h1.272zm13.596 0v-1.14h-4.08v-2.508h2.964V273.3h-2.964v-2.028h3.936v-1.14h-5.208v7.92h5.352zm8.004.132v-8.052h-1.272v5.34L183.965 270h-.444v8.052h1.272v-5.364l4.824 5.496h.432zm4.428 0c.768 0 1.402-.212 1.902-.636.5-.424.75-.976.75-1.656 0-.512-.15-.94-.45-1.284-.3-.344-.782-.668-1.446-.972l-.888-.408a1.067 1.067 0 00-.108-.06 74.06 74.06 0 00-.468-.24 1.674 1.674 0 01-.252-.186c-.12-.1-.194-.196-.222-.288a1.537 1.537 0 01-.054-.354c0-.304.112-.54.336-.708.224-.168.512-.252.864-.252.68 0 1.236.32 1.668.96l.888-.684a2.74 2.74 0 00-1.05-1.032 3.002 3.002 0 00-1.506-.384c-.704 0-1.296.2-1.776.6-.48.4-.72.916-.72 1.548 0 .504.154.926.462 1.266.308.34.77.65 1.386.93l.876.408c.44.208.744.39.912.546.168.156.252.37.252.642a.974.974 0 01-.378.804c-.252.2-.582.3-.99.3-.808 0-1.5-.42-2.076-1.26l-.9.684a3.384 3.384 0 002.988 1.716zm7.464 0c.952 0 1.73-.3 2.334-.9.604-.6.906-1.412.906-2.436v-4.716h-1.272v4.8c0 .656-.18 1.168-.54 1.536-.36.368-.836.552-1.428.552-.6 0-1.082-.184-1.446-.552-.364-.368-.546-.88-.546-1.536v-4.8h-1.272v4.716c0 1.024.302 1.836.906 2.436.604.6 1.39.9 2.358.9zm5.772-.132l.564-1.32h3.564l.564 1.32h1.368L210.281 270h-.432l-3.492 8.052h1.356zm3.672-2.412h-2.652l1.332-3.276 1.32 3.276zm8.544 2.412v-1.14h-3.624v-6.78h-1.272v7.92h4.896z" fill="#4F008C"/></g><path d="M45.22 23.192V12.44h-2.16v6.304l-6.128-6.496h-.704V23h2.16v-6.336l6.112 6.528h.72zm6.081 0c1.302 0 2.374-.416 3.216-1.248.843-.832 1.264-1.936 1.264-3.312V12.44h-2.16v6.352c0 .757-.21 1.347-.632 1.768-.42.421-.984.632-1.688.632-.693 0-1.253-.21-1.68-.632-.426-.421-.64-1.01-.64-1.768V12.44h-2.16v6.192c0 1.376.42 2.48 1.256 3.312.838.832 1.912 1.248 3.224 1.248zM64.695 23v-1.952H59.56v-2.672h3.632v-1.84H59.56v-2.144h4.944V12.44H57.4V23h7.296zm5.586.192l4.704-10.752h-2.432l-2.624 6.4-2.64-6.4H64.84l4.72 10.752h.72zm10.381 0c1.407-.036 2.637-.564 3.692-1.584 1.126-1.088 1.678-2.384 1.656-3.888.022-1.504-.53-2.8-1.656-3.888-1.125-1.088-2.45-1.616-3.976-1.584-1.525-.032-2.845.496-3.96 1.584-1.114 1.088-1.661 2.384-1.64 3.888-.021 1.504.526 2.8 1.64 3.888 1.115 1.088 2.435 1.616 3.96 1.584h.284zm-.268-2c-.981 0-1.792-.325-2.432-.976-.64-.65-.96-1.483-.96-2.496s.32-1.845.96-2.496c.64-.65 1.451-.976 2.432-.976.971 0 1.779.328 2.424.984.646.656.968 1.485.968 2.488 0 1.013-.322 1.845-.968 2.496-.645.65-1.453.976-2.424.976zM92.366 23v-4.416h2.464c1.013 0 1.829-.288 2.448-.864.618-.576.928-1.317.928-2.224 0-.896-.31-1.63-.928-2.2-.619-.57-1.435-.856-2.448-.856h-3.712V23h1.248zm2.432-5.536h-2.432V13.56h2.432c.661 0 1.178.179 1.552.536.373.357.56.83.56 1.416 0 .597-.187 1.072-.56 1.424-.374.352-.891.528-1.552.528zM105.823 23v-1.12h-5.008v-9.44h-1.248V23h6.256zm1.474 0l.896-2.144h5.184l.896 2.144h1.328l-4.576-10.736h-.464L105.985 23h1.312zm5.6-3.264h-4.224l2.112-5.2 2.112 5.2zm12.354 3.44V12.44h-1.248v7.936l-6.72-8.112h-.448V23h1.248v-7.92l6.72 8.096h.448z" fill="#4F008C" fill-rule="nonzero"/></g></svg>