<svg xmlns="http://www.w3.org/2000/svg" xmlns:xlink="http://www.w3.org/1999/xlink" width="240" height="331" xmlns:v="https://vecta.io/nano"><style><![CDATA[.B{fill:#fff}.C{fill-rule:nonzero}.D{fill:#fefefe}.E{stroke:#7c6c8a}.F{fill:#4f008c}.G{fill:#db167a}]]></style><defs><path d="M8 0h224c4.418 0 8 3.862 8 8.625v313.75c0 4.764-3.582 8.625-8 8.625H8c-4.418 0-8-3.862-8-8.625V8.625C0 3.862 3.582 0 8 0z" id="A"/><path id="B" d="M0 26.872h87.722V0H0z"/><path id="C" d="M0 .694h20.78v21.174H0z"/><path id="D" d="M0 .698h20.78v21.296H0z"/><linearGradient x1="50%" y1="86.9690011%" x2="50%" y2="-4.76463835%" id="E"><stop stop-color="#fcde87" offset="0%"/><stop stop-color="#f5b444" offset="21%"/><stop stop-color="#e14d75" offset="38%"/><stop stop-color="#de3a8d" offset="52%"/><stop stop-color="#804492" offset="74%"/><stop stop-color="#514f99" offset="100%"/></linearGradient><path id="F" d="M0 .68h20.78v20.75H0z"/><path id="G" d="M84.403 17.728l-2.598.984-.162-.4 3.425-1.552c.14-.06.463-.018.514.076l1.737 3.376-.425.21-1.406-2.54-1.144 2.03c-2.535 4.376-6.4 6.594-11.393 6.607l-58.247.002c-6.827-.02-12.118-4.923-12.9-11.647-.036-.312-.005-.63.216-.965.344 1.274.588 2.585 1.052 3.814 1.73 4.588 4.992 7.37 9.902 8.07 1.117.158 2.255.232 3.383.233l56.204.001c5.015-.007 8.865-2.18 11.414-6.54.275-.47.456-.997.68-1.497l-.264-.273z"/><path id="H" d="M85.558 13.03l-.303-1.554c-.62-4.988-4.55-9.277-9.533-10.305-1.1-.228-2.243-.365-3.366-.366L15.252.797C10.464.798 6.7 2.726 4.083 6.77c-.418.646-.76 1.473-1.104 2.166.016.018.09-.056.104-.037l.19.225L5.9 8.083l.167.41-3.887 1.832L.392 6.527l.416-.214 1.395 2.64c.242-.377.415-.593.53-.835C5.17 3.09 9.144.34 14.762.328L73.115.316c6.914.007 12.455 5.362 12.81 12.3.006.126-.064.256-.098.385l-.27.03z"/></defs><g fill="none" fill-rule="evenodd"><mask id="I" class="B"><use xlink:href="#A"/></mask><g mask="url(#I)"><path stroke-linecap="square" d="M8.5 286.5L232 286" class="E"/><g transform="translate(-1 9)"><g class="C"><g class="G"><path d="M233.496 280.243l.004-.243V16a7.5 7.5 0 0 0-7.257-7.496L226 8.5h-17v-1h17a8.5 8.5 0 0 1 8.496 8.245l.004.255v264M29 7.5v1H17a7.5 7.5 0 0 0-7.496 7.257L9.5 16v239h-1V16a8.5 8.5 0 0 1 8.245-8.496L17 7.5h12zm165 0v1h-62v-1h62z"/></g><g fill="#d7007b"><path d="M11.15-1.726a1 1 0 0 1 1.461 1.36l-.086.092-6.067 5.747 6.062 5.666a1 1 0 0 1 .128 1.316l-.08.097a1 1 0 0 1-1.316.128l-.097-.08L3.54 5.484l7.608-7.2z" transform="matrix(.017452 -.999848 .999848 .017452 2.611886 268.527862)"/><path d="M205.15.274a1 1 0 0 1 1.414.038 1 1 0 0 1 .048 1.322l-.086.092-6.067 5.747 6.062 5.666a1 1 0 0 1 .128 1.316l-.08.097a1 1 0 0 1-1.316.128l-.097-.08-7.613-7.117 7.608-7.2z"/></g></g><path d="M234 280v29.286c0 3.156-3.582 5.714-8 5.714H17c-4.418 0-8-2.558-8-5.714V270" stroke="#d81a7b"/><g transform="translate(22 282)"><mask id="J" class="B"><use xlink:href="#B"/></mask><use xlink:href="#G" mask="url(#J)" class="E"/><mask id="K" class="B"><use xlink:href="#AW" href="#B"/></mask><path stroke="#fff" mask="url(#K)" d="M84.607 17.28h1v1h-1z" class="B C"/><mask id="L" class="B"><use xlink:href="#D" href="#B"/></mask><use xlink:href="#H" mask="url(#L)" class="E"/><mask id="M" class="B"><use xlink:href="#E" href="#B"/></mask><path stroke-width="2" fill="#7c6c8a" mask="url(#M)" d="M2.98 8.937l-.596.596h-.596.596v.596" class="C E"/><mask id="N" class="B"><use xlink:href="#F" href="#B"/></mask><use xlink:href="#G" mask="url(#N)" class="E"/><mask id="O" class="B"><use xlink:href="#G" href="#B"/></mask><use xlink:href="#H" mask="url(#O)" class="E"/><mask id="P" class="B"><use xlink:href="#H" href="#B"/></mask><g class="C"><path stroke="#fff" stroke-width="2" mask="url(#P)" d="M2.98 8.937l-.596.596h-.596.596v.596" class="B"/><g fill="#7c6c8a"><path d="M17.947 21.276c1.625 0 3.097-.383 4.416-1.15 1.32-.782 2.33-1.802 3.036-3.06h0v-4.784h-7.5v3.404h3.542v.713c-.782.905-1.894 1.357-3.335 1.357-1.334 0-2.396-.4-3.186-1.196s-1.184-1.848-1.184-3.15c0-1.288.372-2.315 1.116-3.082s1.752-1.15 3.024-1.15c1.564 0 2.844.698 3.84 2.093h0l2.76-2.346c-1.518-2.254-3.695-3.38-6.532-3.38-2.285-.03-4.24.728-5.865 2.277S9.66 11.233 9.7 13.4c-.03 2.193.767 4.06 2.392 5.6s3.58 2.296 5.865 2.266zM31.6 21V5.82h-3.956V21H31.6zm10.5.276c1.625 0 3.097-.383 4.416-1.15 1.32-.782 2.33-1.802 3.036-3.06h0v-4.784h-7.498v3.404h3.542v.713c-.782.905-1.894 1.357-3.335 1.357-1.334 0-2.396-.4-3.185-1.196s-1.184-1.848-1.184-3.15c0-1.288.372-2.315 1.115-3.082s1.752-1.15 3.025-1.15c1.564 0 2.844.698 3.84 2.093h0l2.76-2.346c-1.518-2.254-3.695-3.38-6.532-3.38-2.285-.03-4.24.728-5.865 2.277s-2.423 3.412-2.392 5.6c-.03 2.193.767 4.06 2.392 5.6s3.58 2.296 5.865 2.266zM54.38 21l.552-1.265h5.45L60.934 21h4.255l-6.9-15.456h-1.265L50.124 21h4.255zm4.6-4.44h-2.645l1.334-3.52 1.3 3.52zm12.72 4.715c1.6 0 2.94-.43 4-1.288s1.575-2 1.575-3.45c0-1.058-.3-1.943-.93-2.656s-1.606-1.353-2.956-1.92h0l-1.748-.736c-.5-.2-.832-.387-1.023-.563a.88.88 0 0 1-.288-.678c0-.644.452-.966 1.357-.966.52 0 .974.127 1.357.38s.767.663 1.15 1.23h0l2.645-2.024c-1.012-2.04-2.745-3.06-5.198-3.06-1.564 0-2.84.414-3.83 1.242s-1.483 1.9-1.483 3.243c0 1.917 1.28 3.442 3.84 4.577h0l1.564.7c.63.276 1.043.498 1.242.667s.3.414.3.736c0 .736-.52 1.104-1.564 1.104-.72 0-1.342-.165-1.863-.494s-1.027-.817-1.518-1.46h0l-2.668 2.024c.552 1.058 1.36 1.9 2.427 2.496s2.273.9 3.622.9zm24.323-10.292c.73 0 1.33-.197 1.802-.6s.705-.913.705-1.557c0-.478-.14-.877-.423-1.2s-.73-.62-1.346-.895h0l-.814-.358c-.318-.145-.537-.273-.657-.385s-.18-.26-.18-.44c0-.217.083-.387.25-.5a1.12 1.12 0 0 1 .64-.185c.543 0 .998.275 1.367.825h0l.998-.77c-.232-.42-.55-.75-.955-.993s-.875-.364-1.4-.364c-.687 0-1.255.186-1.704.56s-.673.863-.673 1.47c0 .86.58 1.548 1.737 2.062h0l.77.347c.362.166.604.306.727.418s.185.27.185.472c0 .246-.1.44-.27.58s-.43.212-.75.212c-.666 0-1.252-.347-1.758-1.042h0l-1 .76a3.12 3.12 0 0 0 1.145 1.161c.48.282 1.022.423 1.623.423zm8.544-.13V9.53h-3.484V7.717h2.464v-1.25h-2.464V5.014h3.354V3.7h-4.82v7.163h4.95zm4.25 0l.402-.933h2.93l.402.933h1.574l-3.2-7.293h-.488l-3.202 7.293h1.574zm2.822-2.138h-1.9l.955-2.42.955 2.42zm6.493 2.268c.687 0 1.3-.157 1.867-.472a3.35 3.35 0 0 0 1.302-1.308h0l-1.107-.78c-.514.803-1.197 1.205-2.05 1.205-.666 0-1.217-.22-1.655-.662s-.657-1.002-.657-1.682.22-1.244.657-1.693 1-.673 1.655-.673c.854 0 1.538.402 2.05 1.205h0l1.107-.78a3.44 3.44 0 0 0-1.308-1.308c-.554-.315-1.17-.472-1.85-.472-1.042-.022-1.943.335-2.702 1.07a3.47 3.47 0 0 0-1.118 2.643 3.44 3.44 0 0 0 1.102 2.643 3.64 3.64 0 0 0 2.708 1.07zm7.187 0c.883 0 1.6-.282 2.18-.847s.857-1.313.857-2.247h0V3.7h-1.465V8c0 .514-.143.913-.43 1.2s-.667.43-1.145.43c-.47 0-.85-.143-1.14-.43s-.434-.686-.434-1.2h0V3.7h-1.465v4.2c0 .933.284 1.682.852 2.247s1.297.847 2.187.847zm5.885-.13v-3.82l1.802 2.257h.478l1.802-2.257v3.82h1.465V3.56h-.478l-3.028 3.875-3.028-3.875h-.478v7.293h1.465zm9.966.13c.883 0 1.6-.282 2.18-.847s.857-1.313.857-2.247h0V3.7h-1.465V8c0 .514-.143.913-.43 1.2s-.667.43-1.145.43c-.47 0-.85-.143-1.14-.43s-.434-.686-.434-1.2h0V3.7h-1.465v4.2c0 .933.284 1.682.852 2.247s1.297.847 2.187.847zm9.022-.13V9.53h-3.137V3.7H145.6v7.163h4.602zm1.772 0l.402-.933h2.93l.402.933h1.574l-3.2-7.293h-.488l-3.202 7.293h1.574zm2.822-2.138h-1.9l.955-2.42.955 2.42zm9.358 2.268V3.7h-1.465v4.276l-4.16-4.416h-.478v7.293h1.465V6.555l4.146 4.428h.488zm5.736-.13v-2.53h1.226c.752 0 1.37-.217 1.856-.65a2.14 2.14 0 0 0 .727-1.671c0-.687-.242-1.244-.727-1.67s-1.103-.64-1.856-.64h0-2.692v7.163h1.465zm1.226-3.8h-1.226v-2.06h1.226c.326 0 .588.094.787.282s.298.434.298.738c0 .3-.096.563-.288.754s-.458.288-.798.288h0zm3.573 3.8l.402-.933h2.93l.402.933h1.574l-3.2-7.293h-.488l-3.202 7.293h1.574zm2.822-2.138h-1.9l.955-2.42.955 2.42zm4.724 2.138v-2.53h1.074l1.856 2.53h1.65l-2.03-2.8a2.2 2.2 0 0 0 .928-.83 2.26 2.26 0 0 0 .331-1.21c0-.687-.242-1.244-.727-1.67s-1.103-.64-1.856-.64h0-2.692v7.163h1.465zm1.226-3.82h-1.226v-2.05h1.226c.326 0 .588.094.787.282s.298.434.298.738c0 .3-.096.56-.288.75s-.458.282-.798.282h0zm4.94 3.82l.402-.933h2.93l.402.933h1.574l-3.2-7.293h-.488l-3.202 7.293h1.574zm2.822-2.138h-1.9l.955-2.42.955 2.42zM99.426 23.063v-1.5h-3.92v-2.04h2.772V18.13h-2.772v-1.636h3.773v-1.5h-5.42v8.058h5.568zm6.402 0v-1.5h-3.53v-6.57h-1.648v8.058h5.177zm5.27 0v-4.298l2.027 2.54h.537l2.027-2.54v4.298h1.648v-8.205h-.537l-3.407 4.36-3.407-4.36h-.537v8.205h1.648zm13.46 0v-1.5h-3.92v-2.04h2.772V18.13h-2.772v-1.636h3.773v-1.5H119v8.058h5.568zm3.777.147c.822 0 1.498-.222 2.027-.665s.794-1.028.794-1.752c0-.537-.16-.987-.476-1.35s-.822-.698-1.514-1.007h0l-.916-.403c-.358-.163-.604-.307-.74-.433s-.2-.3-.2-.494c0-.244.094-.435.28-.574s.427-.208.72-.208c.6 0 1.123.3 1.538.928h0l1.123-.867a2.92 2.92 0 0 0-1.074-1.117c-.456-.273-.985-.4-1.587-.4-.773 0-1.412.2-1.917.63s-.757.97-.757 1.654c0 .97.65 1.742 1.954 2.32h0l.867.4c.407.187.68.344.818.47s.208.303.208.53c0 .277-.102.494-.305.653s-.484.238-.842.238c-.75 0-1.408-.4-1.978-1.172h0l-1.136.855a3.51 3.51 0 0 0 1.288 1.306 3.54 3.54 0 0 0 1.825.476zm9.837 0c.822 0 1.498-.222 2.027-.665s.794-1.028.794-1.752c0-.537-.16-.987-.476-1.35s-.822-.698-1.514-1.007h0l-.916-.403c-.358-.163-.604-.307-.74-.433s-.2-.3-.2-.494c0-.244.094-.435.28-.574s.427-.208.72-.208c.6 0 1.123.3 1.538.928h0l1.123-.867a2.92 2.92 0 0 0-1.074-1.117c-.456-.273-.985-.4-1.587-.4-.773 0-1.412.2-1.917.63s-.757.97-.757 1.654c0 .97.65 1.742 1.954 2.32h0l.867.4c.407.187.68.344.818.47s.208.303.208.53c0 .277-.102.494-.305.653s-.484.238-.842.238c-.75 0-1.408-.4-1.978-1.172h0l-1.136.855a3.51 3.51 0 0 0 1.288 1.306 3.54 3.54 0 0 0 1.825.476zm5.718-.147v-8.058h-1.648v8.058h1.648zm5.486.147c.847 0 1.604-.2 2.27-.598a4.27 4.27 0 0 0 1.575-1.587h0v-2.38h-3.87v1.43h2.222v.66c-.48.667-1.188 1-2.125 1-.798 0-1.445-.252-1.94-.757s-.745-1.152-.745-1.94c0-.773.24-1.408.72-1.905s1.103-.745 1.868-.745c.928 0 1.677.395 2.247 1.184h0l1.172-.965c-.822-1.164-1.954-1.746-3.394-1.746a4.17 4.17 0 0 0-3.071 1.209c-.85.822-1.264 1.8-1.24 2.967-.016 1.156.403 2.147 1.258 2.973a4.11 4.11 0 0 0 3.052 1.203zm8.417 0c.993 0 1.8-.317 2.454-.952s.965-1.477.965-2.527h0v-4.725h-1.648v4.847c0 .578-.16 1.028-.482 1.35s-.75.482-1.288.482c-.53 0-.956-.16-1.282-.482s-.488-.77-.488-1.35h0v-4.847h-1.648v4.725c0 1.05.32 1.893.958 2.527s1.46.952 2.46.952zm6.646-.147v-8.058h-1.64v8.058h1.648zm7.208 0v-1.5h-3.92v-2.04h2.772V18.13h-2.772v-1.636h3.773v-1.5h-5.42v8.058h5.568zm8.087.147v-8.205h-1.648v4.8l-4.676-4.957h-.537v8.205h1.648v-4.835l4.664 4.982h.55zm5.108-.147v-6.57h2.588v-1.5h-6.813v1.5h2.576v6.57h1.648zm9.04 0v-1.5h-3.92v-2.04h2.772V18.13h-2.772v-1.636h3.773v-1.5h-5.42v8.058h5.568z"/></g></g></g></g></g><g mask="url(#I)"><g transform="translate(10 12)"><g transform="translate(0 106)"><g transform="translate(16 42)"><g transform="translate(0 .894)"><g transform="translate(73.327)"><mask id="Q" class="B"><use xlink:href="#C"/></mask><g class="C"><path d="M20.78 11.28c0 5.846-4.652 10.587-10.39 10.587S0 17.127 0 11.28 4.65.693 10.4.693s10.39 4.74 10.39 10.588" fill="#0f5ca5" mask="url(#Q)"/><path d="M12.685 7.284l1.348-.002V5.053a17.91 17.91 0 0 0-1.962-.101C10.128 4.95 8.8 6.11 8.8 8.245v1.84l-2.196-.004v2.496H8.8v6.4l2.627.004V12.58l2.19.002.33-2.493-2.518-.002v-1.59c0-.724.203-1.215 1.258-1.213" class="D"/></g></g><g transform="translate(97.471)"><mask id="R" class="B"><use xlink:href="#D"/></mask><g class="C"><path d="M20.78 11.346c0 5.88-4.652 10.647-10.4 10.647S0 17.226 0 11.346 4.653.697 10.39.697s10.4 4.768 10.4 10.65" fill="#0098d3" mask="url(#R)"/><path d="M15.443 9.486c-.095 3.564-2.9 6.04-7.154 6.19-1.743.078-3-.388-4.162-.93 1.256.156 2.906-.232 3.773-.852-1.256-.077-2.03-.618-2.418-1.474.388.08.774.001 1.063.001-1.163-.3-1.932-.853-2.03-2.093.294.155.675.235 1.062.235-.868-.4-1.45-1.863-.768-2.793 1.256 1.087 2.8 2.02 5.317 2.176-.675-2.172 3-3.33 4.45-1.857.675-.075 1.16-.308 1.643-.46-.194.54-.58.85-1.062 1.16.48-.078.968-.153 1.354-.308-.1.386-.58.696-1.066 1.005" class="D"/></g></g><g transform="translate(25.038 .894)" class="C"><circle fill="url(#E)" cx="10.284" cy="10.284" r="10.284"/><g class="B"><path d="M13.05 4.113H7.52a3.36 3.36 0 0 0-2.398.985c-.64.637-1 1.505-1.008 2.412v5.535c.014 1.892 1.536 3.416 3.405 3.4h5.53a3.36 3.36 0 0 0 2.402-.989c.64-.64 1-1.5 1.003-2.42V7.523c-.014-1.892-1.536-3.416-3.405-3.4h0zm2.3 8.944a2.34 2.34 0 0 1-.682 1.642c-.433.434-1.02.676-1.63.673H7.52a2.31 2.31 0 0 1-1.63-.673 2.34 2.34 0 0 1-.682-1.642V7.5a2.34 2.34 0 0 1 .682-1.642c.433-.434 1.02-.676 1.63-.673h5.53c.612-.003 1.2.24 1.634.677a2.34 2.34 0 0 1 .678 1.65v5.535zm-5.1-5.653a2.88 2.88 0 0 0-2.845 2.902 2.88 2.88 0 0 0 2.891 2.857 2.88 2.88 0 0 0 2.868-2.879 2.89 2.89 0 0 0-2.914-2.879m0 4.77a1.89 1.89 0 0 1-1.866-1.904 1.89 1.89 0 0 1 1.897-1.874 1.89 1.89 0 0 1 1.882 1.889 1.9 1.9 0 0 1-1.912 1.889"/><path d="M13.992 5.76c-.22 0-.432.088-.588.245s-.242.362-.242.58.087.428.242.58c.323.32.84.32 1.162 0 .154-.153.242-.362.242-.58s-.087-.428-.242-.58-.367-.245-.588-.245"/></g></g><g transform="translate(49.183 .894)"><mask id="S" class="B"><use xlink:href="#F"/></mask><g class="C"><path d="M20.78 11.054c0 5.73-4.652 10.376-10.4 10.376S0 16.784 0 11.054 4.653.68 10.39.68s10.4 4.646 10.4 10.376" fill="#ffe91b" mask="url(#S)"/><g transform="translate(3.953 4.953)"><path d="M1.2 8.543c.362-.058.696-.206.987-.41.252-.162.488-.384.696-.65.363-.44.543-.87.572-.943v-.014c.097-.192.11-.37.054-.5-.1-.266-.445-.384-.68-.458l-.042-.015-.112-.045c-.168-.074-.292-.15-.362-.222-.11-.103-.126-.207-.11-.265a.35.35 0 0 1 .166-.222c.126-.073.292-.103.39-.043.32.162.585.207.78.104.055-.03.083-.09.083-.147 0-.09-.014-.177-.014-.265v-.015c-.042-.768-.098-1.726.125-2.27a3.11 3.11 0 0 1 .641-.973 2.59 2.59 0 0 1 .765-.53A2.8 2.8 0 0 1 6.344.396h.208a2.82 2.82 0 0 1 1.197.266 2.61 2.61 0 0 1 .765.531 2.89 2.89 0 0 1 .64.974c.237.546.168 1.504.126 2.257v.043c0 .06-.014.103-.014.162v.073c0 .06.028.12.083.15s.125.043.194.043h.028c.154-.014.32-.058.502-.146.07-.03.14-.03.166-.03.07 0 .126.015.195.046.153.058.266.177.266.295 0 .043-.015.118-.1.206s-.21.163-.388.25c-.03.016-.07.03-.098.03l-.042.014c-.223.073-.57.19-.682.457-.055.132-.042.3.057.515 0 .015 0 .015.013.03.126.295.822 1.74 2.255 1.993.055.014.097.06.097.132 0 .028-.014.06-.014.073-.04.09-.14.177-.306.265-.222.118-.57.207-1.03.28-.042.016-.083.045-.11.09s-.042.147-.07.28l-.014.074-.042.192c-.03.073-.07.118-.154.118-.042 0-.11 0-.223-.03-.154-.028-.348-.073-.597-.074-.153 0-.292.015-.43.045-.294.058-.557.235-.836.442-.377.28-.794.603-1.434.602h-.125c-.64-.001-1.057-.326-1.448-.607-.262-.19-.514-.384-.82-.443-.14-.03-.294-.045-.432-.045-.25 0-.445.043-.585.073H3.13a1.15 1.15 0 0 1-.223.03c-.083 0-.14-.03-.168-.12-.055-.103-.082-.177-.097-.25l-.014-.045c-.028-.118-.042-.22-.084-.28-.014-.043-.054-.073-.096-.073-.46-.074-.808-.178-1.044-.282-.154-.073-.266-.162-.307-.25-.014-.028-.014-.058-.014-.073v-.028c.055-.06.084-.09.126-.104" class="D"/><path d="M6.552.697h-.2a2.45 2.45 0 0 0-1.07.236c-.254.115-.476.27-.676.468a2.8 2.8 0 0 0-.576.874c-.102.248-.144.636-.14 1.175l.007.32.045.942c0 .168-.087.33-.244.414-.295.155-.65.105-1.078-.114.01.006.002.01-.014.017l-.06.026-.01.008.016.014c.027.03.092.07.198.122l.12.054.068.024c.464.146.732.298.867.627.083.194.075.42-.012.644l-.035.074-.004.025a3.86 3.86 0 0 1-.493.864l-.123.157c-.23.293-.49.536-.76.71-.226.16-.47.283-.723.367l-.04.01.07.028c.162.06.354.112.56.156l.2.04c.175 0 .33.117.34.198a.56.56 0 0 1 .089.194l.04.172.04.137.024.06.15-.023-.05.007.114-.024a2.64 2.64 0 0 1 .534-.056 2.43 2.43 0 0 1 .49.05c.228.044.415.133.657.295l.42.3c.394.282.66.414.988.443l.145.006h.125c.348.001.613-.097.96-.33l.294-.212c.392-.29.646-.434.952-.495a2.33 2.33 0 0 1 .496-.051 2.49 2.49 0 0 1 .338.024l.338.06.03.006.012-.05.05-.256a.59.59 0 0 1 .073-.202.55.55 0 0 1 .32-.228c.383-.06.665-.13.85-.208l.062-.03-.08-.023c-.466-.16-.876-.44-1.23-.81l-.15-.165c-.317-.37-.545-.762-.645-1.022l-.022-.03-.035-.066-.007-.026-.034-.08c-.07-.192-.09-.38-.047-.547l.033-.1c.122-.294.337-.438.716-.576l.15-.052.135-.03-.033-.001c.133-.064.215-.113.268-.156l.022-.022-.06-.026c-.024-.01-.04-.016-.052-.018l-.055-.002c-.155.075-.307.126-.468.155l-.165.02h-.028c-.116 0-.233-.026-.337-.08a.46.46 0 0 1-.235-.331l-.007-.084.002-.132.01-.103v-.06l.035-.686.003-.103c.018-.626-.023-1.063-.143-1.34-.132-.33-.326-.624-.573-.872a2.31 2.31 0 0 0-.681-.472C7.315.8 7.015.722 6.725.703L6.552.697zm5.562 7.992l-.008.078-.012.05.005-.05-.026.12c-.06.13-.166.24-.318.336l-.122.07c-.21.11-.498.197-.846.26l-.18.028-.078.38-.023.09c-.074.187-.22.308-.434.308-.1 0-.183-.01-.278-.036l-.134-.026a2.18 2.18 0 0 0-.408-.044c-.13 0-.25.012-.372.04-.17.034-.335.118-.583.293l-.275.2c-.464.338-.828.515-1.29.55l-.18.006h-.125c-.492-.001-.852-.137-1.307-.44l-.445-.316c-.255-.184-.408-.267-.578-.3a1.84 1.84 0 0 0-.37-.038c-.094 0-.182.007-.274.02l-.31.053.05-.007c-.107.023-.2.036-.286.036-.216 0-.388-.114-.433-.277-.05-.092-.084-.173-.104-.24l-.016-.064-.02-.065-.032-.142-.122-.022a4.73 4.73 0 0 1-.752-.206l-.153-.062c-.17-.08-.308-.18-.394-.3L.827 8.88l-.01-.023a.41.41 0 0 1-.031-.121l-.003-.09.08-.206a.67.67 0 0 1 .179-.154l.066-.028.1.28-.046-.294c.243-.04.478-.126.704-.26l.168-.108c.22-.142.432-.34.626-.587a3.58 3.58 0 0 0 .474-.744l.05-.118.012-.04c.046-.09.06-.164.054-.216l-.01-.034c-.037-.1-.156-.167-.38-.248l-.268-.095-.03-.014c-.206-.09-.357-.183-.444-.276-.174-.16-.246-.374-.202-.54.03-.167.144-.325.312-.427.19-.1.418-.152.594-.09l.083.04c.18.09.316.13.41.127l.01-.002-.008-.12-.035-.816c-.02-.73.026-1.248.184-1.635.186-.425.416-.777.705-1.066.25-.25.533-.446.85-.59A3.02 3.02 0 0 1 6.162.098l.182-.004h.208a3.05 3.05 0 0 1 1.323.294 2.91 2.91 0 0 1 .853.593c.304.306.544.667.703 1.067.144.333.197.768.193 1.36l-.008.336-.035.682-.002.102-.008.063.068-.01a1.15 1.15 0 0 0 .204-.061l.113-.05c.102-.043.185-.053.284-.053a.71.71 0 0 1 .303.066c.26.1.46.316.46.576 0 .14-.06.285-.18.41-.087.094-.195.17-.343.248l-.12.06a.51.51 0 0 1-.145.058l-.047.01c-.303.1-.455.184-.498.287-.016.04-.013.105.02.196l.03.073.005.02.013.022c.094.22.24.484.434.742l.154.192c.402.468.88.782 1.46.884.194.048.327.218.327.425z" fill="#1f140f"/></g></g></g><g class="C"><path d="M.096 22.29l1.503-5.447C.62 15.15.096 13.273.096 11.32.096 5.383 4.98.5 10.952.5s10.933 4.884 10.933 10.82-4.96 10.97-10.933 10.97c-1.88 0-3.68-.6-5.297-1.503L.096 22.29z" class="D"/><path d="M5.956 18.833l.338.188c1.4.864 3.006 1.4 4.696 1.4 4.92 0 9.016-4.094 9.016-9.09s-4.095-8.94-9.054-8.94-8.978 3.982-8.978 8.94c0 1.728.488 3.42 1.39 4.846l.226.338-.864 3.156 3.23-.826z" fill="#129f5c"/><path d="M8.06 6.285l-.714-.038c-.226 0-.45.075-.6.226-.338.3-.902.864-1.052 1.616-.263 1.127.15 2.48 1.127 3.832s2.855 3.532 6.16 4.47c1.052.3 1.88.112 2.555-.3.526-.338.864-.864.977-1.428l.113-.526a.38.38 0 0 0-.188-.413l-2.366-1.09c-.15-.075-.338-.038-.45.112l-.94 1.202c-.075.075-.188.112-.3.075-.638-.225-2.78-1.127-3.945-3.38-.037-.113-.037-.226.038-.3l.902-1.014c.075-.113.112-.263.075-.376L8.36 6.51c-.037-.112-.15-.226-.3-.226" class="D"/></g></g><g transform="translate(128.769)" class="C"><path d="M8.702 13.413v-2.91H3.575V1.02H.345v12.394h8.357zm4.286 0V1.02h-3.23v12.394h3.23zm7.63 0c2.385 0 4.188-1.502 4.188-3.68 0-1.465-.807-2.46-2.066-2.967.47-.526.75-1.24.75-2.084 0-2.197-1.822-3.662-4.188-3.662h-4.47v12.394h5.784zm-1.52-7.493H17.93V3.742h1.164c.77 0 1.24.432 1.24 1.09s-.47 1.09-1.24 1.09zm1.315 4.77h-2.48V8.512h2.48c.75 0 1.24.357 1.24 1.09s-.488 1.09-1.24 1.09zm8.737 2.723v-3.85h1.333l2.798 3.85h3.606l-3.268-4.6c1.202-.732 1.953-1.972 1.953-3.53 0-2.63-2.066-4.263-4.79-4.263h-4.864v12.394h3.23zM30.8 6.747h-1.653v-2.91H30.8c.9 0 1.484.582 1.484 1.446 0 .883-.582 1.465-1.484 1.465zm15.554 6.666v-2.91h-5.596v-2.16h3.83V5.64h-3.83V3.93h5.37V1.02h-8.6v12.394h8.826zm5.507.225c2.554 0 4.544-1.427 4.544-3.868 0-1.822-1.108-2.873-3.174-3.737l-1.427-.6c-.77-.32-1.07-.545-1.07-1.014 0-.563.47-.79 1.108-.79.94 0 1.484.488 2.047 1.315l2.16-1.653C55.334 1.864 53.963.794 51.804.794c-2.516 0-4.338 1.446-4.338 3.662 0 1.746 1.164 2.873 3.136 3.737l1.277.563c.864.376 1.258.563 1.258 1.146 0 .6-.413.9-1.277.9-1.4 0-2.16-.79-2.76-1.596L46.92 10.86c.883 1.67 2.667 2.78 4.94 2.78z" fill="#de2b85"/><path d="M4.782 22.356v-1.02H1.134v-2.243h2.65v-.987h-2.65v-1.813h3.52v-1.02H-.004v7.082h4.786zm7.157.118v-7.2h-1.137v4.775L6.5 15.155h-.397v7.2H7.24V17.56l4.314 4.915h.386zm5.934-.118V19.62h1.298l2.017 2.736h1.298l-2.125-2.92a2.08 2.08 0 0 0 1.003-.773c.24-.35.36-.758.36-1.223 0-.637-.222-1.157-.665-1.56s-1.023-.606-1.738-.606h0-2.586v7.082h1.137zM19.3 18.61h-1.427v-2.33H19.3c.386 0 .692.107.917.322s.338.497.338.848-.113.63-.338.842-.53.317-.917.317h0zm8.992 3.745v-1.02h-3.648v-2.243h2.65v-.987h-2.65v-1.813h3.52v-1.02h-4.657v7.082h4.786zm3.54 0c1.145 0 2.073-.333 2.785-.998s1.068-1.517 1.068-2.554c0-1.052-.354-1.903-1.062-2.554s-1.638-.977-2.8-.977h0-2.22v7.082h2.22zm-.01-1.02H30.75v-5.033h1.073c.823 0 1.477.227 1.964.68s.73 1.06.73 1.82c0 .75-.245 1.36-.735 1.83s-1.143.703-1.958.703h0zm12.2 1.02v-1.234h.966v-.977h-.966v-2.178h-1.137v2.178h-2.114l2.007-4.872H41.6l-2.264 5.537v.31h3.54v1.234h1.137zm5.355.118c.708 0 1.356-.168 1.942-.504s1.04-.79 1.363-1.363h0V18.61H49.37v1.01h2.178v.762c-.465.715-1.17 1.073-2.114 1.073-.758 0-1.382-.252-1.873-.757s-.735-1.136-.735-1.894c0-.75.238-1.374.714-1.867s1.086-.74 1.83-.74c.88 0 1.585.372 2.114 1.116h0l.826-.676c-.708-.987-1.685-1.48-2.93-1.48a3.59 3.59 0 0 0-2.656 1.062 3.39 3.39 0 0 0-1.078 2.597c-.014 1.016.345 1.883 1.078 2.602s1.62 1.07 2.656 1.057z" class="F"/></g></g><g class="C"><g transform="translate(17)"><g transform="translate(77.916)"><g transform="translate(.31)"><path d="M.108 25.264L1.81 19.1C.704 17.173.108 15.044.108 12.83.108 6.102 5.644.566 12.414.566S24.806 6.102 24.806 12.83s-5.622 12.434-12.392 12.434c-2.13 0-4.173-.68-6.004-1.703L.108 25.264z" class="D"/><path d="M6.75 21.346l.383.213c1.576.98 3.407 1.576 5.323 1.576 5.578 0 10.22-4.64 10.22-10.305S18.035 2.695 12.414 2.695 2.238 7.21 2.238 12.83c0 1.96.554 3.875 1.575 5.493l.256.383-.98 3.577 3.662-.937z" fill="#129f5c"/><path d="M9.136 7.124l-.81-.043c-.256 0-.51.085-.68.256-.383.34-1.022.98-1.193 1.83-.298 1.277.17 2.8 1.278 4.343s3.236 4.003 6.983 5.067c1.193.34 2.13.127 2.896-.34a2.51 2.51 0 0 0 1.107-1.619l.128-.596a.43.43 0 0 0-.213-.468L15.95 14.32c-.17-.085-.383-.043-.51.127l-1.064 1.363c-.085.084-.213.127-.34.084-.723-.255-3.15-1.277-4.47-3.832-.042-.128-.042-.256.043-.34l1.022-1.15c.085-.128.127-.298.085-.426L9.476 7.38c-.042-.127-.17-.256-.34-.256" class="D"/></g><g class="F"><path d="M31.23 15.35V3.43H28.8v11.92h2.438zm9.42 0v-2.203h-5.22V3.43h-2.438v11.92h7.657zm3.28 0V3.43h-2.438v11.92h2.438zm4.202 0V8.993l2.998 3.756h.795l2.998-3.756v6.357h2.438V3.215h-.795l-5.04 6.445L46.5 3.215h-.795V15.35h2.438zm13.447 0V3.43h-2.44v11.92h2.438zm6.892 0V5.634h3.83V3.43H62.223v2.203h3.8v9.715h2.438zm4.6 0l.668-1.553h4.876l.668 1.553H81.9L76.6 3.215h-.813L70.452 15.35h2.618zm4.695-3.557h-3.178l1.6-4.027 1.6 4.027zm8.698 3.557c1.878.024 3.437-.536 4.677-1.68s1.848-2.582 1.824-4.316c.024-1.746-.578-3.175-1.806-4.3s-2.793-1.658-4.695-1.634h0-3.9v11.92h3.9zm-.018-2.203H85V5.634h1.445c1.228 0 2.203.33 2.925.993s1.083 1.57 1.083 2.727c0 1.144-.367 2.062-1.102 2.754s-1.703 1.038-2.907 1.038h0zm13.25 2.42c1.722.036 3.217-.56 4.487-1.788s1.893-2.7 1.87-4.388c.024-1.697-.6-3.16-1.87-4.388s-2.766-1.824-4.487-1.788c-1.722-.036-3.2.56-4.47 1.788s-1.875 2.7-1.85 4.388c-.024 1.697.593 3.16 1.85 4.388s2.748 1.824 4.47 1.788zm.018-2.257c-1.108 0-2.023-.367-2.745-1.102s-1.083-1.673-1.083-2.817.36-2.083 1.083-2.817 1.637-1.102 2.745-1.102c1.096 0 2.007.37 2.736 1.1s1.093 1.676 1.093 2.808c0 1.144-.364 2.083-1.093 2.817s-1.64 1.102-2.736 1.102zM28.9 19.584c.2 0 .364-.068.497-.203a.69.69 0 0 0 .199-.501c0-.2-.066-.364-.2-.497s-.298-.2-.497-.2a.69.69 0 0 0-.501.199c-.135.132-.203.298-.203.497a.68.68 0 0 0 .203.506.69.69 0 0 0 .501.199zm.57 4.66l-.18-3.792h-.786l-.18 3.792h1.147zm2.068 0v-5.96h-.957v5.96h.957zm5.87.1v-6.06h-.957V22.3l-3.62-4.117h-.334v6.06h.957v-4.036l3.63 4.135h.325zm3.738 0c.548 0 1.046-.122 1.494-.366s.802-.58 1.06-1.007h0l-.722-.533c-.44.686-1.047 1.03-1.824 1.03a2.06 2.06 0 0 1-1.535-.628c-.41-.418-.614-.944-.614-1.576s.205-1.157.614-1.576.92-.628 1.535-.628c.777 0 1.384.343 1.824 1.03h0l.722-.533a2.8 2.8 0 0 0-1.065-1.002 3.06 3.06 0 0 0-1.5-.37 3.01 3.01 0 0 0-2.22.894 2.85 2.85 0 0 0-.912 2.185c-.018.85.286 1.577.912 2.185s1.366.906 2.22.894zm6.844-.1v-.858h-2.727v-5.1h-.957v5.96h3.684zm2.727.1c.716 0 1.302-.226 1.756-.677s.682-1.062.682-1.833h0v-3.548h-.957v3.612c0 .494-.135.88-.406 1.156s-.63.415-1.074.415c-.45 0-.814-.138-1.088-.415s-.4-.662-.4-1.156h0v-3.612h-.957v3.548c0 .77.227 1.38.682 1.833s1.046.677 1.774.677zm5.86-.1V21.84l2.06-3.557H57.57l-1.48 2.6-1.472-2.6h-1.07l2.06 3.557v2.402h.957zm6.555 0v-.858h-3.07V21.5h2.23v-.83h-2.23v-1.53h2.962v-.858h-3.92v5.96h4.027zm6.24 0v-.858h-2.727v-5.1h-.957v5.96h3.684zm4.108 0v-.858h-2.73v-5.1h-.957v5.96h3.684zm.894 0l.424-.993h2.682l.424.993h1.03l-2.627-6.06h-.325l-2.627 6.06h1.02zm2.763-1.815H75.13l1.002-2.465.993 2.465zm3.16 1.815v-3.747L82 22.744h.325l1.707-2.24v3.738h.957v-6.06h-.325l-2.5 3.332-2.5-3.332h-.334v6.06h.957zm6.13 0l.424-.993h2.682l.424.993h1.03l-2.627-6.06h-.325l-2.627 6.06h1.02zm2.763-1.815h-1.995l1.002-2.465.993 2.465zm4.072 1.815c.963 0 1.744-.28 2.343-.84s.898-1.276.898-2.15c0-.885-.298-1.6-.894-2.15s-1.378-.822-2.348-.822h0-1.87v5.96h1.87zm-.01-.858h-.903V19.15h.903c.692 0 1.243.2 1.652.573s.614.892.614 1.53c0 .632-.206 1.145-.618 1.54s-.962.6-1.648.6h0zm4.17.858l.424-.993h2.682l.424.993h1.03l-2.627-6.06h-.325l-2.627 6.06h1.02zm2.763-1.815H98.18l1.002-2.465.993 2.465zm3.982 1.914c.578 0 1.055-.16 1.43-.48a1.56 1.56 0 0 0 .564-1.246c0-.385-.113-.707-.34-.966s-.588-.503-1.088-.73h0l-.668-.307c-.018-.012-.045-.027-.08-.045l-.352-.18a1.26 1.26 0 0 1-.19-.14.49.49 0 0 1-.167-.217 1.17 1.17 0 0 1-.04-.266c0-.23.084-.406.253-.533s.385-.2.65-.2c.512 0 .93.24 1.255.722h0l.668-.515a2.03 2.03 0 0 0-.8-.777 2.26 2.26 0 0 0-1.133-.289c-.53 0-.975.15-1.336.45s-.542.7-.542 1.165c0 .38.116.697.348.953s.58.5 1.043.7h0l.66.307c.33.157.56.293.686.4s.2.278.2.483c0 .253-.095.454-.284.605s-.438.226-.745.226c-.608 0-1.13-.316-1.562-.948h0l-.677.515a2.58 2.58 0 0 0 .939.948c.4.23.828.343 1.3.343zm3.792-2.13l.172-3.928h-1.138l.18 3.928h.786zm-.388 2.13c.2 0 .364-.066.497-.2s.2-.298.2-.497a.68.68 0 0 0-.2-.506c-.134-.133-.298-.2-.497-.2a.69.69 0 0 0-.501.199c-.135.132-.203.3-.203.506 0 .2.068.364.203.497a.69.69 0 0 0 .501.199z"/></g></g><g class="F"><path d="M73.5 3.426v19.5h-1v-19.5zM.712 20.02l9.595-.02v-2.736H6.43l.893-.93c.963-1.013 1.66-1.9 2.1-2.63a4.48 4.48 0 0 0 .646-2.346A3.78 3.78 0 0 0 8.74 8.41c-.88-.785-1.973-1.178-3.277-1.178-1.343-.025-2.467.402-3.372 1.282S.744 10.392.77 11.507a4.21 4.21 0 0 0 .133 1.064H4.2a4.94 4.94 0 0 1-.076-.836c0-.47.117-.836.35-1.102s.548-.4.94-.4.7.127.95.38.36.602.36 1.045c0 .76-.5 1.685-1.5 2.774h0L.71 19.352v.665zm14.43.2c1.647 0 2.926-.614 3.838-1.843s1.368-2.812 1.368-4.75c0-1.913-.453-3.458-1.358-4.636s-2.2-1.77-3.848-1.77S12.2 7.82 11.294 9s-1.358 2.723-1.358 4.636c0 1.938.456 3.52 1.368 4.75s2.2 1.843 3.838 1.843zm0-3.002c-1.24 0-1.862-1.2-1.862-3.572 0-1.178.152-2.043.456-2.594a1.5 1.5 0 0 1 1.406-.826 1.5 1.5 0 0 1 1.406.826c.304.55.456 1.416.456 2.594 0 2.38-.62 3.572-1.862 3.572zm10.02 3.002c1.647 0 2.926-.614 3.838-1.843s1.368-2.812 1.368-4.75c0-1.913-.453-3.458-1.358-4.636s-2.188-1.767-3.847-1.767S22.22 7.82 21.316 9s-1.358 2.723-1.358 4.636c0 1.938.456 3.52 1.368 4.75s2.2 1.843 3.838 1.843zm0-3.002c-1.24 0-1.862-1.2-1.862-3.572 0-1.178.152-2.043.456-2.594a1.5 1.5 0 0 1 1.406-.826 1.5 1.5 0 0 1 1.406.826c.304.55.456 1.416.456 2.594 0 2.38-.62 3.572-1.862 3.572zm10.02 3.002c1.647 0 2.926-.614 3.838-1.843s1.368-2.812 1.368-4.75c0-1.913-.453-3.458-1.36-4.636S36.84 7.234 35.18 7.234s-2.942.6-3.847 1.767-1.358 2.723-1.358 4.636c0 1.938.456 3.52 1.368 4.75s2.2 1.843 3.838 1.843zm0-3.002c-1.24 0-1.862-1.2-1.862-3.572 0-1.178.152-2.043.456-2.594a1.5 1.5 0 0 1 1.406-.826 1.5 1.5 0 0 1 1.406.826c.304.55.456 1.416.456 2.594 0 2.38-.62 3.572-1.862 3.572zM46.492 20v-7.47l3.42 4.482h.648l3.402-4.464V20h1.908V7.922h-.648l-4.986 6.642-4.986-6.642h-.666V20h1.908zm12.42 0V8.12h-1.908V20h1.908zm10.927.198V8.12H67.93v8l-7.218-8.208h-.666V20h1.908v-8.046l7.236 8.244h.648z"/></g></g><path fill="#e8e8e8" d="M219 32v1H0v-1z"/><path d="M68.44 82v-3.262h1.582c.97 0 1.77-.28 2.394-.84s.938-1.28.938-2.156c0-.887-.313-1.605-.938-2.156s-1.423-.826-2.394-.826h0-3.472V82h1.9zm1.582-4.914H68.44v-2.66h1.582c.42 0 .758.12 1.015.364s.385.56.385.952c0 .4-.124.726-.37.973s-.6.37-1.03.37h0zM76.015 82l.518-1.204h3.78L80.83 82h2.03l-4.116-9.408h-.63L73.985 82h2.03zm3.64-2.758H77.19l1.232-3.122 1.232 3.122zM86.01 82v-3.262h1.386L89.79 82h2.128L89.3 78.374a2.84 2.84 0 0 0 1.197-1.071c.285-.462.427-.982.427-1.56 0-.887-.313-1.605-.938-2.156s-1.423-.826-2.394-.826h0-3.472V82h1.9zm1.582-4.928H86.01v-2.646h1.582c.42 0 .758.12 1.015.364s.385.56.385.952c0 .4-.124.723-.37.966s-.6.364-1.03.364h0zM94.23 82l.518-1.204h3.78L99.045 82h2.03l-4.116-9.408h-.63L92.2 82h2.03zm3.64-2.758h-2.464l1.232-3.122 1.232 3.122zm11.312 2.926c.943 0 1.717-.254 2.324-.763s.9-1.178.9-2.01c0-.616-.182-1.132-.546-1.547s-.943-.8-1.736-1.155h0l-1.05-.462c-.41-.187-.693-.352-.847-.497s-.23-.334-.23-.567c0-.28.107-.5.322-.658s.5-.238.826-.238c.7 0 1.288.355 1.764 1.064h0l1.288-.994a3.35 3.35 0 0 0-1.232-1.281c-.523-.313-1.13-.47-1.82-.47-.887 0-1.62.24-2.198.72s-.868 1.113-.868 1.897c0 1.11.747 1.997 2.24 2.66h0l.994.448c.467.215.78.394.938.54s.238.348.238.61c0 .317-.117.567-.35.75s-.555.273-.966.273c-.86 0-1.615-.448-2.268-1.344h0l-1.302.98c.364.635.856 1.134 1.477 1.498s1.318.546 2.093.546zm6.8-.168v-9.24h-1.9V82h1.9zm8.498 0v-1.708h-4.494v-2.338h3.178v-1.6h-3.178v-1.876h4.326V72.76h-6.216V82h6.384zm3.528 0v-4.928l2.324 2.912h.616l2.324-2.912V82h1.9v-9.408h-.616L130.63 77.6l-3.906-4.998h-.616V82h1.9zm11.172 0v-3.262h1.582c.97 0 1.77-.28 2.394-.84s.938-1.28.938-2.156c0-.887-.313-1.605-.938-2.156s-1.423-.826-2.394-.826h0-3.472V82h1.9zm1.582-4.914h-1.582v-2.66h1.582c.42 0 .758.12 1.015.364s.385.56.385.952c0 .4-.124.726-.37.973s-.6.37-1.03.37h0zM147.485 82v-3.262h1.386L151.265 82h2.128l-2.618-3.626a2.84 2.84 0 0 0 1.197-1.071c.285-.462.427-.982.427-1.56 0-.887-.313-1.605-.938-2.156s-1.423-.826-2.394-.826h0-3.472V82h1.9zm1.582-4.928h-1.582v-2.646h1.582c.42 0 .758.12 1.015.364s.385.56.385.952c0 .4-.124.723-.37.966s-.6.364-1.03.364h0zM160.94 82v-1.708h-4.494v-2.338h3.178v-1.6h-3.178v-1.876h4.326V72.76h-6.216V82h6.384z" class="G"/></g></g><g class="C"><g transform="translate(6 27)"><path d="M32.97 51v-6.174h4.85v-9.072h-4.85V25.548H22.133v10.206h-7.12L25.157 9.42h-11.15L1.595 41.99v2.835h20.538V51H32.97zm20.305.756c5.46 0 9.702-2.037 12.726-6.11s4.536-9.324 4.536-15.75c0-6.342-1.502-11.466-4.505-15.372s-7.255-5.86-12.757-5.86-9.754 1.953-12.757 5.86-4.504 9.03-4.504 15.372c0 6.426 1.512 11.676 4.536 15.75s7.266 6.11 12.726 6.11zm0-9.954c-4.116 0-6.174-3.948-6.174-11.844 0-3.906.504-6.772 1.512-8.6s2.562-2.74 4.662-2.74 3.654.914 4.662 2.74 1.512 4.694 1.512 8.6c0 7.896-2.058 11.844-6.174 11.844z" class="F"/><path d="M93.656 51.565l.45-.001c3.32 0 6.33-.783 9.024-2.35 2.695-1.598 4.763-3.682 6.204-6.25h0v-9.776H94.012v6.956h7.238V41.6c-1.598 1.85-3.87 2.773-6.815 2.773-2.726 0-4.896-.815-6.5-2.444s-2.42-3.776-2.42-6.44c0-2.632.76-4.73 2.28-6.298s3.58-2.35 6.18-2.35c3.196 0 5.812 1.426 7.85 4.277h0l5.64-4.794c-3.102-4.606-7.55-6.91-13.348-6.91-4.67-.063-8.664 1.488-11.985 4.653s-4.95 6.972-4.888 11.42c-.063 4.48 1.567 8.295 4.888 11.444s7.316 4.692 11.985 4.63l-.45.001zM119.913 51V19.98h-8.084V51h8.084zm18.92.565l.45-.001c3.32 0 6.33-.783 9.024-2.35 2.695-1.598 4.763-3.682 6.204-6.25h0v-9.776h-15.322v6.956h7.238V41.6c-1.598 1.85-3.87 2.773-6.815 2.773-2.726 0-4.896-.815-6.51-2.444s-2.42-3.776-2.42-6.44c0-2.632.76-4.73 2.28-6.298s3.58-2.35 6.18-2.35c3.196 0 5.812 1.426 7.85 4.277h0l5.64-4.794c-3.102-4.606-7.55-6.91-13.348-6.91-4.67-.063-8.664 1.488-11.985 4.653s-4.95 6.972-4.888 11.42c-.063 4.48 1.567 8.295 4.888 11.444s7.316 4.692 11.985 4.63l-.45.001zm23.4-.565l1.128-2.585h11.14L175.618 51h8.695l-14.1-31.584h-2.585L153.528 51h8.695zm9.4-9.07h-5.405l2.726-7.19 2.68 7.19zm23.88 9.635c3.3 0 6.008-.877 8.155-2.632s3.22-4.105 3.22-7.05c0-2.162-.635-3.97-1.903-5.428s-3.282-2.765-6.04-3.924h0l-3.572-1.504c-1.003-.407-1.7-.79-2.09-1.15s-.588-.823-.588-1.387c0-1.316.924-1.974 2.773-1.974 1.065 0 2 .258 2.773.775s1.567 1.355 2.35 2.515h0l5.405-4.136c-2.068-4.167-5.61-6.25-10.622-6.25-3.196 0-5.805.846-7.826 2.538s-3.03 3.9-3.03 6.627c0 3.917 2.616 7.034 7.85 9.353h0l3.196 1.4c1.285.564 2.13 1.018 2.538 1.363s.61.846.61 1.504c0 1.504-1.065 2.256-3.196 2.256-1.473 0-2.742-.337-3.807-1.01s-2.1-1.67-3.102-2.984h0l-5.452 4.136c1.128 2.162 2.78 3.862 4.958 5.1s4.645 1.856 7.403 1.856z" fill="#de2b85"/></g><g transform="translate(19 198)"><path d="M53.484 50V9.08h-3.4l-16.74 5.518 2.542 9.424 6.944-2.294V50h10.664zm22.372 0V9.08h-3.4l-16.74 5.518 2.542 9.424 6.944-2.294V50h10.664zm10.406.744c1.984 0 3.627-.66 4.93-1.984s1.953-2.976 1.953-4.96-.65-3.637-1.953-4.96-2.945-1.984-4.93-1.984c-2.067 0-3.76.66-5.084 1.984s-1.984 2.976-1.984 4.96.66 3.637 1.984 4.96 3.017 1.984 5.084 1.984zM107.827 50l10.23-13.702c1.943-2.645 3.348-4.857 4.216-6.634.91-1.777 1.364-3.803 1.364-6.076 0-4.34-1.56-7.967-4.68-10.88s-6.8-4.37-11.067-4.37c-4.133-.083-7.812 1.364-11.036 4.34s-4.795 6.572-4.712 10.788c0 3.76 1.21 6.954 3.627 9.58s5.28 4.164 8.587 4.62h0L95.24 50h12.586zm.062-21.204c-1.447 0-2.676-.496-3.69-1.488s-1.52-2.253-1.52-3.782.506-2.81 1.52-3.844a4.97 4.97 0 0 1 3.689-1.55 4.97 4.97 0 0 1 3.689 1.55c1.013 1.033 1.52 2.315 1.52 3.844 0 1.488-.496 2.738-1.488 3.75s-2.232 1.52-3.72 1.52zM139.81 50l10.23-13.702c1.943-2.645 3.348-4.857 4.216-6.634.91-1.777 1.364-3.803 1.364-6.076 0-4.34-1.56-7.967-4.68-10.88s-6.8-4.37-11.067-4.37c-4.133-.083-7.812 1.364-11.036 4.34s-4.795 6.572-4.712 10.788c0 3.76 1.21 6.954 3.627 9.58s5.28 4.164 8.587 4.62h0L127.223 50h12.586zm.062-21.204c-1.447 0-2.676-.496-3.69-1.488s-1.52-2.253-1.52-3.782.506-2.81 1.52-3.844a4.97 4.97 0 0 1 3.689-1.55 4.97 4.97 0 0 1 3.689 1.55c1.013 1.033 1.52 2.315 1.52 3.844 0 1.488-.496 2.738-1.488 3.75s-2.232 1.52-3.72 1.52zm34.4 21.948c5.373 0 9.548-2.005 12.524-6.014s4.464-9.176 4.464-15.5c0-6.24-1.478-11.284-4.433-15.128s-7.14-5.766-12.555-5.766-9.6 1.922-12.555 5.766-4.433 8.887-4.433 15.128c0 6.324 1.488 11.49 4.464 15.5s7.15 6.014 12.524 6.014zm0-9.796c-4.05 0-6.076-3.885-6.076-11.656 0-3.844.496-6.665 1.488-8.463s2.52-2.697 4.588-2.697 3.596.9 4.588 2.697 1.488 4.62 1.488 8.463c0 7.77-2.025 11.656-6.076 11.656z" fill="#4d008c"/><path d="M10.772 44.492V40.1c3.456-.576 5.976-2.844 5.976-6.3 0-2.988-1.872-5.004-5.472-6.336l-2.7-.936c-1.44-.576-2.412-1.116-2.412-2.268 0-1.368 1.296-1.836 2.592-1.836 1.692 0 2.988.756 4.14 2.448l3.24-2.448c-1.08-2.016-2.808-3.6-5.364-4.104v-4.284H6.524v4.356c-2.988.72-5.112 2.844-5.112 5.832 0 3.06 2.16 5.076 5.364 6.264l2.448.9c1.62.648 2.772 1.224 2.772 2.484 0 1.44-1.368 2.124-3.132 2.124-2.304 0-4.104-1.188-5.436-3.276L.152 35.168c1.332 2.52 3.492 4.248 6.372 4.86v4.464h4.248z" class="G"/><path d="M69.165 68.184a4.09 4.09 0 0 0 1.986-.486 3.66 3.66 0 0 0 1.41-1.338h0l-.96-.708c-.584.912-1.392 1.368-2.424 1.368-.816 0-1.496-.278-2.04-.834s-.816-1.254-.816-2.094.272-1.538.816-2.094 1.224-.834 2.04-.834c1.032 0 1.84.456 2.424 1.368h0l.96-.708c-.344-.56-.816-1.004-1.416-1.332a4.06 4.06 0 0 0-1.98-.492c-1.136-.016-2.12.38-2.952 1.188S64.977 62.964 65 64.092c-.024 1.128.38 2.096 1.212 2.904s1.816 1.204 2.952 1.188zm5.544-.132l.564-1.32h3.564l.564 1.32h1.368L77.277 60h-.432l-3.492 8.052h1.356zm3.672-2.412H75.73l1.332-3.276 1.32 3.276zm4.92 2.412v-3.06h1.452l2.256 3.06h1.452l-2.376-3.264c.48-.184.854-.472 1.122-.864s.402-.848.402-1.368c0-.712-.248-1.294-.744-1.746s-1.144-.678-1.944-.678h0-2.892v7.92H83.3zm1.596-4.188H83.3V61.26h1.596c.432 0 .774.12 1.026.36s.378.556.378.948-.126.706-.378.942-.594.354-1.026.354h0zm8.4 4.32a4.29 4.29 0 0 0 2.172-.564c.656-.376 1.164-.884 1.524-1.524h0v-2.232h-3.708v1.128h2.436v.852c-.52.8-1.308 1.2-2.364 1.2-.848 0-1.546-.282-2.094-.846s-.822-1.27-.822-2.118c0-.84.266-1.536.798-2.088s1.214-.828 2.046-.828c.984 0 1.772.416 2.364 1.248h0l.924-.756C95.78 60.552 94.69 60 93.297 60c-1.152-.016-2.142.38-2.97 1.188s-1.23 1.776-1.206 2.904c-.016 1.136.386 2.106 1.206 2.9a4 4 0 0 0 2.97 1.182zm8.928 0c1.128.016 2.1-.38 2.946-1.188s1.242-1.776 1.218-2.904c.024-1.128-.382-2.096-1.218-2.904s-1.818-1.204-2.946-1.188c-1.136-.016-2.116.38-2.94 1.188a3.84 3.84 0 0 0-1.212 2.904c-.024 1.128.378 2.096 1.206 2.904s1.8 1.204 2.946 1.188zm.012-1.164c-.824 0-1.504-.278-2.04-.834s-.804-1.258-.804-2.106c0-.84.27-1.536.8-2.088s1.218-.828 2.034-.828c.808 0 1.484.278 2.028.834s.816 1.25.816 2.082c0 .84-.272 1.54-.816 2.1s-1.22.84-2.028.84zm10.308 1.032v-3.264h3.144v-1.152h-3.144v-2.364h3.816v-1.14h-5.088v7.92h1.272zm6.348 0v-7.92h-1.272v7.92h1.272zm2.34.132c.712 0 1.262-.178 1.65-.534s.582-.878.582-1.566h0v-5.952h-1.272v5.82c0 .392-.1.668-.3.828s-.512.24-.936.24c-.144 0-.416-.02-.816-.06h0v1.092c.4.088.764.132 1.092.132zm7.896 0c1.128.016 2.1-.38 2.946-1.188s1.242-1.776 1.218-2.904c.024-1.128-.382-2.096-1.218-2.904s-1.818-1.204-2.946-1.188c-1.136-.016-2.116.38-2.94 1.188a3.84 3.84 0 0 0-1.212 2.904c-.024 1.128.378 2.096 1.206 2.904s1.8 1.204 2.946 1.188zm.012-1.164c-.824 0-1.504-.278-2.04-.834s-.804-1.258-.804-2.106c0-.84.27-1.536.8-2.088s1.218-.828 2.034-.828c.808 0 1.484.278 2.028.834s.816 1.25.816 2.082c0 .84-.272 1.54-.816 2.1s-1.22.84-2.028.84zm10.308 1.032v-4.98l2.28 2.988h.432l2.268-2.976v4.968h1.272V60h-.432l-3.324 4.428L138.62 60h-.444v8.052h1.272zm13.596 0v-1.14h-4.08v-2.508h2.964V63.3h-2.964v-2.028h3.936v-1.14h-5.208v7.92h5.352zm8.004.132v-8.052h-1.272v5.34L154.965 60h-.444v8.052h1.272v-5.364l4.824 5.496h.432zm4.428 0c.768 0 1.402-.212 1.902-.636s.75-.976.75-1.656c0-.512-.15-.94-.45-1.284s-.782-.668-1.446-.972h0l-.888-.408c-.024-.016-.06-.036-.108-.06l-.468-.24c-.048-.024-.132-.086-.252-.186s-.194-.196-.222-.288-.046-.2-.054-.354c0-.304.112-.54.336-.708s.512-.252.864-.252c.68 0 1.236.32 1.668.96h0l.888-.684a2.74 2.74 0 0 0-1.05-1.032c-.452-.256-.954-.384-1.506-.384-.704 0-1.296.2-1.776.6a1.92 1.92 0 0 0-.72 1.548c0 .504.154.926.462 1.266s.77.65 1.386.93h0l.876.408c.44.208.744.4.912.546s.252.37.252.642c0 .336-.126.604-.378.804s-.582.3-1 .3c-.808 0-1.5-.42-2.076-1.26h0l-.9.684a3.43 3.43 0 0 0 1.248 1.26c.52.304 1.1.456 1.74.456zm7.464 0c.952 0 1.73-.3 2.334-.9s.906-1.412.906-2.436h0v-4.716h-1.272v4.8c0 .656-.18 1.168-.54 1.536s-.836.552-1.428.552c-.6 0-1.082-.184-1.446-.552s-.546-.88-.546-1.536h0v-4.8h-1.272v4.716c0 1.024.302 1.836.906 2.436s1.4.9 2.358.9zm5.772-.132l.564-1.32h3.564l.564 1.32h1.368L181.28 60h-.432l-3.492 8.052h1.356zm3.672-2.412h-2.652l1.332-3.276 1.32 3.276zm8.544 2.412v-1.14h-3.624v-6.78h-1.272v7.92h4.896z" class="F"/></g><path d="M35.22 11.192V.44h-2.16v6.304L26.932.248h-.704V11h2.16V4.664l6.112 6.528h.72zm6.082 0c1.3 0 2.373-.416 3.216-1.248s1.264-1.936 1.264-3.312h0V.44h-2.16v6.352c0 .757-.21 1.347-.632 1.768s-.984.632-1.688.632c-.693 0-1.253-.21-1.68-.632s-.64-1.01-.64-1.768h0V.44h-2.16v6.192c0 1.376.42 2.48 1.256 3.312s1.912 1.248 3.224 1.248zM54.695 11V9.048H49.56V6.376h3.632v-1.84H49.56V2.392h4.944V.44H47.4V11h7.296zm5.586.192L64.985.44h-2.432l-2.624 6.4-2.64-6.4H54.84l4.72 10.752h.72zm10.38-.001c1.407-.036 2.637-.563 3.692-1.583C75.48 8.52 76.032 7.224 76 5.72c.02-1.504-.53-2.8-1.656-3.888S71.904.216 70.378.248c-1.525-.032-2.845.496-3.96 1.584s-1.66 2.384-1.64 3.888c-.02 1.504.525 2.8 1.64 3.888s2.435 1.616 3.96 1.584l.284-.001zm-.268-2c-.98 0-1.792-.325-2.432-.976s-.96-1.483-.96-2.496.32-1.845.96-2.496 1.45-.976 2.432-.976c.97 0 1.78.328 2.424.984s.968 1.485.968 2.488c0 1.013-.323 1.845-.968 2.496s-1.453.976-2.424.976zM82.366 11V6.584h2.464c1.013 0 1.83-.288 2.448-.864s.928-1.317.928-2.224c0-.896-.31-1.63-.928-2.2S85.843.44 84.83.44h0-3.712V11h1.248zm2.432-5.536h-2.432V1.56h2.432c.66 0 1.18.18 1.552.536s.56.83.56 1.416c0 .597-.187 1.072-.56 1.424s-.89.528-1.552.528h0zM95.823 11V9.88h-5.008V.44h-1.248V11h6.256zm1.474 0l.896-2.144h5.184l.896 2.144h1.328L101.025.264h-.464L95.985 11h1.312zm5.6-3.264h-4.224l2.112-5.2 2.112 5.2zm12.354 3.44V.44h-1.248v7.936l-6.72-8.112h-.448V11h1.248V3.08l6.72 8.096h.448z" class="F"/></g></g></g></g></svg>