<svg width="240" height="384" xmlns="http://www.w3.org/2000/svg" xmlns:xlink="http://www.w3.org/1999/xlink"><defs><path id="a" d="M0 26.872h87.722V0H0z"/><path id="c" d="M0 26.872h87.722V0H0z"/><path id="e" d="M0 26.872h87.722V0H0z"/><path id="g" d="M0 26.872h87.722V0H0z"/><path id="i" d="M0 26.872h87.722V0H0z"/><path id="k" d="M0 26.872h87.722V0H0z"/><path id="m" d="M0 26.872h87.722V0H0z"/><path id="o" d="M0 .699h20.78V22.03H0z"/><path id="q" d="M0 .703h20.78v21.454H0z"/><path id="t" d="M0 .684h20.78v20.905H0z"/><linearGradient x1="50%" y1="86.969%" x2="50%" y2="-4.765%" id="s"><stop stop-color="#FCDE87" offset="0%"/><stop stop-color="#F5B444" offset="21%"/><stop stop-color="#E14D75" offset="38%"/><stop stop-color="#DE3A8D" offset="52%"/><stop stop-color="#804492" offset="74%"/><stop stop-color="#514F99" offset="100%"/></linearGradient></defs><g fill="none" fill-rule="evenodd"><path stroke="#7C6C8A" stroke-linecap="square" d="M8 337.728h224"/><path d="M232.496 341.99l.004 49.756V25.151c0-4.085-3.227-7.412-7.257-7.541l-.243-.004h-17V16.6h17c4.61 0 8.361 3.69 8.496 8.294l.004.257v366.595M28 16.6v1.006H16c-4.06 0-7.368 3.247-7.496 7.3l-.004.245v283.444h-1V25.151c0-4.637 3.668-8.412 8.245-8.548L16 16.6h12zm165 0v1.006h-62V16.6h62z" fill="#DB167A" fill-rule="nonzero"/><path d="M.08 315.96a1.01 1.01 0 01.064-1.422.996.996 0 011.322-.024l.09.087 5.64 6.204 5.772-5.998a.996.996 0 011.319-.106l.095.083c.366.356.403.926.105 1.326l-.082.096-7.248 7.533-7.076-7.78zM204.15 9.33a.996.996 0 011.413.038c.35.373.363.944.048 1.33l-.086.093-6.067 5.782 6.062 5.7c.372.35.42.92.127 1.325l-.08.097a.996.996 0 01-1.316.129l-.097-.08-7.613-7.16 7.608-7.254z" fill="#D7007B" fill-rule="nonzero"/><path d="M233 340.746v29.463c0 3.175-3.582 5.749-8 5.749H16c-4.418 0-8-2.574-8-5.75v-39.522" stroke="#D81A7B"/><g transform="translate(21 344)"><mask id="b" fill="#fff"><use xlink:href="#a"/></mask><path d="M84.403 17.728l-2.598.984-.163-.39c1.14-.52 2.277-1.052 3.426-1.552.141-.06.463-.018.514.077.6 1.115 1.164 2.248 1.737 3.376l-.424.209c-.436-.787-.87-1.574-1.406-2.54-.453.807-.792 1.423-1.144 2.03-2.534 4.377-6.398 6.594-11.393 6.607-19.415.053-38.831.064-58.247.003-6.827-.022-12.118-4.923-12.89-11.647a1.367 1.367 0 01.216-.964c.344 1.274.588 2.584 1.052 3.813 1.73 4.589 4.991 7.37 9.902 8.07 1.116.159 2.255.233 3.383.233 18.735.016 37.469.028 56.204.001 5.015-.006 8.864-2.18 11.414-6.54.275-.471.456-.997.68-1.497l-.263-.273z" stroke="#7C6C8A" mask="url(#b)"/></g><g transform="translate(21 344)"><mask id="d" fill="#fff"><use xlink:href="#c"/></mask><path stroke="#FFF" fill="#FFF" fill-rule="nonzero" mask="url(#d)" d="M84.607 17.279h1v1h-1z"/></g><g transform="translate(21 344)"><mask id="f" fill="#fff"><use xlink:href="#e"/></mask><path d="M85.558 13.031c-.102-.518-.237-1.031-.302-1.554-.62-4.988-4.551-9.277-9.533-10.305a16.835 16.835 0 00-3.366-.366C53.322.786 34.287.795 15.252.797c-4.788 0-8.553 1.93-11.169 5.974-.418.646-.759 1.473-1.104 2.166.016.019.09-.055.105-.037l.188.225L5.9 8.083l.167.41-3.887 1.83C1.543 8.975.967 7.752.392 6.528l.415-.214 1.396 2.64c.242-.377.415-.592.531-.835C5.17 3.091 9.144.341 14.762.328 34.212.283 53.665.297 73.115.316c6.914.006 12.455 5.362 12.811 12.3.006.126-.064.256-.098.384l-.27.031z" stroke="#7C6C8A" mask="url(#f)"/></g><g transform="translate(21 344)"><mask id="h" fill="#fff"><use xlink:href="#g"/></mask><path stroke="#7C6C8A" stroke-width="2" fill="#7C6C8A" fill-rule="nonzero" mask="url(#h)" d="M2.98 8.937l-.597.596h-.596.596v.596"/></g><g transform="translate(21 344)"><mask id="j" fill="#fff"><use xlink:href="#i"/></mask><path d="M84.403 17.728l-2.598.984-.163-.39c1.14-.52 2.277-1.052 3.426-1.552.141-.06.463-.018.514.077.6 1.115 1.164 2.248 1.737 3.376l-.424.209c-.436-.787-.87-1.574-1.406-2.54-.453.807-.792 1.423-1.144 2.03-2.534 4.377-6.398 6.594-11.393 6.607-19.415.053-38.831.064-58.247.003-6.827-.022-12.118-4.923-12.89-11.647a1.367 1.367 0 01.216-.964c.344 1.274.588 2.584 1.052 3.813 1.73 4.589 4.991 7.37 9.902 8.07 1.116.159 2.255.233 3.383.233 18.735.016 37.469.028 56.204.001 5.015-.006 8.864-2.18 11.414-6.54.275-.471.456-.997.68-1.497l-.263-.273z" stroke="#7C6C8A" mask="url(#j)"/></g><g transform="translate(21 344)"><mask id="l" fill="#fff"><use xlink:href="#k"/></mask><path d="M85.558 13.031c-.102-.518-.237-1.031-.302-1.554-.62-4.988-4.551-9.277-9.533-10.305a16.835 16.835 0 00-3.366-.366C53.322.786 34.287.795 15.252.797c-4.788 0-8.553 1.93-11.169 5.974-.418.646-.759 1.473-1.104 2.166.016.019.09-.055.105-.037l.188.225L5.9 8.083l.167.41-3.887 1.83C1.543 8.975.967 7.752.392 6.528l.415-.214 1.396 2.64c.242-.377.415-.592.531-.835C5.17 3.091 9.144.341 14.762.328 34.212.283 53.665.297 73.115.316c6.914.006 12.455 5.362 12.811 12.3.006.126-.064.256-.098.384l-.27.031z" stroke="#7C6C8A" mask="url(#l)"/></g><g transform="translate(21 344)"><mask id="n" fill="#fff"><use xlink:href="#m"/></mask><path stroke="#FFF" stroke-width="2" fill="#FFF" fill-rule="nonzero" mask="url(#n)" d="M2.98 8.937l-.597.596h-.596.596v.596"/></g><path d="M38.947 365.276c1.625 0 3.097-.383 4.416-1.15 1.319-.782 2.33-1.802 3.036-3.059v-4.784h-7.498v3.404h3.542v.713c-.782.905-1.894 1.357-3.335 1.357-1.334 0-2.396-.399-3.186-1.196-.79-.797-1.184-1.848-1.184-3.151 0-1.288.372-2.315 1.116-3.082.743-.767 1.751-1.15 3.024-1.15 1.564 0 2.844.698 3.841 2.093l2.76-2.346c-1.518-2.254-3.695-3.381-6.532-3.381-2.285-.03-4.24.728-5.865 2.277-1.625 1.549-2.423 3.412-2.392 5.589-.03 2.193.767 4.06 2.392 5.6 1.625 1.542 3.58 2.297 5.865 2.266zM52.609 365v-15.18h-3.956V365h3.956zm10.511.276c1.625 0 3.097-.383 4.416-1.15 1.319-.782 2.33-1.802 3.036-3.059v-4.784h-7.498v3.404h3.542v.713c-.782.905-1.894 1.357-3.335 1.357-1.334 0-2.396-.399-3.185-1.196-.79-.797-1.185-1.848-1.185-3.151 0-1.288.372-2.315 1.115-3.082.744-.767 1.752-1.15 3.025-1.15 1.564 0 2.844.698 3.841 2.093l2.76-2.346c-1.518-2.254-3.695-3.381-6.532-3.381-2.285-.03-4.24.728-5.865 2.277-1.625 1.549-2.423 3.412-2.392 5.589-.03 2.193.767 4.06 2.392 5.6 1.625 1.542 3.58 2.297 5.865 2.266zM75.379 365l.552-1.265h5.451l.552 1.265h4.255l-6.9-15.456h-1.265L71.124 365h4.255zm4.6-4.439h-2.645l1.334-3.519 1.311 3.519zm12.719 4.715c1.61 0 2.94-.43 3.99-1.288 1.05-.859 1.576-2.009 1.576-3.45 0-1.058-.31-1.943-.931-2.656-.621-.713-1.607-1.354-2.956-1.921l-1.748-.736c-.49-.2-.832-.387-1.023-.563a.88.88 0 01-.288-.679c0-.644.452-.966 1.357-.966.521 0 .974.127 1.357.38s.767.663 1.15 1.23l2.645-2.024c-1.012-2.04-2.745-3.059-5.198-3.059-1.564 0-2.84.414-3.83 1.242-.988.828-1.483 1.909-1.483 3.243 0 1.917 1.28 3.442 3.841 4.577l1.564.69c.629.276 1.043.498 1.242.667.2.169.299.414.299.736 0 .736-.521 1.104-1.564 1.104-.72 0-1.342-.165-1.863-.494-.521-.33-1.027-.817-1.518-1.461l-2.668 2.024a6.035 6.035 0 002.427 2.496c1.065.605 2.273.908 3.622.908zM117.023 354.983c.731 0 1.332-.197 1.802-.591.47-.394.705-.914.705-1.558 0-.477-.14-.877-.423-1.199-.282-.322-.73-.62-1.346-.895l-.814-.358c-.318-.145-.537-.273-.656-.386a.575.575 0 01-.18-.44c0-.216.084-.386.25-.51.167-.122.38-.184.64-.184.543 0 .999.275 1.368.825l.998-.77c-.231-.42-.55-.751-.955-.994-.405-.242-.875-.363-1.41-.363-.688 0-1.256.186-1.704.559-.449.372-.673.863-.673 1.47 0 .861.579 1.549 1.736 2.062l.77.348c.363.166.605.305.728.418.123.112.184.27.184.472 0 .246-.09.44-.27.58-.182.141-.431.212-.75.212-.665 0-1.252-.347-1.758-1.042l-1.01.76c.283.492.665.879 1.146 1.161a3.147 3.147 0 001.622.423zm8.544-.13v-1.324h-3.484v-1.812h2.464v-1.249h-2.464v-1.454h3.354v-1.324h-4.819v7.163h4.95zm4.25 0l.4-.933h2.931l.402.933h1.574l-3.191-7.293h-.489l-3.201 7.293h1.573zm2.821-2.138h-1.91l.955-2.42.955 2.42zm6.493 2.268c.687 0 1.31-.157 1.867-.472.557-.314.991-.75 1.302-1.308l-1.107-.781c-.514.803-1.197 1.205-2.051 1.205-.666 0-1.217-.22-1.655-.662-.438-.442-.657-1.002-.657-1.683 0-.68.22-1.244.657-1.693.438-.448.99-.673 1.655-.673.854 0 1.537.402 2.051 1.205l1.107-.781a3.44 3.44 0 00-1.308-1.308 3.677 3.677 0 00-1.85-.472c-1.042-.022-1.943.334-2.703 1.069-.76.734-1.132 1.615-1.117 2.643-.022 1.027.345 1.908 1.101 2.642.756.735 1.659 1.091 2.708 1.07zm7.188 0c.882 0 1.61-.282 2.181-.846.572-.565.857-1.313.857-2.247v-4.2h-1.465V352c0 .513-.143.913-.428 1.199-.286.286-.668.429-1.145.429-.47 0-.85-.143-1.14-.429-.29-.286-.434-.686-.434-1.2v-4.308h-1.465v4.2c0 .934.284 1.682.852 2.247.568.564 1.297.846 2.187.846zm5.885-.13v-3.82l1.801 2.257h.478l1.801-2.257v3.82h1.466v-7.293h-.478l-3.028 3.874-3.028-3.874h-.477v7.293h1.465zm9.966.13c.882 0 1.61-.282 2.181-.846.572-.565.857-1.313.857-2.247v-4.2h-1.465V352c0 .513-.143.913-.428 1.199-.286.286-.668.429-1.145.429-.47 0-.85-.143-1.14-.429-.29-.286-.434-.686-.434-1.2v-4.308h-1.465v4.2c0 .934.284 1.682.852 2.247.568.564 1.297.846 2.187.846zm9.021-.13v-1.324h-3.136v-5.839h-1.465v7.163h4.601zm1.772 0l.402-.933h2.93l.402.933h1.573l-3.19-7.293h-.489l-3.202 7.293h1.574zm2.822-2.138h-1.91l.955-2.42.955 2.42zm9.358 2.268v-7.293h-1.465v4.276l-4.157-4.406h-.477v7.293h1.465v-4.298l4.146 4.428h.488zm5.736-.13v-2.529h1.226c.753 0 1.371-.217 1.856-.65.485-.435.727-.992.727-1.672 0-.688-.242-1.245-.727-1.672-.485-.426-1.103-.64-1.856-.64h-2.691v7.163h1.465zm1.226-3.81h-1.226v-2.061h1.226c.326 0 .588.094.787.282.2.188.299.434.299.738 0 .31-.096.562-.288.754-.192.192-.458.288-.798.288zm3.574 3.81l.401-.933h2.93l.402.933h1.574l-3.191-7.293h-.488l-3.202 7.293h1.574zm2.822-2.138h-1.91l.954-2.42.956 2.42zm4.723 2.138v-2.529h1.075l1.856 2.53h1.65l-2.03-2.812a2.202 2.202 0 001.259-2.04c0-.688-.243-1.245-.727-1.672-.485-.426-1.104-.64-1.856-.64h-2.692v7.163h1.465zm1.227-3.82h-1.227v-2.051h1.227c.325 0 .588.094.787.282.199.188.298.434.298.738 0 .31-.096.56-.288.749-.191.188-.457.282-.797.282zm4.94 3.82l.402-.933h2.93l.402.933h1.574l-3.191-7.293h-.488l-3.202 7.293h1.574zm2.822-2.138h-1.91l.955-2.42.955 2.42zm-91.787 14.348v-1.49h-3.92v-2.039h2.772v-1.404h-2.772v-1.636h3.773v-1.49h-5.421v8.059h5.568zm6.402 0v-1.49h-3.529v-6.569h-1.648v8.059h5.177zm5.27 0v-4.298l2.027 2.54h.537l2.027-2.54v4.298h1.648v-8.205h-.537l-3.406 4.359-3.407-4.359h-.537v8.205h1.648zm13.46 0v-1.49h-3.92v-2.039h2.772v-1.404h-2.772v-1.636h3.773v-1.49h-5.421v8.059h5.567zm3.776.146c.823 0 1.498-.221 2.027-.665.53-.444.794-1.028.794-1.752 0-.537-.159-.987-.476-1.35-.318-.361-.822-.697-1.514-1.007l-.916-.402c-.358-.163-.604-.308-.739-.434a.647.647 0 01-.201-.494c0-.245.093-.436.28-.574.188-.139.428-.208.721-.208.61 0 1.123.31 1.538.928l1.124-.867a2.922 2.922 0 00-1.075-1.117c-.456-.273-.985-.409-1.587-.409-.773 0-1.412.21-1.917.629-.505.419-.757.97-.757 1.654 0 .969.651 1.742 1.954 2.32l.866.39c.407.188.68.345.819.47.138.127.207.304.207.532a.783.783 0 01-.305.653c-.204.159-.484.238-.843.238-.748 0-1.408-.39-1.978-1.172l-1.135.855c.317.553.747.989 1.288 1.306a3.54 3.54 0 001.825.476zm9.837 0c.823 0 1.498-.221 2.027-.665.53-.444.794-1.028.794-1.752 0-.537-.159-.987-.476-1.35-.318-.361-.822-.697-1.514-1.007l-.916-.402c-.358-.163-.604-.308-.739-.434a.647.647 0 01-.201-.494c0-.245.093-.436.28-.574.188-.139.428-.208.721-.208.61 0 1.123.31 1.538.928l1.124-.867a2.922 2.922 0 00-1.075-1.117c-.456-.273-.985-.409-1.587-.409-.773 0-1.412.21-1.917.629-.505.419-.757.97-.757 1.654 0 .969.651 1.742 1.954 2.32l.867.39c.407.188.68.345.818.47.138.127.207.304.207.532a.783.783 0 01-.305.653c-.204.159-.484.238-.843.238-.748 0-1.408-.39-1.978-1.172l-1.135.855c.317.553.747.989 1.288 1.306a3.54 3.54 0 001.825.476zm5.719-.146v-8.059h-1.649v8.059h1.649zm5.486.146c.846 0 1.603-.199 2.271-.598a4.27 4.27 0 001.575-1.587v-2.381h-3.87v1.429h2.222v.659c-.48.667-1.189 1.001-2.125 1.001-.798 0-1.445-.252-1.941-.757-.497-.505-.745-1.152-.745-1.941 0-.774.24-1.408.72-1.905.48-.497 1.103-.745 1.869-.745.927 0 1.676.395 2.246 1.185l1.172-.965c-.822-1.164-1.953-1.746-3.394-1.746-1.197-.016-2.22.387-3.07 1.209-.851.822-1.265 1.81-1.24 2.967-.016 1.156.403 2.147 1.257 2.973.855.826 1.873 1.227 3.053 1.202zm8.417 0c.993 0 1.81-.317 2.454-.952.643-.635.964-1.477.964-2.527v-4.726h-1.648v4.848c0 .578-.16 1.027-.482 1.349-.322.321-.751.482-1.288.482-.53 0-.957-.16-1.282-.482-.326-.322-.489-.771-.489-1.35v-4.847h-1.648v4.726c0 1.05.32 1.892.958 2.527.64.635 1.46.952 2.46.952zm6.646-.146v-8.059h-1.649v8.059h1.649zm7.208 0v-1.49h-3.92v-2.039h2.772v-1.404h-2.772v-1.636h3.773v-1.49h-5.421v8.059h5.568zm8.087.146v-8.205h-1.649v4.811l-4.676-4.957h-.537v8.205h1.648v-4.835l4.664 4.981h.55zm5.107-.146v-6.569h2.589v-1.49h-6.813v1.49h2.576v6.569h1.648zm9.04 0v-1.49h-3.92v-2.039h2.772v-1.404h-2.772v-1.636h3.773v-1.49h-5.421v8.059h5.568z" fill="#7C6C8A" fill-rule="nonzero"/><g><g transform="translate(99.327 162.016)"><mask id="p" fill="#fff"><use xlink:href="#o"/></mask><path d="M20.78 11.365c0 5.89-4.652 10.665-10.39 10.665C4.65 22.03 0 17.255 0 11.365 0 5.475 4.651.7 10.39.7c5.738 0 10.39 4.775 10.39 10.666" fill="#0F5CA5" fill-rule="nonzero" mask="url(#p)"/></g><path d="M112.012 169.354l1.347-.003v-2.244a17.779 17.779 0 00-1.961-.101c-1.943-.003-3.271 1.167-3.271 3.317v1.854l-2.197-.004v2.515l2.197.003v6.448l2.626.003v-6.451l2.19.002.328-2.511-2.518-.003v-1.603c0-.73.203-1.223 1.259-1.222" fill="#FEFEFE" fill-rule="nonzero"/><g transform="translate(123.471 162.016)"><mask id="r" fill="#fff"><use xlink:href="#q"/></mask><path d="M20.78 11.43c0 5.924-4.652 10.727-10.389 10.727-5.738 0-10.39-4.803-10.39-10.727S4.652.703 10.39.703c5.737 0 10.39 4.803 10.39 10.727" fill="#0098D3" fill-rule="nonzero" mask="url(#r)"/></g><path d="M138.914 171.572c-.095 3.59-2.9 6.084-7.154 6.235-1.743.08-3-.39-4.162-.937 1.256.157 2.906-.233 3.774-.858-1.256-.078-2.03-.622-2.419-1.484.389.08.775 0 1.064 0-1.163-.312-1.932-.858-2.031-2.108.294.156.674.237 1.062.237-.869-.393-1.45-1.878-.768-2.814 1.255 1.095 2.799 2.035 5.316 2.193-.675-2.188 3-3.355 4.45-1.871.675-.076 1.161-.311 1.642-.463-.193.544-.58.857-1.062 1.168.482-.079.968-.154 1.354-.31-.1.388-.58.7-1.066 1.012" fill="#FEFEFE" fill-rule="nonzero"/><g transform="translate(51.038 162.917)" fill-rule="nonzero"><ellipse fill="url(#s)" cx="10.284" cy="10.36" rx="10.284" ry="10.36"/><path d="M13.049 4.144h-5.53a3.347 3.347 0 00-2.398.992 3.48 3.48 0 00-1.008 2.43v5.576c.014 1.906 1.537 3.441 3.406 3.434h5.53a3.347 3.347 0 002.402-.996c.639-.644 1-1.522 1.003-2.438V7.578c-.014-1.905-1.536-3.44-3.405-3.434zm2.311 9.01a2.368 2.368 0 01-.682 1.655 2.277 2.277 0 01-1.63.677h-5.53a2.277 2.277 0 01-1.629-.677 2.368 2.368 0 01-.682-1.655V7.566a2.368 2.368 0 01.682-1.654 2.277 2.277 0 011.63-.678h5.53c.612-.003 1.2.242 1.633.682.434.44.678 1.038.678 1.662v5.576z" fill="#FFF"/><path d="M10.25 7.46c-1.586.018-2.858 1.325-2.846 2.923a2.89 2.89 0 002.89 2.878 2.89 2.89 0 002.87-2.9 2.923 2.923 0 00-.86-2.06 2.88 2.88 0 00-2.054-.842m0 4.805a1.897 1.897 0 01-1.867-1.919 1.896 1.896 0 011.897-1.888 1.896 1.896 0 011.882 1.903 1.922 1.922 0 01-.565 1.35 1.894 1.894 0 01-1.347.554M13.992 5.802a.823.823 0 00-.587.247.826.826 0 001.162 1.169.826.826 0 000-1.17.823.823 0 00-.588-.246" fill="#FFF"/></g><g><g transform="translate(75.183 162.917)"><mask id="u" fill="#fff"><use xlink:href="#t"/></mask><path d="M20.781 11.136c0 5.773-4.652 10.453-10.39 10.453S.001 16.91.001 11.136C0 5.364 4.652.684 10.39.684s10.39 4.68 10.39 10.452" fill="#FFE91B" fill-rule="nonzero" mask="url(#u)"/></g><g fill-rule="nonzero"><path d="M80.345 176.513c.362-.059.696-.207.987-.414.252-.164.488-.387.696-.654.363-.444.543-.876.572-.95v-.014c.097-.194.11-.372.054-.505-.11-.269-.445-.387-.68-.462l-.042-.015a.865.865 0 01-.112-.045 1.175 1.175 0 01-.362-.223c-.111-.104-.126-.208-.111-.267a.353.353 0 01.166-.223c.126-.074.293-.104.39-.044.32.163.585.208.78.105a.166.166 0 00.083-.149c0-.09-.014-.178-.014-.267v-.015c-.041-.773-.098-1.738.125-2.287.168-.387.376-.712.641-.98.222-.223.473-.401.765-.534.5-.237.96-.266 1.197-.265h.208a2.802 2.802 0 011.962.803c.264.269.487.595.64.982.237.55.168 1.516.126 2.274v.044c0 .06-.014.103-.014.163v.074c0 .06.028.12.083.15a.43.43 0 00.194.043h.028c.154-.014.32-.059.502-.147.07-.03.14-.03.166-.03.07 0 .126.015.195.046.153.059.266.178.266.297 0 .044-.015.118-.1.207-.082.09-.208.165-.387.252a.232.232 0 01-.099.031l-.041.014c-.223.073-.571.192-.682.46-.056.134-.042.312.057.519 0 .015 0 .015.012.031.126.297.822 1.754 2.255 2.008.055.014.097.06.097.134 0 .029-.014.06-.014.074-.04.09-.139.178-.306.266-.222.119-.57.209-1.03.281a.224.224 0 00-.11.09c-.029.045-.042.148-.07.282l-.014.075c-.015.06-.029.133-.042.193-.028.074-.069.119-.153.119-.042 0-.111 0-.223-.032-.154-.028-.348-.073-.598-.074-.152 0-.292.014-.43.044-.294.06-.558.237-.836.446-.377.28-.794.607-1.434.606h-.126c-.638-.001-1.057-.328-1.447-.611-.263-.192-.515-.387-.82-.447a2.128 2.128 0 00-.432-.045c-.25 0-.445.044-.585.074h-.012a1.14 1.14 0 01-.223.03c-.083 0-.14-.03-.168-.12a.885.885 0 01-.097-.253l-.014-.045c-.028-.119-.041-.222-.084-.282a.104.104 0 00-.096-.074 4.364 4.364 0 01-1.044-.284c-.153-.074-.265-.163-.307-.253-.014-.029-.014-.059-.014-.074v-.028c.056-.06.084-.09.126-.105" fill="#FEFEFE"/><path d="M85.688 168.609h-.21c-.34-.002-.7.062-1.07.237a2.285 2.285 0 00-.676.472 2.822 2.822 0 00-.576.88c-.102.25-.144.641-.14 1.184l.006.322.046.95a.47.47 0 01-.245.417c-.295.156-.649.105-1.078-.115.01.006.002.01-.014.017l-.06.027-.01.008.016.014c.027.029.091.07.197.123l.122.055.068.024c.464.148.732.3.867.632.083.195.075.422-.012.649l-.035.075-.003.025a3.895 3.895 0 01-.493.87l-.123.158c-.23.295-.49.54-.76.714a2.74 2.74 0 01-.722.37l-.04.01.07.029c.162.06.355.113.56.157l.21.04c.176 0 .33.118.342.2.043.06.067.117.088.197l.04.173.038.137.024.06.15-.023-.05.007.115-.024c.183-.037.348-.056.533-.056.163 0 .338.017.49.05.228.045.415.134.657.297l.42.302c.394.284.66.417.988.447l.145.006h.125c.348 0 .613-.098.96-.333l.294-.213c.392-.294.646-.437.952-.499a2.314 2.314 0 01.834-.027l.338.062.03.006.012-.05.05-.258a.597.597 0 01.073-.204c.062-.1.154-.171.32-.229.383-.06.666-.13.852-.21l.061-.03-.079-.022a3.091 3.091 0 01-1.231-.817l-.15-.166c-.316-.372-.545-.768-.644-1.03l-.022-.03-.035-.067-.007-.026-.034-.082a.931.931 0 01-.046-.55l.033-.1c.122-.295.336-.441.716-.58l.15-.052.135-.029h-.033c.133-.065.216-.114.268-.157l.022-.023-.06-.026a.214.214 0 00-.051-.018l-.056-.002a1.765 1.765 0 01-.468.156l-.165.022h-.028a.732.732 0 01-.336-.08.463.463 0 01-.235-.333l-.007-.084.002-.133.011-.104v-.06l.036-.692.003-.103c.018-.631-.023-1.07-.143-1.35a2.607 2.607 0 00-.573-.88 2.312 2.312 0 00-.681-.475 2.432 2.432 0 00-.896-.234l-.172-.005zm5.561 8.051l-.007.079-.013.05.005-.05-.025.12a.807.807 0 01-.318.339l-.122.07c-.21.113-.498.2-.846.262l-.18.028-.077.383-.023.092c-.074.188-.22.31-.434.31a.936.936 0 01-.278-.036l-.134-.026a2.163 2.163 0 00-.409-.044c-.13 0-.249.013-.372.04-.17.033-.335.118-.584.295l-.274.202c-.464.341-.828.519-1.292.553l-.178.007h-.126c-.492-.001-.852-.139-1.307-.444l-.445-.319c-.255-.185-.407-.268-.577-.302a1.828 1.828 0 00-.644-.018l-.31.054.05-.007c-.107.023-.2.037-.286.037-.216 0-.388-.116-.433-.28a1.307 1.307 0 01-.104-.242l-.016-.065-.02-.065-.032-.143-.122-.022a4.703 4.703 0 01-.752-.208l-.153-.063a1.022 1.022 0 01-.394-.301l-.055-.093-.01-.024a.416.416 0 01-.032-.122l-.002-.09.08-.207a.67.67 0 01.18-.155l.066-.028.1.282-.047-.296c.243-.04.478-.127.704-.26l.168-.11a2.61 2.61 0 00.626-.591c.215-.264.377-.538.473-.75l.05-.118.013-.04a.398.398 0 00.053-.218l-.009-.035c-.037-.09-.155-.168-.381-.25l-.268-.095-.029-.014c-.205-.092-.357-.185-.444-.278-.174-.163-.246-.377-.202-.546a.66.66 0 01.311-.43c.19-.11.418-.153.594-.091l.083.04c.18.09.316.13.41.127l.01-.001-.008-.121-.035-.823c-.019-.735.026-1.257.185-1.647.185-.428.416-.782.705-1.074.251-.252.533-.449.85-.593.39-.186.775-.27 1.142-.29l.182-.004h.208c.424 0 .87.08 1.322.296.321.148.601.344.854.597.304.308.544.672.703 1.075.144.335.197.774.193 1.37l-.008.338-.035.687-.002.103-.008.064.068-.009c.064-.013.132-.032.204-.061l.113-.05a.672.672 0 01.283-.054c.113 0 .209.024.303.066.261.1.46.319.46.58a.602.602 0 01-.18.415c-.088.095-.195.17-.344.25l-.119.06a.51.51 0 01-.145.059l-.047.01c-.304.1-.455.185-.498.288-.016.04-.013.106.02.198l.03.073.005.02.013.023c.095.222.241.487.435.748l.154.194c.402.471.881.787 1.46.89a.43.43 0 01.327.429z" fill="#1F140F"/></g></g><g fill-rule="nonzero"><path d="M26.096 184.47l1.502-5.487a11.128 11.128 0 01-1.502-5.564c0-5.98 4.883-10.9 10.856-10.9s10.933 4.92 10.933 10.9-4.96 11.052-10.933 11.052c-1.878 0-3.68-.606-5.297-1.514l-5.56 1.514z" fill="#FEFEFE"/><path d="M31.956 180.989l.338.189c1.39.87 3.006 1.4 4.696 1.4 4.921 0 9.016-4.125 9.016-9.159 0-5.033-4.095-9.007-9.054-9.007-4.959 0-8.978 4.011-8.978 9.007 0 1.741.489 3.445 1.39 4.883l.225.34-.864 3.18 3.231-.833z" fill="#129F5C"/><path d="M34.06 168.348l-.714-.038a.849.849 0 00-.601.227c-.338.303-.902.871-1.052 1.628-.263 1.135.15 2.498 1.127 3.86.977 1.362 2.855 3.558 6.16 4.504 1.053.303 1.88.113 2.556-.303.526-.34.864-.87.976-1.438l.114-.53a.382.382 0 00-.189-.416l-2.366-1.098a.357.357 0 00-.451.114l-.94 1.211a.292.292 0 01-.3.075c-.638-.226-2.78-1.135-3.945-3.406-.037-.113-.037-.227.038-.303l.902-1.021c.075-.114.112-.265.075-.379l-1.09-2.46a.327.327 0 00-.3-.227" fill="#FEFEFE"/></g><g fill-rule="nonzero"><path d="M163.471 174.628v-2.932h-5.127v-9.554h-3.23v12.486h8.357zm4.286 0v-12.486h-3.23v12.486h3.23zm7.629 0c2.385 0 4.188-1.513 4.188-3.708 0-1.475-.808-2.478-2.066-2.989.47-.53.751-1.248.751-2.1 0-2.213-1.821-3.689-4.188-3.689h-4.469v12.486h5.784zm-1.521-7.548H172.7v-2.195h1.164c.77 0 1.24.436 1.24 1.098 0 .662-.47 1.097-1.24 1.097zm1.314 4.805h-2.478v-2.194h2.478c.752 0 1.24.36 1.24 1.097 0 .738-.488 1.097-1.24 1.097zm8.737 2.743v-3.878h1.334l2.798 3.878h3.605l-3.267-4.635c1.201-.737 1.953-1.986 1.953-3.556 0-2.649-2.066-4.295-4.789-4.295h-4.864v12.486h3.23zm1.653-6.716h-1.653v-2.932h1.653c.901 0 1.483.586 1.483 1.457 0 .889-.582 1.475-1.483 1.475zm15.553 6.716v-2.932h-5.596v-2.176h3.831v-2.724h-3.83v-1.721h5.37v-2.933h-8.6v12.486h8.825zm5.507.227c2.554 0 4.545-1.437 4.545-3.897 0-1.835-1.108-2.894-3.174-3.765l-1.427-.605c-.77-.322-1.07-.549-1.07-1.022 0-.567.469-.794 1.107-.794.94 0 1.484.492 2.047 1.324l2.16-1.665c-.714-1.437-2.085-2.516-4.244-2.516-2.517 0-4.338 1.457-4.338 3.69 0 1.759 1.164 2.894 3.136 3.764l1.277.568c.864.378 1.258.567 1.258 1.154 0 .605-.413.908-1.277.908-1.39 0-2.16-.795-2.76-1.608l-2.179 1.665c.883 1.683 2.667 2.8 4.94 2.8z" fill="#DE2B85"/><path d="M159.552 183.637v-1.027h-3.649v-2.26h2.65v-.994h-2.65v-1.827h3.52v-1.027h-4.657v7.135h4.786zm7.157.12v-7.255h-1.137v4.811l-4.303-4.93h-.398v7.254h1.138v-4.832l4.314 4.951h.386zm5.934-.12v-2.756h1.299l2.017 2.756h1.298l-2.124-2.94c.429-.166.763-.425 1.003-.779.24-.353.36-.764.36-1.232 0-.641-.222-1.166-.666-1.573-.443-.407-1.023-.61-1.738-.61h-2.586v7.134h1.137zm1.427-3.773h-1.427v-2.346h1.427c.387 0 .692.109.918.325.225.216.338.5.338.854 0 .353-.113.636-.338.848-.226.213-.531.32-.918.32zm8.993 3.773v-1.027h-3.649v-2.26h2.65v-.994h-2.65v-1.827h3.52v-1.027h-4.657v7.135h4.786zm3.54 0c1.145 0 2.074-.335 2.785-1.005.712-.67 1.068-1.528 1.068-2.573 0-1.06-.354-1.917-1.062-2.573-.708-.656-1.638-.984-2.79-.984h-2.221v7.135h2.22zm-.01-1.027h-1.073v-5.07h1.073c.823 0 1.477.229 1.964.687.486.457.73 1.068.73 1.832 0 .757-.245 1.371-.736 1.843-.49.472-1.142.708-1.958.708zm12.201 1.027v-1.243h.966v-.984h-.966v-2.194h-1.137v2.194h-2.114l2.006-4.908h-1.17l-2.264 5.579v.313h3.542v1.243h1.137zm5.355.12c.708 0 1.355-.17 1.942-.509a3.576 3.576 0 001.363-1.373v-2.01h-3.316v1.016h2.178v.767c-.465.72-1.17 1.081-2.114 1.081-.758 0-1.382-.254-1.872-.762-.49-.508-.735-1.144-.735-1.908 0-.757.238-1.384.713-1.881.476-.497 1.086-.746 1.83-.746.88 0 1.585.375 2.114 1.124l.826-.68c-.708-.995-1.685-1.493-2.93-1.493-1.03-.014-1.915.343-2.655 1.07-.74.728-1.1 1.6-1.079 2.617-.014 1.023.346 1.897 1.079 2.621.733.725 1.618 1.08 2.656 1.065z" fill="#4F008C"/></g><g fill-rule="nonzero"><path d="M77.08 143.981l1.617-5.907c-1.052-1.834-1.618-3.87-1.618-5.989 0-6.437 5.257-11.733 11.687-11.733s11.768 5.296 11.768 11.733-5.339 11.896-11.768 11.896c-2.022 0-3.963-.651-5.702-1.629l-5.985 1.63z" fill="#FEFEFE"/><path d="M83.388 140.233l.364.204c1.496.937 3.235 1.507 5.055 1.507 5.297 0 9.705-4.44 9.705-9.859 0-5.418-4.408-9.696-9.746-9.696s-9.665 4.319-9.665 9.696c0 1.874.526 3.708 1.496 5.256l.243.366-.93 3.422 3.478-.896z" fill="#129F5C"/><path d="M85.652 126.626l-.768-.04a.914.914 0 00-.647.244c-.364.326-.97.937-1.133 1.752-.283 1.222.162 2.689 1.214 4.155 1.051 1.467 3.073 3.83 6.631 4.848 1.133.326 2.023.122 2.75-.325.567-.367.93-.938 1.052-1.549l.122-.57a.411.411 0 00-.203-.448l-2.547-1.182a.384.384 0 00-.486.122l-1.01 1.304a.314.314 0 01-.324.081c-.687-.244-2.993-1.221-4.247-3.666-.04-.122-.04-.244.041-.326l.97-1.1c.082-.122.122-.285.082-.407l-1.174-2.648a.352.352 0 00-.323-.245" fill="#FEFEFE"/><g fill="#4F008C"><path d="M110 131.9v-1.475h-3.468v-6.504h-1.62v7.979H110zm2.496 0v-7.98h-1.62v7.98h1.62zm5.016 0c1.536 0 2.604-.968 2.604-2.346 0-.967-.528-1.656-1.404-1.97.372-.363.588-.846.588-1.439 0-1.318-1.044-2.224-2.508-2.224h-2.808v7.979h3.528zm-.852-4.751h-1.116v-1.826h1.116c.672 0 1.032.35 1.032.907 0 .544-.36.919-1.032.919zm.732 3.348h-1.848v-2.007h1.848c.708 0 1.128.387 1.128 1.004 0 .629-.42 1.003-1.128 1.003zm5.34 1.403v-2.817h1.188l2.052 2.817h1.824l-2.244-3.144c.852-.423 1.392-1.233 1.392-2.26 0-1.56-1.188-2.575-2.856-2.575h-2.976v7.979h1.62zm1.356-4.256h-1.356v-2.285h1.356c.756 0 1.2.472 1.2 1.137 0 .689-.444 1.148-1.2 1.148zm9.852 4.256v-1.475h-3.852v-2.02h2.724v-1.39h-2.724v-1.62h3.708v-1.474h-5.328v7.979h5.472zm9.588 0v-1.475h-3.852v-2.02h2.724v-1.39h-2.724v-1.62h3.708v-1.474h-5.328v7.979h5.472zm7.824.145v-8.124h-1.62v4.75l-4.596-4.895h-.528v8.124h1.62v-4.788l4.584 4.933h.54zm6.144-.145v-2.817h1.188l2.052 2.817h1.824l-2.244-3.144c.852-.423 1.392-1.233 1.392-2.26 0-1.56-1.188-2.575-2.856-2.575h-2.976v7.979h1.62zm1.356-4.256h-1.356v-2.285h1.356c.756 0 1.2.472 1.2 1.137 0 .689-.444 1.148-1.2 1.148zm7.944 4.4c2.328 0 4.224-1.789 4.224-4.134 0-2.345-1.896-4.134-4.224-4.134-2.328 0-4.2 1.789-4.2 4.134 0 2.345 1.872 4.135 4.2 4.135zm.012-1.51c-1.476 0-2.544-1.076-2.544-2.624 0-1.535 1.068-2.623 2.544-2.623 1.452 0 2.544 1.088 2.544 2.623 0 1.548-1.092 2.624-2.544 2.624zm6.048 1.366l.444-1.04h3.24l.444 1.04h1.74l-3.528-8.124h-.54l-3.54 8.124h1.74zm3.108-2.382h-2.088l1.044-2.684 1.044 2.684zm5.136 2.382v-4.268l1.992 2.527h.528l1.992-2.527v4.268h1.62v-8.124h-.528l-3.348 4.328-3.348-4.328h-.528v8.124h1.62zm9.251 0v-7.98h-1.62v7.98h1.62zm8.232.145v-8.124h-1.62v4.75l-4.596-4.895h-.528v8.124h1.62v-4.788l4.584 4.933h.54zm5.268 0c1.692 0 3.084-.907 3.78-2.164v-2.358h-3.804v1.415h2.184v.653c-.432.604-1.164.99-2.088.99-1.596 0-2.64-1.123-2.64-2.67 0-1.524 1.008-2.624 2.544-2.624.972 0 1.68.435 2.208 1.172l1.152-.955c-.756-1.088-1.92-1.728-3.336-1.728-2.388 0-4.236 1.789-4.236 4.134 0 2.345 1.86 4.135 4.236 4.135zM108.734 141.974v-.635h-3.213v-2.248h2.376v-.635h-2.376v-1.832h3.105v-.634h-3.807v5.984h3.915zm6.774.1v-6.084h-.702v4.497l-3.78-4.597h-.252v6.084h.702v-4.488l3.78 4.588h.252zm6.58-.1v-4.307l1.909 2.611h.252l1.899-2.593v4.289h.702v-6.084h-.243l-2.493 3.455-2.475-3.455h-.252v6.084h.702zm9.7-6.564l1.08-1.56v-.127h-.847l-.765 1.687h.531zm-2.242 6.564l.504-1.215h2.916l.504 1.215h.747l-2.574-6.084h-.26l-2.575 6.084h.738zm3.15-1.85h-2.376l1.188-2.946 1.188 2.946zm5.172 1.95c.558 0 1.017-.156 1.377-.467.36-.312.54-.712.54-1.202 0-.374-.11-.686-.329-.933-.219-.248-.571-.493-1.057-.735l-.657-.317a6.433 6.433 0 01-.558-.3.926.926 0 01-.28-.271.758.758 0 01-.116-.436c0-.266.1-.477.301-.634.201-.158.452-.236.752-.236.57 0 1.023.25 1.359.752l.513-.39a2.21 2.21 0 00-1.863-1.015c-.498 0-.921.145-1.27.435-.347.29-.521.665-.521 1.125 0 .374.11.683.333.924.222.242.558.469 1.008.68l.666.318c.378.187.637.346.778.476.141.13.212.322.212.576 0 .302-.11.544-.329.725-.219.181-.508.272-.868.272-.66 0-1.212-.342-1.656-1.025l-.522.39c.234.405.543.721.927.948.384.226.804.34 1.26.34zm9.29-.1c.978 0 1.761-.281 2.35-.843.587-.562.881-1.282.881-2.158 0-.883-.292-1.6-.877-2.154-.585-.553-1.37-.83-2.354-.83h-1.764v5.985h1.764zm-.009-.635h-1.053v-4.715h1.053c.774 0 1.386.217 1.836.649.45.432.675.999.675 1.7 0 .695-.226 1.263-.68 1.704-.452.442-1.063.662-1.83.662zm9.267.635v-.635h-3.213v-2.248h2.376v-.635h-2.376v-1.832h3.105v-.634H152.5v5.984h3.915zm7.004.1c.576 0 1.07-.186 1.485-.558.414-.372.62-.85.62-1.437 0-.592-.193-1.049-.58-1.37-.387-.32-.871-.48-1.453-.48a5.33 5.33 0 00-.846.073v-1.678h2.547v-.634h-3.25v2.856h1.342c.486 0 .86.109 1.12.326.261.218.392.523.392.916s-.13.713-.392.961c-.26.248-.592.372-.994.372-.63 0-1.15-.314-1.557-.943l-.486.363c.21.38.49.681.841.902.351.22.755.33 1.21.33zm6.224 0c.726 0 1.27-.293 1.63-.88.36-.592.54-1.348.54-2.267 0-.918-.184-1.653-.55-2.203-.36-.556-.9-.834-1.62-.834-.714 0-1.257.278-1.629.834-.366.55-.549 1.285-.549 2.203 0 .92.18 1.675.54 2.267.366.587.912.88 1.638.88zm0-.653c-.486 0-.849-.218-1.089-.653-.24-.435-.36-1.046-.36-1.831 0-1.596.483-2.394 1.45-2.394.96 0 1.44.798 1.44 2.394 0 .785-.12 1.396-.356 1.831-.237.435-.599.653-1.085.653zm8.526.553v-2.502h1.386c.57 0 1.029-.164 1.377-.49.348-.327.522-.747.522-1.26 0-.508-.174-.924-.522-1.247-.348-.323-.807-.485-1.377-.485h-2.088v5.984h.702zm1.368-3.137h-1.368v-2.213h1.368c.372 0 .663.102.873.304.21.203.315.47.315.803 0 .338-.105.607-.315.807-.21.2-.501.299-.873.299zm3.425 3.137l.504-1.215h2.916l.504 1.215h.747l-2.574-6.084h-.26l-2.575 6.084h.738zm3.15-1.85h-2.376l1.188-2.946 1.188 2.946zm4.1-4.714l1.08-1.56v-.127h-.845l-.765 1.687h.53zm.082 6.564v-5.984h-.702v5.984h.702zm4.226.1c.558 0 1.017-.156 1.377-.467.36-.312.54-.712.54-1.202 0-.374-.11-.686-.328-.933-.22-.248-.572-.493-1.058-.735l-.657-.317a6.433 6.433 0 01-.558-.3.926.926 0 01-.279-.271.758.758 0 01-.117-.436c0-.266.1-.477.302-.634.2-.158.451-.236.751-.236.57 0 1.023.25 1.36.752l.512-.39a2.21 2.21 0 00-1.863-1.015c-.498 0-.92.145-1.269.435-.348.29-.522.665-.522 1.125 0 .374.111.683.333.924.222.242.558.469 1.008.68l.666.318c.378.187.638.346.779.476.14.13.211.322.211.576 0 .302-.11.544-.328.725-.22.181-.509.272-.869.272-.66 0-1.212-.342-1.656-1.025l-.522.39c.234.405.543.721.927.948.384.226.804.34 1.26.34zm8.06-.1v-.635h-3.212v-2.248h2.376v-.635h-2.376v-1.832h3.105v-.634h-3.807v5.984h3.915zm3.777.1c.558 0 1.017-.156 1.377-.467.36-.312.54-.712.54-1.202 0-.374-.109-.686-.328-.933-.219-.248-.572-.493-1.058-.735l-.657-.317a6.433 6.433 0 01-.558-.3.926.926 0 01-.279-.271.758.758 0 01-.117-.436c0-.266.101-.477.302-.634.201-.158.451-.236.751-.236.57 0 1.023.25 1.36.752l.512-.39a2.21 2.21 0 00-1.863-1.015c-.498 0-.92.145-1.269.435-.348.29-.522.665-.522 1.125 0 .374.111.683.333.924.222.242.558.469 1.008.68l.666.318c.378.187.638.346.779.476.141.13.211.322.211.576 0 .302-.109.544-.328.725-.219.181-.509.272-.869.272-.66 0-1.212-.342-1.656-1.025l-.522.39c.234.405.543.721.927.948.384.226.804.34 1.26.34z"/></g><g fill="#4F008C"><path d="M31.503 126.015h.422v6.493H30.63v-3.401l-1.592 2.01h-.422l-1.592-2.01v3.401h-1.295v-6.493h.422l2.676 3.45 2.676-3.45zm1.88 6.493v-6.377h1.295v6.377h-1.295zm6.839-6.377h1.294v6.493h-.431l-3.664-3.942v3.826h-1.295v-6.493h.422l3.674 3.923v-3.807zm2.685 3.74v-3.74h1.295v3.836c0 .457.128.813.384 1.067.255.255.591.382 1.007.382.422 0 .759-.127 1.012-.382.252-.254.378-.61.378-1.067v-3.836h1.295v3.74c0 .83-.252 1.497-.757 2-.506.502-1.148.753-1.928.753-.787 0-1.431-.251-1.933-.754-.502-.502-.753-1.169-.753-2zm8.2 2.637v-5.199h-2.023v-1.178h5.352v1.178h-2.033v5.199h-1.295zm3.818-3.189c-.013-.908.315-1.69.983-2.348.668-.657 1.46-.976 2.374-.956.915-.02 1.709.3 2.384.956.674.657 1.005 1.44.992 2.348.013.909-.318 1.691-.992 2.348-.675.657-1.47.976-2.384.957-.914.02-1.706-.3-2.374-.957-.668-.657-.996-1.44-.983-2.348zm5.4 0c0-.605-.193-1.106-.58-1.502-.387-.396-.871-.595-1.453-.595-.589 0-1.074.197-1.458.59-.384.393-.576.895-.576 1.507 0 .612.192 1.115.576 1.508.384.393.87.59 1.458.59.582 0 1.066-.197 1.453-.59.387-.393.58-.896.58-1.508zm1.986 1.894l.892-.676c.447.618.965.927 1.553.927.282 0 .502-.062.662-.188a.622.622 0 00.24-.517c0-.18-.054-.32-.163-.42-.109-.1-.323-.224-.643-.372l-.68-.31c-1.024-.457-1.535-1.069-1.535-1.835 0-.542.198-.978.594-1.31.397-.331.899-.497 1.506-.497.473 0 .889.108 1.247.323.358.216.64.51.844.884l-.882.687c-.326-.49-.73-.735-1.209-.735a.922.922 0 00-.566.164.535.535 0 00-.22.455c0 .16.052.291.158.39.105.1.299.215.58.344l.72.319c.543.245.94.51 1.189.797.25.287.374.643.374 1.068 0 .573-.208 1.035-.623 1.386-.416.351-.947.527-1.593.527-.53 0-1.008-.126-1.434-.377a2.77 2.77 0 01-1.011-1.034zm-36.582 9.577v-6.377h1.295v5.198h2.772v1.18h-4.067zm5.026 0v-6.377h1.295v6.377h-1.295zm7.644-1.874c0 .547-.195.997-.585 1.348-.39.35-.889.526-1.496.526h-2.82v-6.377h2.244c.589 0 1.07.166 1.444.498.374.331.561.758.561 1.28 0 .47-.157.853-.47 1.15.748.277 1.122.802 1.122 1.575zm-2.762-3.382h-.892v1.459h.892c.262 0 .465-.065.609-.193.144-.13.216-.31.216-.541 0-.226-.072-.403-.216-.532-.144-.129-.347-.193-.61-.193zm1.487 3.333c0-.244-.08-.44-.24-.584-.16-.145-.38-.218-.662-.218h-1.477v1.604h1.477c.281 0 .502-.07.662-.212.16-.142.24-.338.24-.59zm7.673 1.923h-1.458l-1.64-2.251h-.95v2.251h-1.295v-6.377h2.379c.665 0 1.212.19 1.64.57.428.38.643.876.643 1.488 0 .4-.098.759-.293 1.077a1.951 1.951 0 01-.82.74l1.794 2.502zm-4.048-5.227v1.826h1.084c.3 0 .535-.084.705-.251.17-.168.254-.39.254-.667 0-.27-.088-.49-.264-.657-.176-.167-.407-.251-.695-.251h-1.084zm4.844 5.227v-6.377h4.258v1.179h-2.963v1.295h2.177v1.11h-2.177v1.614h3.078v1.18h-4.373zm5.054-1.294l.892-.677c.448.619.966.928 1.554.928.282 0 .502-.063.662-.189a.622.622 0 00.24-.517c0-.18-.055-.32-.163-.42-.109-.1-.323-.224-.643-.372l-.68-.31c-1.024-.457-1.535-1.069-1.535-1.835 0-.541.198-.978.594-1.31.397-.331.899-.497 1.506-.497.473 0 .889.108 1.247.324.358.215.64.51.844.884l-.882.686c-.327-.49-.73-.734-1.209-.734a.922.922 0 00-.566.164.535.535 0 00-.22.454c0 .161.052.291.158.391.105.1.299.214.58.343l.72.32c.543.244.94.51 1.189.796.25.287.374.643.374 1.068 0 .573-.208 1.036-.624 1.387-.415.35-.946.526-1.592.526-.53 0-1.008-.125-1.434-.377a2.77 2.77 0 01-1.012-1.033zM72.807 123.584v18.4h-1v-18.4z"/></g></g><path fill="#E8E8E8" fill-rule="nonzero" d="M229 151.04v1.008H10v-1.007z"/><path d="M78.441 201.383v-3.262h1.582c.97 0 1.769-.28 2.394-.84.625-.56.938-1.279.938-2.156 0-.887-.313-1.605-.938-2.156-.625-.55-1.423-.826-2.394-.826h-3.472v9.24h1.89zm1.582-4.914h-1.582v-2.66h1.582c.42 0 .758.121 1.015.364.257.243.385.56.385.952 0 .401-.124.726-.371.973s-.59.37-1.029.37zm5.992 4.914l.518-1.204h3.78l.518 1.204h2.03l-4.116-9.408h-.63l-4.13 9.408h2.03zm3.64-2.758h-2.464l1.232-3.122 1.232 3.122zm6.356 2.758v-3.262h1.386l2.394 3.262h2.128l-2.618-3.626a2.84 2.84 0 001.624-2.632c0-.887-.313-1.605-.938-2.156-.625-.55-1.423-.826-2.394-.826h-3.472v9.24h1.89zm1.582-4.928h-1.582v-2.646h1.582c.42 0 .758.121 1.015.364.257.243.385.56.385.952 0 .401-.124.723-.371.966s-.59.364-1.029.364zm6.636 4.928l.518-1.204h3.78l.518 1.204h2.03l-4.116-9.408h-.63l-4.13 9.408h2.03zm3.64-2.758h-2.464l1.232-3.122 1.232 3.122zm11.312 2.926c.943 0 1.717-.254 2.324-.763.607-.509.91-1.178.91-2.01 0-.615-.182-1.13-.546-1.546-.364-.415-.943-.8-1.736-1.155l-1.05-.462c-.41-.187-.693-.352-.847-.497a.742.742 0 01-.231-.567c0-.28.107-.5.322-.658.215-.159.49-.238.826-.238.7 0 1.288.355 1.764 1.064l1.288-.994a3.35 3.35 0 00-1.232-1.281c-.523-.313-1.13-.47-1.82-.47-.887 0-1.62.241-2.198.722-.579.48-.868 1.113-.868 1.897 0 1.11.747 1.997 2.24 2.66l.994.448c.467.215.78.394.938.539.159.145.238.348.238.609 0 .317-.117.567-.35.749-.233.182-.555.273-.966.273-.859 0-1.615-.448-2.268-1.344l-1.302.98a4.027 4.027 0 001.477 1.498c.62.364 1.318.546 2.093.546zm6.79-.168v-9.24h-1.89v9.24h1.89zm8.498 0v-1.708h-4.494v-2.338h3.178v-1.61h-3.178v-1.876h4.326v-1.708h-6.216v9.24h6.384zm3.528 0v-4.928l2.324 2.912h.616l2.324-2.912v4.928h1.89v-9.408h-.616l-3.906 4.998-3.906-4.998h-.616v9.408h1.89zm11.172 0v-3.262h1.582c.97 0 1.769-.28 2.394-.84.625-.56.938-1.279.938-2.156 0-.887-.313-1.605-.938-2.156-.625-.55-1.423-.826-2.394-.826h-3.472v9.24h1.89zm1.582-4.914h-1.582v-2.66h1.582c.42 0 .758.121 1.015.364.257.243.385.56.385.952 0 .401-.124.726-.371.973s-.59.37-1.029.37zm6.734 4.914v-3.262h1.386l2.394 3.262h2.128l-2.618-3.626a2.84 2.84 0 001.624-2.632c0-.887-.313-1.605-.938-2.156-.625-.55-1.423-.826-2.394-.826h-3.472v9.24h1.89zm1.582-4.928h-1.582v-2.646h1.582c.42 0 .758.121 1.015.364.257.243.385.56.385.952 0 .401-.124.723-.371.966s-.59.364-1.029.364zm11.872 4.928v-1.708h-4.494v-2.338h3.178v-1.61h-3.178v-1.876h4.326v-1.708h-6.216v9.24h6.384z" fill="#DB167A" fill-rule="nonzero"/><g fill-rule="nonzero"><path d="M35.613 91.206c4.2.084 7.938-1.386 11.214-4.41 3.276-3.024 4.872-6.678 4.788-10.962 0-3.822-1.229-7.067-3.686-9.734s-5.365-4.231-8.725-4.693l9.26-12.537H35.677L25.28 62.793c-1.932 2.604-3.381 4.85-4.347 6.74-.882 1.849-1.323 3.907-1.323 6.175 0 4.41 1.585 8.095 4.756 11.056 3.171 2.961 6.92 4.442 11.246 4.442zm0-9.954c-1.47 0-2.72-.525-3.749-1.575-1.029-1.05-1.543-2.352-1.543-3.906 0-1.554.514-2.835 1.543-3.843 1.03-1.008 2.279-1.512 3.749-1.512 1.47 0 2.72.504 3.748 1.512 1.03 1.008 1.544 2.289 1.544 3.843 0 1.554-.525 2.856-1.575 3.906-1.008 1.05-2.247 1.575-3.717 1.575zm32.842 9.954c5.46 0 9.702-2.037 12.726-6.111 3.024-4.074 4.536-9.324 4.536-15.75 0-6.342-1.501-11.466-4.504-15.372-3.003-3.906-7.256-5.86-12.758-5.86-5.502 0-9.755 1.954-12.758 5.86-3.003 3.906-4.504 9.03-4.504 15.372 0 6.426 1.512 11.676 4.536 15.75 3.024 4.074 7.266 6.11 12.726 6.11zm0-9.954c-4.116 0-6.174-3.948-6.174-11.844 0-3.906.504-6.773 1.512-8.6s2.562-2.74 4.662-2.74 3.654.913 4.662 2.74c1.008 1.827 1.512 4.694 1.512 8.6 0 7.896-2.058 11.844-6.174 11.844z" fill="#4F008C"/><path d="M109.656 91.052l.45-.001c3.32 0 6.329-.783 9.024-2.35 2.694-1.598 4.762-3.682 6.204-6.251v-9.776h-15.322v6.956h7.238v1.457c-1.598 1.849-3.87 2.773-6.815 2.773-2.726 0-4.896-.815-6.51-2.444-1.614-1.63-2.42-3.776-2.42-6.439 0-2.632.76-4.731 2.279-6.298 1.52-1.567 3.58-2.35 6.18-2.35 3.197 0 5.813 1.426 7.85 4.277l5.64-4.794c-3.102-4.606-7.552-6.909-13.348-6.909-4.67-.063-8.664 1.488-11.985 4.653-3.322 3.165-4.951 6.972-4.888 11.421-.063 4.48 1.566 8.295 4.888 11.444 3.32 3.15 7.316 4.693 11.985 4.63l-.45.001zm26.257-.565v-31.02h-8.084v31.02h8.084zm18.92.565l.45-.001c3.32 0 6.328-.783 9.023-2.35 2.695-1.598 4.763-3.682 6.204-6.251v-9.776h-15.322v6.956h7.238v1.457c-1.598 1.849-3.87 2.773-6.815 2.773-2.726 0-4.896-.815-6.51-2.444-1.613-1.63-2.42-3.776-2.42-6.439 0-2.632.76-4.731 2.28-6.298 1.52-1.567 3.58-2.35 6.18-2.35 3.196 0 5.812 1.426 7.85 4.277l5.64-4.794c-3.103-4.606-7.552-6.909-13.349-6.909-4.669-.063-8.664 1.488-11.985 4.653-3.321 3.165-4.95 6.972-4.888 11.421-.063 4.48 1.567 8.295 4.888 11.444 3.321 3.15 7.316 4.693 11.985 4.63l-.45.001zm23.39-.565l1.128-2.585h11.139l1.128 2.585h8.695l-14.1-31.584h-2.585l-14.1 31.584h8.695zm9.4-9.071h-5.405l2.726-7.191 2.679 7.191zm23.88 9.635c3.29 0 6.009-.877 8.155-2.632 2.147-1.755 3.22-4.105 3.22-7.05 0-2.162-.635-3.972-1.904-5.429-1.269-1.457-3.282-2.765-6.04-3.924l-3.571-1.504c-1.003-.407-1.7-.791-2.092-1.152-.391-.36-.587-.822-.587-1.386 0-1.316.924-1.974 2.773-1.974 1.065 0 1.99.258 2.773.775.783.517 1.566 1.356 2.35 2.515l5.405-4.136c-2.068-4.167-5.609-6.251-10.622-6.251-3.196 0-5.805.846-7.826 2.538-2.02 1.692-3.031 3.901-3.031 6.627 0 3.917 2.616 7.034 7.849 9.353l3.196 1.41c1.284.564 2.13 1.018 2.538 1.363.407.345.61.846.61 1.504 0 1.504-1.065 2.256-3.195 2.256-1.473 0-2.742-.337-3.807-1.01-1.066-.674-2.1-1.669-3.102-2.985l-5.452 4.136c1.128 2.162 2.78 3.862 4.958 5.1 2.178 1.237 4.645 1.856 7.403 1.856z" fill="#DE2B85"/></g><g fill-rule="nonzero"><path d="M73.68 312.717v-40.92h-3.41l-16.74 5.518 2.542 9.424 6.944-2.294v28.272H73.68zm17.66.744c4.505 0 8.297-1.374 11.377-4.123 3.079-2.748 4.619-6.169 4.619-10.26 0-2.894-.806-5.436-2.418-7.627-1.612-2.19-3.72-3.782-6.324-4.774l8.122-12.09v-2.79h-27.59v9.61h11.656l-7.254 10.788v2.728h5.828c4.712 0 7.068 1.406 7.068 4.216 0 1.406-.507 2.511-1.52 3.317-1.012.806-2.345 1.21-3.998 1.21-1.571 0-2.945-.404-4.123-1.21-1.178-.806-2.387-2.139-3.627-3.999l-7.378 5.208c1.405 3.06 3.472 5.456 6.2 7.192 2.728 1.736 5.848 2.604 9.362 2.604zm23.921 0c1.984 0 3.627-.66 4.93-1.984 1.301-1.322 1.952-2.976 1.952-4.96s-.65-3.637-1.953-4.96c-1.302-1.322-2.945-1.984-4.929-1.984-2.066 0-3.761.662-5.084 1.984-1.322 1.323-1.984 2.976-1.984 4.96s.662 3.638 1.984 4.96c1.323 1.323 3.018 1.984 5.084 1.984zm21.566-.744l10.23-13.702c1.943-2.645 3.348-4.856 4.216-6.634.91-1.777 1.364-3.802 1.364-6.076 0-4.34-1.56-7.967-4.681-10.88-3.12-2.915-6.81-4.372-11.067-4.372-4.133-.082-7.812 1.364-11.036 4.34-3.224 2.976-4.795 6.572-4.712 10.788 0 3.762 1.209 6.955 3.627 9.58 2.418 2.624 5.28 4.164 8.587 4.618l-9.114 12.338h12.586zm.062-21.204c-1.447 0-2.676-.496-3.689-1.488s-1.519-2.252-1.519-3.782c0-1.529.506-2.81 1.519-3.844 1.013-1.033 2.242-1.55 3.689-1.55s2.676.517 3.689 1.55c1.013 1.034 1.519 2.315 1.519 3.844 0 1.488-.496 2.739-1.488 3.751-.992 1.013-2.232 1.52-3.72 1.52zm31.92 21.204l10.23-13.702c1.942-2.645 3.348-4.856 4.216-6.634.909-1.777 1.364-3.802 1.364-6.076 0-4.34-1.56-7.967-4.681-10.88-3.121-2.915-6.81-4.372-11.067-4.372-4.134-.082-7.812 1.364-11.036 4.34-3.224 2.976-4.795 6.572-4.712 10.788 0 3.762 1.209 6.955 3.627 9.58 2.418 2.624 5.28 4.164 8.587 4.618l-9.114 12.338h12.586zm.062-21.204c-1.447 0-2.677-.496-3.69-1.488-1.012-.992-1.518-2.252-1.518-3.782 0-1.529.506-2.81 1.519-3.844 1.012-1.033 2.242-1.55 3.689-1.55 1.446 0 2.676.517 3.689 1.55 1.012 1.034 1.519 2.315 1.519 3.844 0 1.488-.496 2.739-1.488 3.751-.992 1.013-2.232 1.52-3.72 1.52zm34.4 21.948c5.373 0 9.547-2.004 12.523-6.014 2.976-4.009 4.464-9.176 4.464-15.5 0-6.24-1.477-11.284-4.433-15.128-2.955-3.844-7.14-5.766-12.555-5.766-5.414 0-9.6 1.922-12.555 5.766-2.955 3.844-4.433 8.887-4.433 15.128 0 6.324 1.488 11.491 4.464 15.5 2.976 4.01 7.151 6.014 12.524 6.014zm0-9.796c-4.051 0-6.077-3.885-6.077-11.656 0-3.844.496-6.665 1.488-8.463.992-1.798 2.522-2.697 4.588-2.697 2.067 0 3.596.9 4.588 2.697.992 1.798 1.488 4.62 1.488 8.463 0 7.771-2.025 11.656-6.076 11.656z" fill="#4D008C"/><path d="M30.772 307.31v-4.425c3.456-.58 5.976-2.865 5.976-6.347 0-3.01-1.872-5.04-5.472-6.383l-2.7-.943c-1.44-.58-2.412-1.124-2.412-2.285 0-1.378 1.296-1.85 2.592-1.85 1.692 0 2.988.762 4.14 2.467l3.24-2.466c-1.08-2.031-2.808-3.627-5.364-4.135v-4.316h-4.248v4.389c-2.988.725-5.112 2.865-5.112 5.875 0 3.083 2.16 5.114 5.364 6.31l2.448.907c1.62.653 2.772 1.233 2.772 2.503 0 1.45-1.368 2.14-3.132 2.14-2.304 0-4.104-1.197-5.436-3.3l-3.276 2.465c1.332 2.54 3.492 4.28 6.372 4.897v4.497h4.248z" fill="#DB167A"/><path d="M98.165 331.178c.728 0 1.39-.163 1.986-.49a3.671 3.671 0 001.41-1.347l-.96-.713c-.584.918-1.392 1.378-2.424 1.378-.816 0-1.496-.28-2.04-.84-.544-.56-.816-1.264-.816-2.11 0-.846.272-1.55.816-2.11.544-.56 1.224-.84 2.04-.84 1.032 0 1.84.46 2.424 1.378l.96-.713a3.734 3.734 0 00-1.416-1.342c-.6-.33-1.26-.495-1.98-.495-1.136-.017-2.12.382-2.952 1.196-.832.814-1.236 1.79-1.212 2.926-.024 1.136.38 2.112 1.212 2.926.832.814 1.816 1.213 2.952 1.196zm5.544-.133l.564-1.33h3.564l.564 1.33h1.368l-3.492-8.111h-.432l-3.492 8.111h1.356zm3.672-2.43h-2.652l1.332-3.3 1.32 3.3zm4.92 2.43v-3.082h1.452l2.256 3.082h1.452l-2.376-3.288a2.33 2.33 0 001.122-.87c.268-.395.402-.855.402-1.378 0-.718-.248-1.304-.744-1.76-.496-.455-1.144-.682-1.944-.682h-2.892v7.978h1.272zm1.596-4.219h-1.596v-2.623h1.596c.432 0 .774.12 1.026.363.252.241.378.56.378.955 0 .395-.126.71-.378.949-.252.237-.594.356-1.026.356zm8.4 4.352c.792 0 1.516-.189 2.172-.568a4 4 0 001.524-1.535v-2.249h-3.708v1.137h2.436v.858c-.52.806-1.308 1.209-2.364 1.209-.848 0-1.546-.284-2.094-.852-.548-.569-.822-1.28-.822-2.134 0-.846.266-1.548.798-2.104s1.214-.834 2.046-.834c.984 0 1.772.42 2.364 1.257l.924-.761c-.792-1.112-1.884-1.668-3.276-1.668-1.152-.017-2.142.382-2.97 1.196-.828.814-1.23 1.79-1.206 2.926-.016 1.144.386 2.122 1.206 2.932s1.81 1.207 2.97 1.19zm8.928 0c1.128.017 2.11-.382 2.946-1.196.836-.814 1.242-1.79 1.218-2.926.024-1.136-.382-2.112-1.218-2.926-.836-.814-1.818-1.213-2.946-1.196-1.136-.017-2.116.382-2.94 1.196-.824.814-1.228 1.79-1.212 2.926-.024 1.136.378 2.112 1.206 2.926.828.814 1.81 1.213 2.946 1.196zm.012-1.172c-.824 0-1.504-.28-2.04-.84-.536-.56-.804-1.268-.804-2.122 0-.846.27-1.548.81-2.104s1.218-.834 2.034-.834c.808 0 1.484.28 2.028.84.544.56.816 1.26.816 2.098 0 .846-.272 1.551-.816 2.116-.544.564-1.22.846-2.028.846zm10.308 1.04v-3.289h3.144v-1.16h-3.144v-2.382h3.816v-1.148h-5.088v7.978h1.272zm6.348 0v-7.98h-1.272v7.98h1.272zm2.34.132c.712 0 1.262-.179 1.65-.538.388-.358.582-.884.582-1.577v-5.996h-1.272v5.863c0 .395-.1.673-.3.834-.2.161-.512.242-.936.242-.144 0-.416-.02-.816-.06v1.1c.4.088.764.132 1.092.132zm7.896 0c1.128.017 2.11-.382 2.946-1.196.836-.814 1.242-1.79 1.218-2.926.024-1.136-.382-2.112-1.218-2.926-.836-.814-1.818-1.213-2.946-1.196-1.136-.017-2.116.382-2.94 1.196-.824.814-1.228 1.79-1.212 2.926-.024 1.136.378 2.112 1.206 2.926.828.814 1.81 1.213 2.946 1.196zm.012-1.172c-.824 0-1.504-.28-2.04-.84-.536-.56-.804-1.268-.804-2.122 0-.846.27-1.548.81-2.104s1.218-.834 2.034-.834c.808 0 1.484.28 2.028.84.544.56.816 1.26.816 2.098 0 .846-.272 1.551-.816 2.116-.544.564-1.22.846-2.028.846zm10.308 1.04v-5.018l2.28 3.01h.432l2.268-2.998v5.005h1.272v-8.111h-.432l-3.324 4.46-3.324-4.46h-.444v8.111h1.272zm13.596 0v-1.15h-4.08v-2.526h2.964v-1.112h-2.964v-2.043h3.936v-1.148h-5.208v7.978h5.352zm8.004.132v-8.111h-1.272v5.38l-4.812-5.513h-.444v8.111h1.272v-5.403l4.824 5.536h.432zm4.428 0c.768 0 1.402-.213 1.902-.64.5-.427.75-.984.75-1.669 0-.515-.15-.947-.45-1.293-.3-.347-.782-.673-1.446-.98l-.888-.41a1.065 1.065 0 00-.108-.06l-.468-.243a1.674 1.674 0 01-.252-.187c-.12-.1-.194-.198-.222-.29a1.56 1.56 0 01-.054-.357c0-.306.112-.544.336-.713.224-.17.512-.254.864-.254.68 0 1.236.322 1.668.967l.888-.689a2.75 2.75 0 00-1.05-1.04 2.985 2.985 0 00-1.506-.386c-.704 0-1.296.201-1.776.604-.48.403-.72.923-.72 1.56 0 .507.154.932.462 1.275.308.342.77.655 1.386.937l.876.41c.44.21.744.394.912.55.168.158.252.374.252.648a.984.984 0 01-.378.81c-.252.201-.582.302-.99.302-.808 0-1.5-.423-2.076-1.27l-.9.69c.312.54.728.963 1.248 1.269.52.306 1.1.46 1.74.46zm7.464 0c.952 0 1.73-.302 2.334-.906.604-.605.906-1.423.906-2.454v-4.751h-1.272v4.835c0 .661-.18 1.177-.54 1.548-.36.37-.836.556-1.428.556-.6 0-1.082-.186-1.446-.556-.364-.371-.546-.887-.546-1.548v-4.835h-1.272v4.75c0 1.032.302 1.85.906 2.455.604.604 1.39.906 2.358.906zm5.772-.133l.564-1.33h3.564l.564 1.33h1.368l-3.492-8.111h-.432l-3.492 8.111h1.356zm3.672-2.43h-2.652l1.332-3.3 1.32 3.3zm8.544 2.43v-1.148h-3.624v-6.83h-1.272v7.978h4.896z" fill="#4F008C"/></g><g fill-rule="nonzero"><path d="M36.948 241.336c4.116 0 7.42-2.184 9.072-5.124v-5.824h-9.128v4.144h4.312v.868c-.896 1.036-2.296 1.652-4.06 1.652-3.304 0-5.32-2.156-5.32-5.292 0-3.052 1.904-5.152 5.04-5.152 2.1 0 3.528.952 4.676 2.548l3.36-2.856c-1.792-2.632-4.536-4.116-7.952-4.116-5.684 0-10.052 4.144-10.052 9.576 0 5.46 4.396 9.576 10.052 9.576zM53.561 241v-18.48h-4.816V241h4.816zm12.777.336c4.116 0 7.42-2.184 9.072-5.124v-5.824h-9.128v4.144h4.312v.868c-.896 1.036-2.296 1.652-4.06 1.652-3.304 0-5.32-2.156-5.32-5.292 0-3.052 1.904-5.152 5.04-5.152 2.1 0 3.528.952 4.676 2.548l3.36-2.856c-1.792-2.632-4.536-4.116-7.952-4.116-5.684 0-10.052 4.144-10.052 9.576 0 5.46 4.396 9.576 10.052 9.576zM80.964 241l.672-1.54h6.636l.672 1.54h5.18l-8.4-18.816h-1.54L75.784 241h5.18zm5.6-5.404h-3.22l1.624-4.284 1.596 4.284zm15.325 5.74c3.808 0 6.776-2.128 6.776-5.768 0-2.716-1.652-4.284-4.732-5.572l-2.128-.896c-1.148-.476-1.596-.812-1.596-1.512 0-.84.7-1.176 1.652-1.176 1.4 0 2.212.728 3.052 1.96l3.22-2.464c-1.064-2.128-3.108-3.724-6.328-3.724-3.752 0-6.468 2.156-6.468 5.46 0 2.604 1.736 4.284 4.676 5.572l1.904.84c1.288.56 1.876.84 1.876 1.708 0 .896-.616 1.344-1.904 1.344-2.072 0-3.22-1.176-4.116-2.38l-3.248 2.464c1.316 2.492 3.976 4.144 7.364 4.144zM131.67 241v-4.34h-7.644v-14.14h-4.816V241h12.46zm7.317 0v-18.48h-4.816V241h4.816zm12.302 0c3.556 0 6.244-2.24 6.244-5.488 0-2.184-1.204-3.668-3.08-4.424.7-.784 1.12-1.848 1.12-3.108 0-3.276-2.716-5.46-6.244-5.46h-6.664V241h8.624zm-2.268-11.172h-1.736v-3.248h1.736c1.148 0 1.848.644 1.848 1.624 0 .98-.7 1.624-1.848 1.624zm1.96 7.112h-3.696v-3.248h3.696c1.12 0 1.848.532 1.848 1.624s-.728 1.624-1.848 1.624zm13.953 4.06v-5.74h1.988l4.172 5.74h5.376l-4.872-6.86c1.792-1.092 2.912-2.94 2.912-5.264 0-3.92-3.08-6.356-7.14-6.356h-7.252V241h4.816zm2.464-9.94h-2.464v-4.34h2.464c1.344 0 2.212.868 2.212 2.156 0 1.316-.868 2.184-2.212 2.184zm24.117 9.94v-4.34h-8.344v-3.22h5.712v-4.032h-5.712v-2.548h8.008v-4.34h-12.824V241h13.16zm9.137.336c3.808 0 6.776-2.128 6.776-5.768 0-2.716-1.652-4.284-4.732-5.572l-2.128-.896c-1.148-.476-1.596-.812-1.596-1.512 0-.84.7-1.176 1.652-1.176 1.4 0 2.212.728 3.052 1.96l3.22-2.464c-1.064-2.128-3.108-3.724-6.328-3.724-3.752 0-6.468 2.156-6.468 5.46 0 2.604 1.736 4.284 4.676 5.572l1.904.84c1.288.56 1.876.84 1.876 1.708 0 .896-.616 1.344-1.904 1.344-2.072 0-3.22-1.176-4.116-2.38l-3.248 2.464c1.316 2.492 3.976 4.144 7.364 4.144z" fill="#E82070"/><path d="M27.947 250v-2.258h1.195c.585 0 1.061-.168 1.43-.505.37-.336.554-.767.554-1.293 0-.525-.183-.955-.55-1.288-.365-.334-.843-.5-1.434-.5h-2.134V250h.939zm1.177-3.09h-1.177v-1.922h1.177c.325 0 .579.087.762.261.183.174.275.409.275.704s-.092.529-.275.7c-.183.17-.437.257-.762.257zm5.756 3.187c.833.012 1.557-.28 2.174-.876.617-.597.917-1.31.9-2.143.017-.833-.283-1.547-.9-2.143-.617-.596-1.341-.889-2.174-.877-.838-.012-1.561.28-2.17.877-.607.596-.905 1.31-.894 2.143-.017.832.28 1.546.89 2.143.611.596 1.336.888 2.174.876zm.01-.859c-.609 0-1.11-.205-1.506-.615-.396-.41-.593-.928-.593-1.554 0-.62.199-1.134.597-1.54.399-.408.899-.612 1.501-.612.596 0 1.095.205 1.497.616.401.41.602.922.602 1.536 0 .62-.2 1.136-.602 1.55-.402.413-.9.62-1.497.62zm5.126.762v-2.258h1.072L42.753 250h1.071l-1.753-2.409c.354-.135.63-.348.828-.637.197-.29.296-.626.296-1.01 0-.525-.183-.955-.549-1.288-.366-.334-.844-.5-1.434-.5h-2.134V250h.938zm1.178-3.09h-1.178v-1.922h1.178c.319 0 .571.089.757.266.186.177.28.41.28.7 0 .288-.094.52-.28.694-.186.174-.438.262-.757.262zm7.784 3.09v-5.844h-.328l-2.028.664.23.823 1.187-.38V250h.939zm3.675 0l.416-.974h2.63l.416.974h1.01l-2.577-5.942h-.319L51.652 250h1zm2.71-1.78h-1.958l.983-2.417.974 2.417zm5.826-4.72a.802.802 0 00.633-.292c.169-.195.253-.443.253-.744 0-.03-.006-.115-.018-.257h-.744v.133c0 .207-.083.31-.248.31-.065 0-.195-.053-.39-.16l-.292-.176a1.183 1.183 0 00-.637-.195.811.811 0 00-.642.292c-.169.195-.253.443-.253.744 0 .03.006.115.018.257h.744v-.115c0-.213.083-.32.248-.32.083 0 .212.054.39.16l.283.16c.236.135.454.203.655.203zm1.683 6.597v-5.941h-.939v3.94l-3.551-4.038h-.328V250h.94v-3.958l3.559 4.055h.319zm4.188 0c.833.012 1.557-.28 2.174-.876.617-.597.917-1.31.899-2.143.018-.833-.282-1.547-.899-2.143-.617-.596-1.341-.889-2.174-.877-.838-.012-1.561.28-2.17.877-.607.596-.906 1.31-.894 2.143-.017.832.28 1.546.89 2.143.611.596 1.336.888 2.174.876zm.009-.859c-.608 0-1.11-.205-1.505-.615-.396-.41-.594-.928-.594-1.554 0-.62.2-1.134.598-1.54.399-.408.899-.612 1.501-.612.596 0 1.095.205 1.497.616.401.41.602.922.602 1.536 0 .62-.201 1.136-.602 1.55-.402.413-.9.62-1.497.62zm4.605 2.338l.416-2.515h-1.08l-.089 2.515h.753zm5.986-1.479a2.04 2.04 0 001.46-.584c.408-.39.612-.868.612-1.435 0-.543-.19-1.005-.571-1.385-.381-.381-.831-.572-1.35-.572-.095 0-.18.01-.257.027l1.408-1.992h-1.107l-1.461 2.063c-.219.313-.37.537-.452.673a2.701 2.701 0 00-.248.54c-.065.207-.097.42-.097.638-.012.566.188 1.049.602 1.447.413.399.9.592 1.46.58zm0-.859c-.325 0-.596-.109-.815-.327a1.128 1.128 0 01-.328-.833c0-.33.11-.605.328-.823a1.11 1.11 0 01.815-.337 1.1 1.1 0 01.806.337c.224.224.336.499.336.823 0 .331-.112.608-.336.833a1.095 1.095 0 01-.806.327zm5.233.86c.72 0 1.271-.285 1.652-.855.38-.57.57-1.31.57-2.218 0-.898-.188-1.615-.566-2.152-.372-.543-.924-.815-1.656-.815-.732 0-1.287.275-1.665.824-.377.537-.566 1.251-.566 2.143 0 .903.192 1.64.575 2.213.384.573.936.86 1.656.86zm0-.86c-.838 0-1.257-.735-1.257-2.204 0-1.411.419-2.117 1.257-2.117.833 0 1.249.706 1.249 2.117 0 1.47-.416 2.204-1.249 2.204zm8.705.86c.584 0 1.119-.14 1.603-.417a2.94 2.94 0 001.124-1.124v-1.647H91.59v.832h1.798v.629c-.384.59-.966.885-1.745.885-.626 0-1.14-.208-1.545-.624-.404-.416-.607-.937-.607-1.563 0-.62.197-1.134.59-1.54.392-.408.895-.612 1.509-.612.726 0 1.308.307 1.745.921l.681-.558c-.584-.815-1.39-1.222-2.417-1.222-.85-.012-1.58.28-2.192.877-.61.596-.907 1.31-.89 2.143-.012.838.285 1.554.89 2.147a2.954 2.954 0 002.192.872zm4.817-.098v-5.844h-.939V250h.94zm4.197.097c.585 0 1.12-.138 1.603-.416a2.94 2.94 0 001.125-1.124v-1.647h-2.736v.832h1.797v.629c-.383.59-.965.885-1.744.885-.626 0-1.141-.208-1.545-.624-.405-.416-.607-.937-.607-1.563 0-.62.196-1.134.589-1.54.392-.408.896-.612 1.51-.612.726 0 1.307.307 1.744.921l.682-.558c-.584-.815-1.39-1.222-2.418-1.222-.85-.012-1.58.28-2.191.877-.611.596-.908 1.31-.89 2.143-.012.838.285 1.554.89 2.147a2.954 2.954 0 002.191.872zm4.251-.097l.416-.974h2.63l.416.974h1.01l-2.577-5.942h-.319L103.862 250h1.001zm2.71-1.78h-1.957l.983-2.417.974 2.417zm4.436 1.877c.567 0 1.035-.156 1.404-.469.369-.313.553-.72.553-1.222 0-.378-.11-.694-.332-.947-.221-.254-.577-.493-1.067-.718l-.655-.3a.788.788 0 00-.08-.045l-.345-.177a1.235 1.235 0 01-.186-.137.48.48 0 01-.164-.213 1.134 1.134 0 01-.04-.261c0-.225.083-.399.248-.523.165-.124.378-.186.638-.186.501 0 .912.237 1.23.709l.656-.505a2.022 2.022 0 00-.775-.761 2.215 2.215 0 00-1.111-.284c-.52 0-.957.148-1.311.443a1.419 1.419 0 00-.531 1.142c0 .372.113.684.34.934.228.251.569.48 1.023.687l.647.3c.325.154.549.289.673.404a.615.615 0 01.186.473.718.718 0 01-.28.594c-.185.147-.429.221-.73.221-.596 0-1.107-.31-1.532-.93l-.664.505a2.497 2.497 0 002.205 1.266zm7.855-.867v-1.639h1.558v-.805h-1.558v-1.62h-.904v1.62h-1.593v.805h1.593v1.639h.904zm6.854.867c.596 0 1.104-.186 1.523-.557.419-.372.628-.848.628-1.426 0-.567-.193-1.013-.58-1.337-.386-.325-.857-.487-1.412-.487-.266 0-.514.026-.744.08v-1.373h2.409v-.841h-3.33v2.94h1.346c.431 0 .763.09.996.27.234.18.35.435.35.766 0 .33-.113.597-.34.8-.228.205-.519.306-.873.306-.567 0-1.039-.289-1.417-.867l-.655.469c.207.39.49.697.85.92.36.225.776.337 1.249.337zm5.357 0c.72 0 1.27-.284 1.652-.854.38-.57.57-1.31.57-2.218 0-.898-.188-1.615-.566-2.152-.372-.543-.924-.815-1.656-.815-.732 0-1.287.275-1.665.824-.378.537-.566 1.251-.566 2.143 0 .903.191 1.64.575 2.213.384.573.936.86 1.656.86zm0-.859c-.838 0-1.257-.735-1.257-2.204 0-1.411.419-2.117 1.257-2.117.832 0 1.249.706 1.249 2.117 0 1.47-.417 2.204-1.249 2.204zm8.705.86c.584 0 1.118-.14 1.602-.417a2.94 2.94 0 001.125-1.124v-1.647h-2.736v.832h1.797v.629c-.383.59-.965.885-1.744.885-.626 0-1.14-.208-1.545-.624-.405-.416-.607-.937-.607-1.563 0-.62.196-1.134.589-1.54.393-.408.896-.612 1.51-.612.726 0 1.307.307 1.744.921l.682-.558c-.584-.815-1.39-1.222-2.417-1.222-.85-.012-1.581.28-2.192.877-.611.596-.908 1.31-.89 2.143-.012.838.285 1.554.89 2.147a2.954 2.954 0 002.192.872zm4.817-.098v-5.844h-.939V250h.939zm4.197.097c.585 0 1.119-.138 1.603-.416a2.94 2.94 0 001.125-1.124v-1.647h-2.737v.832h1.798v.629c-.384.59-.965.885-1.744.885-.626 0-1.141-.208-1.546-.624-.404-.416-.606-.937-.606-1.563 0-.62.196-1.134.589-1.54.392-.408.895-.612 1.51-.612.726 0 1.307.307 1.744.921l.682-.558c-.585-.815-1.39-1.222-2.418-1.222-.85-.012-1.58.28-2.191.877-.611.596-.908 1.31-.89 2.143-.012.838.285 1.554.89 2.147a2.954 2.954 0 002.191.872zm4.25-.097l.417-.974h2.63l.416.974h1.01l-2.577-5.942h-.319L153.044 250h1zm2.71-1.78h-1.957l.983-2.417.974 2.417zm4.437 1.877c.567 0 1.035-.156 1.403-.469.37-.313.554-.72.554-1.222 0-.378-.11-.694-.332-.947-.222-.254-.577-.493-1.067-.718l-.655-.3a.788.788 0 00-.08-.045l-.284-.146-.062-.031a1.235 1.235 0 01-.185-.137.48.48 0 01-.164-.213 1.134 1.134 0 01-.04-.261c0-.225.082-.399.248-.523.165-.124.378-.186.637-.186.502 0 .912.237 1.231.709l.656-.505a2.022 2.022 0 00-.775-.761 2.215 2.215 0 00-1.112-.284c-.52 0-.956.148-1.31.443a1.419 1.419 0 00-.532 1.142c0 .372.114.684.341.934.228.251.569.48 1.023.687l.647.3c.324.154.549.289.673.404a.615.615 0 01.186.473.718.718 0 01-.28.594c-.185.147-.429.221-.73.221-.596 0-1.107-.31-1.532-.93l-.664.505a2.497 2.497 0 002.205 1.266zm9.59-.097v-.841h-3.01v-1.851h2.187v-.815h-2.188v-1.496h2.905v-.841h-3.843V250h3.95zm5.907.097v-5.941h-.94v3.94l-3.55-4.038h-.328V250h.939v-3.958l3.56 4.055h.319zm4.896-.097v-2.258h1.072L184.32 250h1.071l-1.753-2.409c.354-.135.63-.348.828-.637.198-.29.296-.626.296-1.01 0-.525-.183-.955-.549-1.288-.366-.334-.844-.5-1.434-.5h-2.134V250h.938zm1.178-3.09h-1.178v-1.922h1.178c.319 0 .571.089.757.266.186.177.28.41.28.7 0 .288-.094.52-.28.694-.186.174-.438.262-.757.262zm7.42 3.09v-.841h-3.01v-1.851h2.187v-.815h-2.187v-1.496h2.905v-.841h-3.844V250h3.95zm2.923 0c.945 0 1.71-.275 2.298-.824.587-.549.881-1.251.881-2.107 0-.868-.292-1.57-.877-2.108-.584-.537-1.351-.805-2.302-.805h-1.833V250h1.833zm-.009-.841h-.885v-4.153h.885c.68 0 1.22.187 1.62.562.402.375.603.875.603 1.5 0 .62-.202 1.124-.607 1.51-.404.387-.943.58-1.616.58zm10.069.841v-1.018h.797v-.806h-.797v-1.798h-.94v1.798h-1.744l1.656-4.02h-.965l-1.868 4.569v.257h2.922V250h.939zm4.418.097c.585 0 1.119-.138 1.603-.416a2.94 2.94 0 001.125-1.124v-1.647h-2.737v.832h1.798v.629c-.384.59-.965.885-1.744.885-.626 0-1.141-.208-1.546-.624-.404-.416-.606-.937-.606-1.563 0-.62.196-1.134.589-1.54.392-.408.895-.612 1.51-.612.726 0 1.307.307 1.744.921l.682-.558c-.585-.814-1.39-1.222-2.418-1.222-.85-.012-1.58.28-2.191.877-.611.596-.908 1.31-.89 2.143-.012.838.285 1.554.89 2.147a2.954 2.954 0 002.191.872z" fill="#4D008C"/></g><path d="M45.22 23.251V12.5h-2.16v6.304l-6.128-6.496h-.704V23.06h2.16v-6.336l6.112 6.528h.72zm6.081 0c1.302 0 2.374-.416 3.216-1.248.843-.832 1.264-1.936 1.264-3.312V12.5h-2.16v6.352c0 .758-.21 1.347-.632 1.768-.42.422-.984.632-1.688.632-.693 0-1.253-.21-1.68-.632-.426-.42-.64-1.01-.64-1.768V12.5h-2.16v6.192c0 1.376.42 2.48 1.256 3.312.838.832 1.912 1.248 3.224 1.248zm13.394-.192v-1.952H59.56v-2.672h3.632v-1.84H59.56v-2.144h4.944V12.5H57.4v10.56h7.296zm5.586.192L74.985 12.5h-2.432l-2.624 6.4-2.64-6.4H64.84l4.72 10.752h.72zm10.381 0c1.407-.036 2.637-.564 3.692-1.584 1.126-1.088 1.678-2.384 1.656-3.888.022-1.504-.53-2.8-1.656-3.888-1.125-1.088-2.45-1.616-3.976-1.584-1.525-.032-2.845.496-3.96 1.584-1.114 1.088-1.661 2.384-1.64 3.888-.021 1.504.526 2.8 1.64 3.888 1.115 1.088 2.435 1.616 3.96 1.584h.284zm-.268-2c-.981 0-1.792-.325-2.432-.976-.64-.65-.96-1.482-.96-2.496 0-1.013.32-1.845.96-2.496.64-.65 1.451-.976 2.432-.976.971 0 1.779.328 2.424.984.646.656.968 1.486.968 2.488 0 1.014-.322 1.846-.968 2.496-.645.651-1.453.976-2.424.976zm11.972 1.808v-4.416h2.464c1.013 0 1.829-.288 2.448-.864.618-.576.928-1.317.928-2.224 0-.896-.31-1.629-.928-2.2-.619-.57-1.435-.856-2.448-.856h-3.712v10.56h1.248zm2.432-5.536h-2.432V13.62h2.432c.661 0 1.178.18 1.552.536.373.358.56.83.56 1.416 0 .598-.187 1.072-.56 1.424-.374.352-.891.528-1.552.528zm11.025 5.536v-1.12h-5.008V12.5h-1.248v10.56h6.256zm1.474 0l.896-2.144h5.184l.896 2.144h1.328l-4.576-10.736h-.464l-4.576 10.736h1.312zm5.6-3.264h-4.224l2.112-5.2 2.112 5.2zm12.354 3.44V12.5h-1.248v7.936l-6.72-8.112h-.448V23.06h1.248v-7.92l6.72 8.096h.448z" fill="#4F008C" fill-rule="nonzero"/></g></g></svg>